# Blender 4.2.0
# www.blender.org
mtllib flywheel.mtl
o cube.007_cube.004
v 0.625000 0.375000 1.562500
v 0.625000 0.375000 0.937500
v 0.625000 0.625000 1.562500
v 0.625000 0.625000 0.937500
v 0.375000 0.625000 1.562500
v 0.375000 0.625000 0.937500
v 0.375000 0.375000 1.562500
v 0.375000 0.375000 0.937500
v 0.318782 0.375000 0.937500
v 1.339689 0.375000 1.162913
v 0.897748 0.375000 0.720971
v 1.339689 0.625000 1.162913
v 0.897748 0.625000 0.720971
v 1.162913 0.625000 1.339689
v 0.720971 0.625000 0.897748
v 1.162913 0.375000 1.339689
v 0.720971 0.375000 0.897748
v 0.937500 0.625000 0.681218
v 0.681218 0.625000 0.937500
v 0.681218 0.375000 0.937500
v 0.937500 0.375000 0.681218
v 1.562500 0.375000 0.375000
v 1.562500 0.625000 0.375000
v 0.937500 0.625000 0.375000
v 1.562500 0.625000 0.625000
v 1.562500 0.375000 0.625000
v 0.937500 0.375000 0.625000
v 0.937500 0.625000 0.318781
v 1.162912 0.375000 -0.339689
v 0.720971 0.375000 0.102252
v 1.162912 0.625000 -0.339689
v 0.720971 0.625000 0.102252
v 1.339689 0.625000 -0.162912
v 0.897747 0.625000 0.279029
v 1.339689 0.375000 -0.162912
v 0.897747 0.375000 0.279029
v 0.681218 0.625000 0.062500
v 0.937500 0.375000 0.318782
v 0.681218 0.375000 0.062500
v 0.500000 0.625000 0.500000
v 0.500000 0.375000 0.500000
v 0.375000 0.375000 -0.562500
v 0.375000 0.375000 0.062500
v 0.375000 0.625000 -0.562500
v 0.375000 0.625000 0.062500
v 0.625000 0.625000 -0.562500
v 0.625000 0.625000 0.062500
v 0.625000 0.375000 -0.562500
v 0.625000 0.375000 0.062500
v -0.339689 0.375000 -0.162912
v 0.102252 0.375000 0.279029
v -0.339689 0.625000 -0.162912
v 0.102252 0.625000 0.279029
v -0.162912 0.625000 -0.339689
v 0.279029 0.625000 0.102253
v -0.162912 0.375000 -0.339689
v 0.279029 0.375000 0.102253
v 0.318782 0.625000 0.062500
v 0.318782 0.375000 0.062500
v 0.062500 0.375000 0.318782
v -0.562500 0.375000 0.625000
v -0.562500 0.625000 0.625000
v -0.562500 0.625000 0.375000
v -0.562500 0.375000 0.375000
v 0.062500 0.625000 0.318782
v -0.162912 0.375000 1.339689
v 0.279029 0.375000 0.897747
v -0.162912 0.625000 1.339689
v 0.279029 0.625000 0.897747
v -0.339689 0.625000 1.162912
v 0.102253 0.625000 0.720971
v -0.339689 0.375000 1.162912
v 0.102253 0.375000 0.720971
v 0.318782 0.625000 0.937500
v 0.062500 0.625000 0.681218
v 0.062500 0.375000 0.681218
v 0.750000 0.375000 0.750000
v 0.750000 0.375000 0.250000
v 0.250000 0.375000 0.750000
v 0.250000 0.375000 0.250000
v 0.750000 0.187500 0.750000
v 0.750000 0.187500 0.250000
v 0.250000 0.187500 0.750000
v 0.250000 0.187500 0.250000
v 0.750000 0.625000 0.750000
v 0.750000 0.625000 0.250000
v 0.250000 0.625000 0.750000
v 0.250000 0.625000 0.250000
v 0.750000 0.812500 0.750000
v 0.750000 0.812500 0.250000
v 0.250000 0.812500 0.750000
v 0.250000 0.812500 0.250000
v 1.068750 0.687500 1.873085
v 1.068750 0.312500 1.873085
v 0.940102 0.312500 1.562500
v 0.940102 0.687500 1.562500
v 1.873085 0.687500 1.068751
v 1.873084 0.312500 1.068751
v 1.562500 0.312500 0.940102
v 1.562500 0.687500 0.940102
v 1.873085 0.687500 -0.068750
v 1.873085 0.312500 -0.068750
v 1.562500 0.312500 0.059898
v 1.562500 0.687500 0.059898
v 1.068750 0.687500 -0.873084
v 1.068750 0.312500 -0.873084
v 0.940102 0.312500 -0.562500
v 0.940102 0.687500 -0.562500
v -0.068750 0.687500 -0.873084
v -0.068750 0.312500 -0.873084
v 0.059898 0.312500 -0.562500
v 0.059898 0.687500 -0.562500
v -0.873084 0.687500 -0.068750
v -0.873084 0.312500 -0.068750
v -0.562500 0.312500 0.059898
v -0.562499 0.687500 0.059898
v -0.873084 0.687500 1.068750
v -0.873084 0.312500 1.068750
v -0.562500 0.312500 0.940102
v -0.562500 0.687500 0.940102
v -0.068750 0.687500 1.873084
v -0.068750 0.312500 1.873084
v 0.059898 0.312500 1.562499
v 0.059898 0.687500 1.562499
v 0.250000 0.375000 0.625000
v 0.062500 0.375000 0.625000
v 0.250000 0.187500 0.625000
v 0.062500 0.187500 0.625000
v 0.062500 0.375000 0.500000
v 0.250000 0.375000 0.500000
v 0.062500 0.187500 0.500000
v 0.250000 0.187500 0.500000
v 0.093750 0.218750 0.625000
v 0.093750 0.218750 0.687500
v 0.093750 0.343750 0.625000
v 0.093750 0.343750 0.687500
v 0.218750 0.218750 0.625000
v 0.218750 0.218750 0.687500
v 0.218750 0.343750 0.625000
v 0.218750 0.343750 0.687500
v 0.750000 0.375000 0.625000
v 0.750000 0.187500 0.625000
v 0.937500 0.187500 0.625000
v 0.937500 0.375000 0.500000
v 0.750000 0.375000 0.500000
v 0.937500 0.187500 0.500000
v 0.750000 0.187500 0.500000
v 0.906250 0.218750 0.625000
v 0.906250 0.218750 0.687500
v 0.906250 0.343750 0.625000
v 0.906250 0.343750 0.687500
v 0.781250 0.218750 0.625000
v 0.781250 0.218750 0.687500
v 0.781250 0.343750 0.625000
v 0.781250 0.343750 0.687500
v 0.250000 0.625000 0.625000
v 0.062500 0.625000 0.625000
v 0.250000 0.812500 0.625000
v 0.062500 0.812500 0.625000
v 0.062500 0.625000 0.500000
v 0.250000 0.625000 0.500000
v 0.062500 0.812500 0.500000
v 0.250000 0.812500 0.500000
v 0.093750 0.781250 0.625000
v 0.093750 0.781250 0.687500
v 0.093750 0.656250 0.625000
v 0.093750 0.656250 0.687500
v 0.218750 0.781250 0.625000
v 0.218750 0.781250 0.687500
v 0.218750 0.656250 0.625000
v 0.218750 0.656250 0.687500
v 0.750000 0.625000 0.625000
v 0.937500 0.625000 0.625000
v 0.750000 0.812500 0.625000
v 0.937500 0.812500 0.625000
v 0.937500 0.625000 0.500000
v 0.750000 0.625000 0.500000
v 0.937500 0.812500 0.500000
v 0.750000 0.812500 0.500000
v 0.906250 0.781250 0.625000
v 0.906250 0.781250 0.687500
v 0.906250 0.656250 0.625000
v 0.906250 0.656250 0.687500
v 0.781250 0.781250 0.625000
v 0.781250 0.781250 0.687500
v 0.781250 0.656250 0.625000
v 0.781250 0.656250 0.687500
v 0.250000 0.375000 0.375000
v 0.062500 0.375000 0.375000
v 0.250000 0.187500 0.375000
v 0.062500 0.187500 0.375000
v 0.093750 0.218750 0.375000
v 0.093750 0.218750 0.312500
v 0.093750 0.343750 0.375000
v 0.093750 0.343750 0.312500
v 0.218750 0.218750 0.375000
v 0.218750 0.218750 0.312500
v 0.218750 0.343750 0.375000
v 0.218750 0.343750 0.312500
v 0.750000 0.375000 0.375000
v 0.937500 0.375000 0.375000
v 0.750000 0.187500 0.375000
v 0.937500 0.187500 0.375000
v 0.906250 0.218750 0.375000
v 0.906250 0.218750 0.312500
v 0.906250 0.343750 0.375000
v 0.906250 0.343750 0.312500
v 0.781250 0.218750 0.375000
v 0.781250 0.218750 0.312500
v 0.781250 0.343750 0.375000
v 0.781250 0.343750 0.312500
v 0.250000 0.625000 0.375000
v 0.062500 0.625000 0.375000
v 0.250000 0.812500 0.375000
v 0.062500 0.812500 0.375000
v 0.093750 0.781250 0.375000
v 0.093750 0.781250 0.312500
v 0.093750 0.656250 0.375000
v 0.093750 0.656250 0.312500
v 0.218750 0.781250 0.375000
v 0.218750 0.781250 0.312500
v 0.218750 0.656250 0.375000
v 0.218750 0.656250 0.312500
v 0.750000 0.625000 0.375000
v 0.750000 0.812500 0.375000
v 0.937500 0.812500 0.375000
v 0.906250 0.781250 0.375000
v 0.906250 0.781250 0.312500
v 0.906250 0.656250 0.375000
v 0.906250 0.656250 0.312500
v 0.781250 0.781250 0.375000
v 0.781250 0.781250 0.312500
v 0.781250 0.656250 0.375000
v 0.781250 0.656250 0.312500
vn -0.0000 -0.0000 1.0000
vn -0.0000 -1.0000 -0.0000
vn -0.0000 1.0000 -0.0000
vn 0.7071 -0.0000 0.7071
vn 1.0000 -0.0000 -0.0000
vn 0.7071 -0.0000 -0.7071
vn -0.0000 -0.0000 -1.0000
vn -0.7071 -0.0000 -0.7071
vn -1.0000 -0.0000 -0.0000
vn -0.7071 -0.0000 0.7071
vt 0.562500 0.687500
vt 0.562500 0.500000
vt 0.687500 0.500000
vt 0.687500 0.687500
vt 0.812500 1.000000
vt 0.906250 0.781250
vt 1.000000 1.000000
vt 0.812500 0.937500
vt 0.812500 0.968750
vt 0.750000 0.968750
vt 0.750000 0.937500
vt 0.812500 0.812500
vt 0.750000 0.812500
vt 0.750000 0.750000
vt 0.812500 0.750000
vt 0.687500 1.000000
vt 0.562500 1.000000
vt 0.812500 0.687500
vt 0.875000 0.531250
vt 0.937500 0.531250
vt 0.937500 0.593750
vt 0.875000 0.593750
vt 0.218750 0.468750
vt 0.218750 0.375000
vt 0.468750 0.375000
vt 0.468750 0.468750
vt 0.468750 0.125000
vt 0.218750 0.125000
vt 0.500000 0.656250
vt 0.062500 0.656250
vt 0.062500 0.468750
vt 0.500000 0.468750
vt 0.000000 0.812500
vt 0.562500 0.812500
vt 0.000000 1.000000
vt 0.125000 0.250000
vt 0.125000 0.312500
vt 0.031250 0.312500
vt 0.031250 0.250000
vt 0.218750 0.250000
vt 0.218750 0.312500
vt 0.218750 0.406250
vt 0.125000 0.406250
s 0
usemtl m_0
f 19/1/1 74/2/1 9/3/1 20/4/1
f 9/5/2 41/6/2 20/7/2
f 19/7/3 40/6/3 74/5/3
f 18/1/4 19/2/4 20/3/4 21/4/4
f 20/5/2 41/6/2 21/7/2
f 18/7/3 40/6/3 19/5/3
f 28/1/5 18/2/5 21/3/5 38/4/5
f 21/5/2 41/6/2 38/7/2
f 28/7/3 40/6/3 18/5/3
f 37/1/6 28/2/6 38/3/6 39/4/6
f 38/5/2 41/6/2 39/7/2
f 37/7/3 40/6/3 28/5/3
f 58/1/7 37/2/7 39/3/7 59/4/7
f 39/5/2 41/6/2 59/7/2
f 58/7/3 40/6/3 37/5/3
f 65/1/8 58/2/8 59/3/8 60/4/8
f 59/5/2 41/6/2 60/7/2
f 65/7/3 40/6/3 58/5/3
f 75/1/9 65/2/9 60/3/9 76/4/9
f 60/5/2 41/6/2 76/7/2
f 75/7/3 40/6/3 65/5/3
f 74/1/10 75/2/10 76/3/10 9/4/10
f 76/5/2 41/6/2 9/7/2
f 74/7/3 40/6/3 75/5/3
f 133/8/9 134/9/9 136/10/9 135/11/9
f 135/8/3 136/9/3 140/10/3 139/11/3
f 139/8/5 140/9/5 138/10/5 137/11/5
f 137/8/2 138/9/2 134/10/2 133/11/2
f 140/12/1 136/13/1 134/14/1 138/15/1
f 148/8/5 150/11/5 151/10/5 149/9/5
f 150/8/3 154/11/3 155/10/3 151/9/3
f 154/8/9 152/11/9 153/10/9 155/9/9
f 152/8/2 148/11/2 149/10/2 153/9/2
f 155/12/1 153/15/1 149/14/1 151/13/1
f 164/8/9 166/11/9 167/10/9 165/9/9
f 166/8/2 170/11/2 171/10/2 167/9/2
f 170/8/5 168/11/5 169/10/5 171/9/5
f 168/8/3 164/11/3 165/10/3 169/9/3
f 171/12/1 169/15/1 165/14/1 167/13/1
f 180/8/5 181/9/5 183/10/5 182/11/5
f 182/8/2 183/9/2 187/10/2 186/11/2
f 186/8/9 187/9/9 185/10/9 184/11/9
f 184/8/3 185/9/3 181/10/3 180/11/3
f 187/12/1 183/13/1 181/14/1 185/15/1
f 192/8/9 194/11/9 195/10/9 193/9/9
f 194/8/3 198/11/3 199/10/3 195/9/3
f 198/8/5 196/11/5 197/10/5 199/9/5
f 196/8/2 192/11/2 193/10/2 197/9/2
f 199/12/7 197/15/7 193/14/7 195/13/7
f 204/8/5 205/9/5 207/10/5 206/11/5
f 206/8/3 207/9/3 211/10/3 210/11/3
f 210/8/9 211/9/9 209/10/9 208/11/9
f 208/8/2 209/9/2 205/10/2 204/11/2
f 211/12/7 207/13/7 205/14/7 209/15/7
f 216/8/9 217/9/9 219/10/9 218/11/9
f 218/8/2 219/9/2 223/10/2 222/11/2
f 222/8/5 223/9/5 221/10/5 220/11/5
f 220/8/3 221/9/3 217/10/3 216/11/3
f 223/12/7 219/13/7 217/14/7 221/15/7
f 227/8/5 229/11/5 230/10/5 228/9/5
f 229/8/2 233/11/2 234/10/2 230/9/2
f 233/8/9 231/11/9 232/10/9 234/9/9
f 231/8/3 227/11/3 228/10/3 232/9/3
f 234/12/7 232/15/7 228/14/7 230/13/7
f 8/1/2 2/4/2 1/16/2 7/17/2
f 2/4/5 4/18/5 3/5/5 1/16/5
f 4/1/3 6/4/3 5/16/3 3/17/3
f 6/4/9 8/18/9 7/5/9 5/16/9
f 17/1/2 11/4/2 10/16/2 16/17/2
f 11/4/6 13/18/6 12/5/6 10/16/6
f 13/1/3 15/4/3 14/16/3 12/17/3
f 15/4/10 17/18/10 16/5/10 14/16/10
f 27/1/2 201/4/2 22/16/2 26/17/2
f 201/4/7 24/18/7 23/5/7 22/16/7
f 24/1/3 173/4/3 25/16/3 23/17/3
f 173/4/1 27/18/1 26/5/1 25/16/1
f 36/1/2 30/4/2 29/16/2 35/17/2
f 30/4/8 32/18/8 31/5/8 29/16/8
f 32/1/3 34/4/3 33/16/3 31/17/3
f 34/4/4 36/18/4 35/5/4 33/16/4
f 49/1/2 43/4/2 42/16/2 48/17/2
f 43/4/9 45/18/9 44/5/9 42/16/9
f 45/1/3 47/4/3 46/16/3 44/17/3
f 47/4/5 49/18/5 48/5/5 46/16/5
f 57/1/2 51/4/2 50/16/2 56/17/2
f 51/4/10 53/18/10 52/5/10 50/16/10
f 53/1/3 55/4/3 54/16/3 52/17/3
f 55/4/6 57/18/6 56/5/6 54/16/6
f 189/1/2 126/4/2 61/16/2 64/17/2
f 126/4/1 157/18/1 62/5/1 61/16/1
f 157/1/3 213/4/3 63/16/3 62/17/3
f 213/4/7 189/18/7 64/5/7 63/16/7
f 73/1/2 67/4/2 66/16/2 72/17/2
f 67/4/4 69/18/4 68/5/4 66/16/4
f 69/1/3 71/4/3 70/16/3 68/17/3
f 71/4/8 73/18/8 72/5/8 70/16/8
f 78/19/3 80/20/3 79/21/3 77/22/3
f 77/23/5 81/24/5 82/25/5 78/26/5
f 79/23/1 83/24/1 81/25/1 77/26/1
f 84/24/9 83/25/9 79/26/9 80/23/9
f 82/27/2 81/25/2 83/24/2 84/28/2
f 78/23/7 82/24/7 84/25/7 80/26/7
f 86/19/2 85/22/2 87/21/2 88/20/2
f 85/23/5 86/26/5 90/25/5 89/24/5
f 87/23/1 85/26/1 89/25/1 91/24/1
f 92/24/9 88/23/9 87/26/9 91/25/9
f 90/27/3 92/28/3 91/24/3 89/25/3
f 86/23/7 88/26/7 92/25/7 90/24/7
f 95/29/7 123/30/7 124/31/7 96/32/7
f 121/33/3 93/34/3 96/29/3 124/30/3
f 94/34/2 122/33/2 123/30/2 95/29/2
f 93/17/1 121/35/1 122/33/1 94/34/1
f 99/29/8 95/30/8 96/31/8 100/32/8
f 93/33/3 97/34/3 100/29/3 96/30/3
f 98/34/2 94/33/2 95/30/2 99/29/2
f 97/17/4 93/35/4 94/33/4 98/34/4
f 103/29/9 99/30/9 100/31/9 104/32/9
f 97/33/3 101/34/3 104/29/3 100/30/3
f 102/34/2 98/33/2 99/30/2 103/29/2
f 101/17/5 97/35/5 98/33/5 102/34/5
f 107/29/10 103/30/10 104/31/10 108/32/10
f 101/33/3 105/34/3 108/29/3 104/30/3
f 106/34/2 102/33/2 103/30/2 107/29/2
f 105/17/6 101/35/6 102/33/6 106/34/6
f 111/29/1 107/30/1 108/31/1 112/32/1
f 105/33/3 109/34/3 112/29/3 108/30/3
f 110/34/2 106/33/2 107/30/2 111/29/2
f 109/17/7 105/35/7 106/33/7 110/34/7
f 115/29/4 111/30/4 112/31/4 116/32/4
f 109/33/3 113/34/3 116/29/3 112/30/3
f 114/34/2 110/33/2 111/30/2 115/29/2
f 113/17/8 109/35/8 110/33/8 114/34/8
f 119/29/5 115/30/5 116/31/5 120/32/5
f 113/33/3 117/34/3 120/29/3 116/30/3
f 118/34/2 114/33/2 115/30/2 119/29/2
f 117/17/9 113/35/9 114/33/9 118/34/9
f 123/29/6 119/30/6 120/31/6 124/32/6
f 117/33/3 121/34/3 124/29/3 120/30/3
f 122/34/2 118/33/2 119/30/2 123/29/2
f 121/17/10 117/35/10 118/33/10 122/34/10
f 131/36/9 128/37/9 126/38/9 129/39/9
f 132/40/2 127/41/2 128/37/2 131/36/2
f 126/37/1 128/41/1 127/42/1 125/43/1
f 146/36/5 144/39/5 27/38/5 143/37/5
f 147/40/2 146/36/2 143/37/2 142/41/2
f 27/37/1 141/43/1 142/42/1 143/41/1
f 162/36/9 160/39/9 157/38/9 159/37/9
f 163/40/3 162/36/3 159/37/3 158/41/3
f 157/37/1 156/43/1 158/42/1 159/41/1
f 178/36/5 175/37/5 173/38/5 176/39/5
f 179/40/3 174/41/3 175/37/3 178/36/3
f 173/37/1 175/41/1 174/42/1 172/43/1
f 131/36/9 129/39/9 189/38/9 191/37/9
f 132/40/2 131/36/2 191/37/2 190/41/2
f 189/37/7 188/43/7 190/42/7 191/41/7
f 146/36/5 203/37/5 201/38/5 144/39/5
f 147/40/2 202/41/2 203/37/2 146/36/2
f 201/37/7 203/41/7 202/42/7 200/43/7
f 162/36/9 215/37/9 213/38/9 160/39/9
f 163/40/3 214/41/3 215/37/3 162/36/3
f 213/37/7 215/41/7 214/42/7 212/43/7
f 178/36/5 176/39/5 24/38/5 226/37/5
f 179/40/3 178/36/3 226/37/3 225/41/3
f 24/37/7 224/43/7 225/42/7 226/41/7
l 130 132
l 129 130
l 145 147
l 144 145
l 161 163
l 160 161
l 177 179
l 176 177
