# Made in Blockbench 4.1.4
mtllib ascending.mtl

o cube1
v 1.8718750000000002 0.7424621202458751 0.6502601910021413
v 1.8718750000000002 0.5656854249492382 0.47348349570550435
v 1.8718750000000002 0.5612660075668223 0.8314563036811942
v 1.8718750000000002 0.38448931227018535 0.6546796083845572
v 0.5 0.5656854249492382 0.47348349570550435
v 0.5 0.7424621202458751 0.6502601910021413
v 0.5 0.38448931227018535 0.6546796083845572
v 0.5 0.5612660075668223 0.8314563036811942
vt 0.6875 0.875
vt 0 0.875
vt 0 0.75
vt 0.6875 0.75
vt 0 0.875
vt 0.6875 0.875
vt 0.6875 0.75
vt 0 0.75
vt 0 0.75
vt 0.6875 0.75
vt 0.6875 0.625
vt 0 0.625
vn 0 -0.7071067811865476 -0.7071067811865475
vn 0 0.7071067811865476 0.7071067811865475
vn 0 -0.7071067811865475 0.7071067811865476
usemtl m_1_0
f 4/4/1 7/3/1 5/2/1 2/1/1
f 8/8/2 3/7/2 1/6/2 6/5/2
f 7/12/3 4/11/3 3/10/3 8/9/3
o cube2
v 1.8718750000000002 0.4110058165646809 0.3188038873209471
v 1.8718750000000002 0.23422912126804393 0.1420271920243102
v 1.8718750000000002 0.22980970388562805 0.5
v 1.8718750000000002 0.0530330085889911 0.323223304703363
v 0.5 0.23422912126804393 0.1420271920243102
v 0.5 0.4110058165646809 0.3188038873209471
v 0.5 0.0530330085889911 0.323223304703363
v 0.5 0.22980970388562805 0.5
vt 0.6875 0.875
vt 0 0.875
vt 0 0.75
vt 0.6875 0.75
vt 0 0.875
vt 0.6875 0.875
vt 0.6875 0.75
vt 0 0.75
vt 0 0.75
vt 0.6875 0.75
vt 0.6875 0.625
vt 0 0.625
vn 0 -0.7071067811865476 -0.7071067811865475
vn 0 0.7071067811865476 0.7071067811865475
vn 0 -0.7071067811865475 0.7071067811865476
usemtl m_1_0
f 12/16/4 15/15/4 13/14/4 10/13/4
f 16/20/5 11/19/5 9/18/5 14/17/5
f 15/24/6 12/23/6 11/22/6 16/21/6
o cube3
v 0.5 0.7424621202458751 0.6502601910021413
v 0.5 0.5656854249492382 0.47348349570550435
v 0.5 0.5612660075668223 0.8314563036811942
v 0.5 0.38448931227018535 0.6546796083845572
v -0.871875 0.5656854249492382 0.47348349570550435
v -0.871875 0.7424621202458751 0.6502601910021413
v -0.871875 0.38448931227018535 0.6546796083845572
v -0.871875 0.5612660075668223 0.8314563036811942
vt 0 0.875
vt 0.6875 0.875
vt 0.6875 0.75
vt 0 0.75
vt 0.6875 0.875
vt 0 0.875
vt 0 0.75
vt 0.6875 0.75
vt 0.6875 0.625
vt 0 0.625
vt 0 0.75
vt 0.6875 0.75
vn 0 -0.7071067811865476 -0.7071067811865475
vn 0 0.7071067811865476 0.7071067811865475
vn 0 -0.7071067811865475 0.7071067811865476
usemtl m_1_0
f 20/28/7 23/27/7 21/26/7 18/25/7
f 24/32/8 19/31/8 17/30/8 22/29/8
f 23/36/9 20/35/9 19/34/9 24/33/9
o cube5
v 1.8718750000000002 1.0739184239270694 0.9817164946833354
v 1.8718750000000002 0.8971417286304324 0.8049397993866985
v 1.8718750000000002 0.8927223112480165 1.1629126073623883
v 1.8718750000000002 0.7159456159513795 0.9861359120657514
v 0.5 0.8971417286304324 0.8049397993866985
v 0.5 1.0739184239270694 0.9817164946833354
v 0.5 0.7159456159513795 0.9861359120657514
v 0.5 0.8927223112480165 1.1629126073623883
vt 0.6875 0.875
vt 0 0.875
vt 0 0.75
vt 0.6875 0.75
vt 0 0.875
vt 0.6875 0.875
vt 0.6875 0.75
vt 0 0.75
vt 0 0.75
vt 0.6875 0.75
vt 0.6875 0.625
vt 0 0.625
vn 0 -0.7071067811865476 -0.7071067811865475
vn 0 0.7071067811865476 0.7071067811865475
vn 0 -0.7071067811865475 0.7071067811865476
usemtl m_1_0
f 28/40/10 31/39/10 29/38/10 26/37/10
f 32/44/11 27/43/11 25/42/11 30/41/11
f 31/48/12 28/47/12 27/46/12 32/45/12
o cube4
v 0.5 1.0739184239270694 0.9817164946833354
v 0.5 0.8971417286304324 0.8049397993866985
v 0.5 0.8927223112480165 1.1629126073623883
v 0.5 0.7159456159513795 0.9861359120657514
v -0.871875 0.8971417286304324 0.8049397993866985
v -0.871875 1.0739184239270694 0.9817164946833354
v -0.871875 0.7159456159513795 0.9861359120657514
v -0.871875 0.8927223112480165 1.1629126073623883
vt 0 0.875
vt 0.6875 0.875
vt 0.6875 0.75
vt 0 0.75
vt 0.6875 0.875
vt 0 0.875
vt 0 0.75
vt 0.6875 0.75
vt 0.6875 0.625
vt 0 0.625
vt 0 0.75
vt 0.6875 0.75
vn 0 -0.7071067811865476 -0.7071067811865475
vn 0 0.7071067811865476 0.7071067811865475
vn 0 -0.7071067811865475 0.7071067811865476
usemtl m_1_0
f 36/52/13 39/51/13 37/50/13 34/49/13
f 40/56/14 35/55/14 33/54/14 38/53/14
f 39/60/15 36/59/15 35/58/15 40/57/15
o cube6
v 0.5 0.4110058165646809 0.3188038873209471
v 0.5 0.23422912126804393 0.1420271920243102
v 0.5 0.22980970388562805 0.5
v 0.5 0.0530330085889911 0.323223304703363
v -0.871875 0.23422912126804393 0.1420271920243102
v -0.871875 0.4110058165646809 0.3188038873209471
v -0.871875 0.0530330085889911 0.323223304703363
v -0.871875 0.22980970388562805 0.5
vt 0 0.875
vt 0.6875 0.875
vt 0.6875 0.75
vt 0 0.75
vt 0.6875 0.875
vt 0 0.875
vt 0 0.75
vt 0.6875 0.75
vt 0.6875 0.625
vt 0 0.625
vt 0 0.75
vt 0.6875 0.75
vn 0 -0.7071067811865476 -0.7071067811865475
vn 0 0.7071067811865476 0.7071067811865475
vn 0 -0.7071067811865475 0.7071067811865476
usemtl m_1_0
f 44/64/16 47/63/16 45/62/16 42/61/16
f 48/68/17 43/67/17 41/66/17 46/65/17
f 47/72/18 44/71/18 43/70/18 48/69/18
o cube7
v 0.5 0.4993941642129993 0.40719223496926554
v 0.5 0.14584077361972547 0.05363884437599176
v 0.5 0.31819805153394654 0.5883883476483184
v 0.5 -0.03535533905932736 0.2348349570550446
v -0.871875 0.14584077361972547 0.05363884437599176
v -0.871875 0.4993941642129993 0.40719223496926554
v -0.871875 -0.03535533905932736 0.2348349570550446
v -0.871875 0.31819805153394654 0.5883883476483184
vt 0.6875 0.46875
vt 0.6875 0.71875
vt 0.8125 0.71875
vt 0.8125 0.46875
vt 0.6875 0.46875
vt 0 0.46875
vt 0 0.71875
vt 0.6875 0.71875
vn -1 0 0
vn 0 0.7071067811865475 -0.7071067811865476
usemtl m_2
f 55/76/19 56/75/19 54/74/19 53/73/19
f 54/80/20 49/79/20 50/78/20 53/77/20
o cube8
v 0.5 0.8308504678941935 0.7386485386504598
v 0.5 0.47729707730091975 0.3850951480571859
v 0.5 0.6496543552151406 0.9198446513295127
v 0.5 0.2961009646218669 0.5662912607362388
v -0.871875 0.47729707730091975 0.3850951480571859
v -0.871875 0.8308504678941935 0.7386485386504598
v -0.871875 0.2961009646218669 0.5662912607362388
v -0.871875 0.6496543552151406 0.9198446513295127
vt 0.6875 0.46875
vt 0.6875 0.71875
vt 0.8125 0.71875
vt 0.8125 0.46875
vt 0.6875 0.46875
vt 0 0.46875
vt 0 0.71875
vt 0.6875 0.71875
vn -1 0 0
vn 0 0.7071067811865475 -0.7071067811865476
usemtl m_2
f 63/84/21 64/83/21 62/82/21 61/81/21
f 62/88/22 57/87/22 58/86/22 61/85/22
o cube9
v 0.5 1.1623067715753876 1.0701048423316537
v 0.5 0.8087533809821139 0.71655145173838
v 0.5 0.9811106588963348 1.2513009550107066
v 0.5 0.627557268303061 0.8977475644174329
v -0.871875 0.8087533809821139 0.71655145173838
v -0.871875 1.1623067715753876 1.0701048423316537
v -0.871875 0.627557268303061 0.8977475644174329
v -0.871875 0.9811106588963348 1.2513009550107066
vt 0.6875 0.46875
vt 0.6875 0.71875
vt 0.8125 0.71875
vt 0.8125 0.46875
vt 0.6875 0.46875
vt 0 0.46875
vt 0 0.71875
vt 0.6875 0.71875
vn -1 0 0
vn 0 0.7071067811865475 -0.7071067811865476
usemtl m_2
f 71/92/23 72/91/23 70/90/23 69/89/23
f 70/96/24 65/95/24 66/94/24 69/93/24
o cube10
v 1.8718750000000002 0.4993941642129993 0.40719223496926554
v 1.8718750000000002 0.14584077361972547 0.05363884437599176
v 1.8718750000000002 0.31819805153394654 0.5883883476483184
v 1.8718750000000002 -0.03535533905932736 0.2348349570550446
v 0.5 0.14584077361972547 0.05363884437599176
v 0.5 0.4993941642129993 0.40719223496926554
v 0.5 -0.03535533905932736 0.2348349570550446
v 0.5 0.31819805153394654 0.5883883476483184
vt 0.6875 0.46875
vt 0.6875 0.71875
vt 0.8125 0.71875
vt 0.8125 0.46875
vt 0 0.71875
vt 0.6875 0.71875
vt 0.6875 0.46875
vt 0 0.46875
vn 1 0 0
vn 0 0.7071067811865475 -0.7071067811865476
usemtl m_2
f 75/100/25 76/99/25 74/98/25 73/97/25
f 78/104/26 73/103/26 74/102/26 77/101/26
o cube11
v 1.8718750000000002 0.8308504678941935 0.7386485386504598
v 1.8718750000000002 0.47729707730091975 0.3850951480571859
v 1.8718750000000002 0.6496543552151406 0.9198446513295127
v 1.8718750000000002 0.2961009646218669 0.5662912607362388
v 0.5 0.47729707730091975 0.3850951480571859
v 0.5 0.8308504678941935 0.7386485386504598
v 0.5 0.2961009646218669 0.5662912607362388
v 0.5 0.6496543552151406 0.9198446513295127
vt 0.6875 0.46875
vt 0.6875 0.71875
vt 0.8125 0.71875
vt 0.8125 0.46875
vt 0 0.71875
vt 0.6875 0.71875
vt 0.6875 0.46875
vt 0 0.46875
vn 1 0 0
vn 0 0.7071067811865475 -0.7071067811865476
usemtl m_2
f 83/108/27 84/107/27 82/106/27 81/105/27
f 86/112/28 81/111/28 82/110/28 85/109/28
o cube12
v 1.8718750000000002 1.1623067715753876 1.0701048423316537
v 1.8718750000000002 0.8087533809821139 0.71655145173838
v 1.8718750000000002 0.9811106588963348 1.2513009550107066
v 1.8718750000000002 0.627557268303061 0.8977475644174329
v 0.5 0.8087533809821139 0.71655145173838
v 0.5 1.1623067715753876 1.0701048423316537
v 0.5 0.627557268303061 0.8977475644174329
v 0.5 0.9811106588963348 1.2513009550107066
vt 0.6875 0.46875
vt 0.6875 0.71875
vt 0.8125 0.71875
vt 0.8125 0.46875
vt 0 0.71875
vt 0.6875 0.71875
vt 0.6875 0.46875
vt 0 0.46875
vn 1 0 0
vn 0 0.7071067811865475 -0.7071067811865476
usemtl m_2
f 91/116/29 92/115/29 90/114/29 89/113/29
f 94/120/30 89/119/30 90/118/30 93/117/30
o rail1
v 1.5968749999999998 1.1181125977512285 1.114299016155813
v 1.5968749999999998 0.10164659979556628 0.09783301820015089
v 1.5968749999999998 1.1159028890600204 1.116508724847021
v 1.5968749999999998 0.09943689110435827 0.10004272689135896
v 1.334375 0.10164659979556628 0.09783301820015089
v 1.334375 1.1181125977512285 1.114299016155813
v 1.334375 0.09943689110435827 0.10004272689135896
v 1.334375 1.1159028890600204 1.116508724847021
vt 0.71875 0.46875
vt 0.71875 0.34375
vt 0 0.34375
vt 0 0.46875
vt 0.71875 0.46875
vt 0.71875 0.34375
vt 0 0.34375
vt 0 0.46875
vn 0 0.7071067811865475 -0.7071067811865476
vn 0 -0.7071067811865475 0.7071067811865476
usemtl m_1_0
f 102/124/31 97/123/31 98/122/31 101/121/31
f 103/128/32 100/127/32 99/126/32 104/125/32
o rail2
v 1.5906250000000002 1.3125669625775285 0.9198446513295129
v 1.5906250000000002 0.2961009646218663 -0.09662134662614907
v 1.5906250000000002 1.3103572538863204 0.9220543600207209
v 1.5906250000000002 0.2938912559306583 -0.09441163793494112
v 1.340625 0.2961009646218663 -0.09662134662614907
v 1.340625 1.3125669625775285 0.9198446513295129
v 1.340625 0.2938912559306583 -0.09441163793494112
v 1.340625 1.3103572538863204 0.9220543600207209
vt 0.71875 0.28125
vt 0.71875 0.15625
vt 0 0.15625
vt 0 0.28125
vt 0.71875 0.46875
vt 0.71875 0.34375
vt 0 0.34375
vt 0 0.46875
vn 0 0.7071067811865475 -0.7071067811865476
vn 0 -0.7071067811865475 0.7071067811865476
usemtl m_1_0
f 110/132/33 105/131/33 106/130/33 109/129/33
f 111/136/34 108/135/34 107/134/34 112/133/34
o rail3
v 1.5625 1.3125669625775285 0.9198446513295129
v 1.5625 0.2961009646218663 -0.09662134662614907
v 1.5625 1.1181125977512285 1.114299016155813
v 1.5625 0.10164659979556628 0.09783301820015089
v 1.36875 0.2961009646218663 -0.09662134662614907
v 1.36875 1.3125669625775285 0.9198446513295129
v 1.36875 0.10164659979556628 0.09783301820015089
v 1.36875 1.1181125977512285 1.114299016155813
vt 0.6875 0.875
vt 0.78125 0.875
vt 0.78125 0.75
vt 0.6875 0.75
vt 0 0.625
vt 0.71875 0.625
vt 0.71875 0.5
vt 0 0.5
vt 0.6875 0.875
vt 0.78125 0.875
vt 0.78125 0.75
vt 0.6875 0.75
vt 0 0.625
vt 0.71875 0.625
vt 0.71875 0.5
vt 0 0.5
vn 0 -0.7071067811865476 -0.7071067811865475
vn 1 0 0
vn 0 0.7071067811865476 0.7071067811865475
vn -1 0 0
usemtl m_1_0
f 116/140/35 119/139/35 117/138/35 114/137/35
f 115/144/36 116/143/36 114/142/36 113/141/36
f 120/148/37 115/147/37 113/146/37 118/145/37
f 119/152/38 120/151/38 118/150/38 117/149/38
o rail4
v -0.34062499999999996 1.3125669625775285 0.9198446513295129
v -0.34062499999999996 0.2961009646218663 -0.09662134662614907
v -0.34062499999999996 1.3103572538863204 0.9220543600207209
v -0.34062499999999996 0.2938912559306583 -0.09441163793494112
v -0.590625 0.2961009646218663 -0.09662134662614907
v -0.590625 1.3125669625775285 0.9198446513295129
v -0.590625 0.2938912559306583 -0.09441163793494112
v -0.590625 1.3103572538863204 0.9220543600207209
vt 0.71875 0.15625
vt 0.71875 0.28125
vt 0 0.28125
vt 0 0.15625
vt 0.71875 0.34375
vt 0.71875 0.46875
vt 0 0.46875
vt 0 0.34375
vn 0 0.7071067811865475 -0.7071067811865476
vn 0 -0.7071067811865475 0.7071067811865476
usemtl m_1_0
f 126/156/39 121/155/39 122/154/39 125/153/39
f 127/160/40 124/159/40 123/158/40 128/157/40
o rail5
v -0.36875 1.3125669625775285 0.9198446513295129
v -0.36875 0.2961009646218663 -0.09662134662614907
v -0.36875 1.1181125977512285 1.114299016155813
v -0.36875 0.10164659979556628 0.09783301820015089
v -0.5625 0.2961009646218663 -0.09662134662614907
v -0.5625 1.3125669625775285 0.9198446513295129
v -0.5625 0.10164659979556628 0.09783301820015089
v -0.5625 1.1181125977512285 1.114299016155813
vt 0.78125 0.875
vt 0.6875 0.875
vt 0.6875 0.75
vt 0.78125 0.75
vt 0.71875 0.625
vt 0 0.625
vt 0 0.5
vt 0.71875 0.5
vt 0.78125 0.875
vt 0.6875 0.875
vt 0.6875 0.75
vt 0.78125 0.75
vt 0.71875 0.625
vt 0 0.625
vt 0 0.5
vt 0.71875 0.5
vn 0 -0.7071067811865476 -0.7071067811865475
vn 1 0 0
vn 0 0.7071067811865476 0.7071067811865475
vn -1 0 0
usemtl m_1_0
f 132/164/41 135/163/41 133/162/41 130/161/41
f 131/168/42 132/167/42 130/166/42 129/165/42
f 136/172/43 131/171/43 129/170/43 134/169/43
f 135/176/44 136/175/44 134/174/44 133/173/44
o rail6
v -0.334375 1.1181125977512285 1.114299016155813
v -0.334375 0.10164659979556628 0.09783301820015089
v -0.334375 1.1159028890600204 1.116508724847021
v -0.334375 0.09943689110435827 0.10004272689135896
v -0.596875 0.10164659979556628 0.09783301820015089
v -0.596875 1.1181125977512285 1.114299016155813
v -0.596875 0.09943689110435827 0.10004272689135896
v -0.596875 1.1159028890600204 1.116508724847021
vt 0.71875 0.34375
vt 0.71875 0.46875
vt 0 0.46875
vt 0 0.34375
vt 0.71875 0.34375
vt 0.71875 0.46875
vt 0 0.46875
vt 0 0.34375
vn 0 0.7071067811865475 -0.7071067811865476
vn 0 -0.7071067811865475 0.7071067811865476
usemtl m_1_0
f 142/180/45 137/179/45 138/178/45 141/177/45
f 143/184/46 140/183/46 139/182/46 144/181/46