# Made in Blockbench 4.1.4
mtllib track.mtl

o cube1
v 1.5584504630886133 0.12812500000000004 -0.3816737677919766
v 1.3816737677919764 0.12812500000000004 -0.5584504630886136
v 1.5584504630886133 -0.128125 -0.3816737677919766
v 1.3816737677919764 -0.128125 -0.5584504630886136
v 0.41161165235168157 0.12812500000000004 0.41161165235168157
v 0.5883883476483185 0.12812500000000004 0.5883883476483185
v 0.41161165235168157 -0.128125 0.41161165235168157
v 0.5883883476483185 -0.128125 0.5883883476483185
vt 0.6875 0.875
vt 0 0.875
vt 0 0.75
vt 0.6875 0.75
vt 0 0.875
vt 0.6875 0.875
vt 0.6875 0.75
vt 0 0.75
vt 0 0.75
vt 0.6875 0.75
vt 0.6875 0.625
vt 0 0.625
vn -0.7071067811865476 0 -0.7071067811865475
vn 0.7071067811865476 0 0.7071067811865475
vn 0 -1 0
usemtl m_0
f 4/4/1 7/3/1 5/2/1 2/1/1
f 8/8/2 3/7/2 1/6/2 6/5/2
f 7/12/3 4/11/3 3/10/3 8/9/3
o cube2
v 1.2269941594074192 0.12812500000000004 -0.7131300714731708
v 1.0502174641107824 0.12812500000000004 -0.8899067667698075
v 1.2269941594074192 -0.128125 -0.7131300714731708
v 1.0502174641107824 -0.128125 -0.8899067667698075
v 0.0801553486704874 0.12812500000000004 0.08015534867048746
v 0.25693204396712427 0.12812500000000004 0.2569320439671243
v 0.0801553486704874 -0.128125 0.08015534867048746
v 0.25693204396712427 -0.128125 0.2569320439671243
vt 0.6875 0.875
vt 0 0.875
vt 0 0.75
vt 0.6875 0.75
vt 0 0.875
vt 0.6875 0.875
vt 0.6875 0.75
vt 0 0.75
vt 0 0.75
vt 0.6875 0.75
vt 0.6875 0.625
vt 0 0.625
vn -0.7071067811865476 0 -0.7071067811865475
vn 0.7071067811865476 0 0.7071067811865475
vn 0 -1 0
usemtl m_0
f 12/16/4 15/15/4 13/14/4 10/13/4
f 16/20/5 11/19/5 9/18/5 14/17/5
f 15/24/6 12/23/6 11/22/6 16/21/6
o cube3
v 0.5883883476483185 0.12812500000000004 0.5883883476483185
v 0.41161165235168157 0.12812500000000004 0.41161165235168157
v 0.5883883476483185 -0.128125 0.5883883476483185
v 0.41161165235168157 -0.128125 0.41161165235168157
v -0.5584504630886131 0.12812500000000004 1.3816737677919766
v -0.38167376779197626 0.12812500000000004 1.5584504630886133
v -0.5584504630886131 -0.128125 1.3816737677919766
v -0.38167376779197626 -0.128125 1.5584504630886133
vt 0 0.875
vt 0.6875 0.875
vt 0.6875 0.75
vt 0 0.75
vt 0.6875 0.875
vt 0 0.875
vt 0 0.75
vt 0.6875 0.75
vt 0.6875 0.625
vt 0 0.625
vt 0 0.75
vt 0.6875 0.75
vn -0.7071067811865476 0 -0.7071067811865475
vn 0.7071067811865476 0 0.7071067811865475
vn 0 -1 0
usemtl m_0
f 20/28/7 23/27/7 21/26/7 18/25/7
f 24/32/8 19/31/8 17/30/8 22/29/8
f 23/36/9 20/35/9 19/34/9 24/33/9
o cube5
v 1.8899067667698075 0.12812500000000004 -0.05021746411078254
v 1.7131300714731708 0.12812500000000004 -0.2269941594074194
v 1.8899067667698075 -0.128125 -0.05021746411078254
v 1.7131300714731708 -0.128125 -0.2269941594074194
v 0.7430679560328757 0.12812500000000004 0.7430679560328757
v 0.9198446513295127 0.12812500000000004 0.9198446513295125
v 0.7430679560328757 -0.128125 0.7430679560328757
v 0.9198446513295127 -0.128125 0.9198446513295125
vt 0.6875 0.875
vt 0 0.875
vt 0 0.75
vt 0.6875 0.75
vt 0 0.875
vt 0.6875 0.875
vt 0.6875 0.75
vt 0 0.75
vt 0 0.75
vt 0.6875 0.75
vt 0.6875 0.625
vt 0 0.625
vn -0.7071067811865476 0 -0.7071067811865475
vn 0.7071067811865476 0 0.7071067811865475
vn 0 -1 0
usemtl m_0
f 28/40/10 31/39/10 29/38/10 26/37/10
f 32/44/11 27/43/11 25/42/11 30/41/11
f 31/48/12 28/47/12 27/46/12 32/45/12
o cube4
v 0.9198446513295127 0.12812500000000004 0.9198446513295125
v 0.7430679560328757 0.12812500000000004 0.7430679560328757
v 0.9198446513295127 -0.128125 0.9198446513295125
v 0.7430679560328757 -0.128125 0.7430679560328757
v -0.22699415940741896 0.12812500000000004 1.7131300714731705
v -0.050217464110782206 0.12812500000000004 1.8899067667698075
v -0.22699415940741896 -0.128125 1.7131300714731705
v -0.050217464110782206 -0.128125 1.8899067667698075
vt 0 0.875
vt 0.6875 0.875
vt 0.6875 0.75
vt 0 0.75
vt 0.6875 0.875
vt 0 0.875
vt 0 0.75
vt 0.6875 0.75
vt 0.6875 0.625
vt 0 0.625
vt 0 0.75
vt 0.6875 0.75
vn -0.7071067811865476 0 -0.7071067811865475
vn 0.7071067811865476 0 0.7071067811865475
vn 0 -1 0
usemtl m_0
f 36/52/13 39/51/13 37/50/13 34/49/13
f 40/56/14 35/55/14 33/54/14 38/53/14
f 39/60/15 36/59/15 35/58/15 40/57/15
o cube6
v 0.25693204396712427 0.12812500000000004 0.2569320439671243
v 0.0801553486704874 0.12812500000000004 0.08015534867048746
v 0.25693204396712427 -0.128125 0.2569320439671243
v 0.0801553486704874 -0.128125 0.08015534867048746
v -0.8899067667698073 0.12812500000000004 1.0502174641107824
v -0.7131300714731705 0.12812500000000004 1.2269941594074192
v -0.8899067667698073 -0.128125 1.0502174641107824
v -0.7131300714731705 -0.128125 1.2269941594074192
vt 0 0.875
vt 0.6875 0.875
vt 0.6875 0.75
vt 0 0.75
vt 0.6875 0.875
vt 0 0.875
vt 0 0.75
vt 0.6875 0.75
vt 0.6875 0.625
vt 0 0.625
vt 0 0.75
vt 0.6875 0.75
vn -0.7071067811865476 0 -0.7071067811865475
vn 0.7071067811865476 0 0.7071067811865475
vn 0 -1 0
usemtl m_0
f 44/64/16 47/63/16 45/62/16 42/61/16
f 48/68/17 43/67/17 41/66/17 46/65/17
f 47/72/18 44/71/18 43/70/18 48/69/18
o rail1
v 1.7838407495918251 0.06562500000000004 0.2326252483638368
v 0.7673747516361631 0.06562500000000004 -0.7838407495918251
v 1.7838407495918251 0.0625 0.2326252483638368
v 0.7673747516361631 0.0625 -0.7838407495918251
v 0.5817592215746946 0.06562500000000004 -0.5982252195303568
v 1.5982252195303568 0.06562500000000004 0.4182407784253054
v 0.5817592215746946 0.0625 -0.5982252195303568
v 1.5982252195303568 0.0625 0.4182407784253054
vt 0.71875 0.46875
vt 0.71875 0.34375
vt 0 0.34375
vt 0 0.46875
vt 0.71875 0.46875
vt 0.71875 0.34375
vt 0 0.34375
vt 0 0.46875
vn 0 1 0
vn 0 -1 0
usemtl m_0
f 54/76/19 49/75/19 50/74/19 53/73/19
f 55/80/20 52/79/20 51/78/20 56/77/20
o rail2
v 1.7794213322094095 0.34062499999999996 0.2370446657462525
v 0.7629553342537474 0.34062499999999996 -0.7794213322094095
v 1.7794213322094095 0.3375 0.2370446657462525
v 0.7629553342537474 0.3375 -0.7794213322094095
v 0.5861786389571104 0.34062499999999996 -0.6026446369127725
v 1.6026446369127725 0.34062499999999996 0.41382136104288947
v 0.5861786389571104 0.3375 -0.6026446369127725
v 1.6026446369127725 0.3375 0.41382136104288947
vt 0.71875 0.28125
vt 0.71875 0.15625
vt 0 0.15625
vt 0 0.28125
vt 0.71875 0.46875
vt 0.71875 0.34375
vt 0 0.34375
vt 0 0.46875
vn 0 1 0
vn 0 -1 0
usemtl m_0
f 62/84/21 57/83/21 58/82/21 61/81/21
f 63/88/22 60/87/22 59/86/22 64/85/22
o rail3
v 1.7595339539885377 0.34062499999999996 0.2569320439671242
v 0.7430679560328757 0.34062499999999996 -0.7595339539885377
v 1.7595339539885377 0.06562500000000004 0.2569320439671242
v 0.7430679560328757 0.06562500000000004 -0.7595339539885377
v 0.606066017177982 0.34062499999999996 -0.6225320151336442
v 1.6225320151336442 0.34062499999999996 0.39393398282201786
v 0.606066017177982 0.06562500000000004 -0.6225320151336442
v 1.6225320151336442 0.06562500000000004 0.39393398282201786
vt 0.6875 0.875
vt 0.78125 0.875
vt 0.78125 0.75
vt 0.6875 0.75
vt 0 0.625
vt 0.71875 0.625
vt 0.71875 0.5
vt 0 0.5
vt 0.6875 0.875
vt 0.78125 0.875
vt 0.78125 0.75
vt 0.6875 0.75
vt 0 0.625
vt 0.71875 0.625
vt 0.71875 0.5
vt 0 0.5
vn -0.7071067811865476 0 -0.7071067811865475
vn 0.7071067811865475 0 -0.7071067811865476
vn 0.7071067811865476 0 0.7071067811865475
vn -0.7071067811865475 0 0.7071067811865476
usemtl m_0
f 68/92/23 71/91/23 69/90/23 66/89/23
f 67/96/24 68/95/24 66/94/24 65/93/24
f 72/100/25 67/99/25 65/98/25 70/97/25
f 71/104/26 72/103/26 70/102/26 69/101/26
o rail4
v 0.4138213610428896 0.34062499999999996 1.6026446369127725
v -0.6026446369127725 0.34062499999999996 0.5861786389571105
v 0.4138213610428896 0.3375 1.6026446369127725
v -0.6026446369127725 0.3375 0.5861786389571105
v -0.7794213322094095 0.34062499999999996 0.7629553342537474
v 0.23704466574625271 0.34062499999999996 1.7794213322094095
v -0.7794213322094095 0.3375 0.7629553342537474
v 0.23704466574625271 0.3375 1.7794213322094095
vt 0.71875 0.15625
vt 0.71875 0.28125
vt 0 0.28125
vt 0 0.15625
vt 0.71875 0.34375
vt 0.71875 0.46875
vt 0 0.46875
vt 0 0.34375
vn 0 1 0
vn 0 -1 0
usemtl m_0
f 78/108/27 73/107/27 74/106/27 77/105/27
f 79/112/28 76/111/28 75/110/28 80/109/28
o rail5
v 0.39393398282201786 0.34062499999999996 1.6225320151336442
v -0.6225320151336442 0.34062499999999996 0.6060660171779821
v 0.39393398282201786 0.06562500000000004 1.6225320151336442
v -0.6225320151336442 0.06562500000000004 0.6060660171779821
v -0.7595339539885377 0.34062499999999996 0.7430679560328758
v 0.2569320439671243 0.34062499999999996 1.7595339539885377
v -0.7595339539885377 0.06562500000000004 0.7430679560328758
v 0.2569320439671243 0.06562500000000004 1.7595339539885377
vt 0.78125 0.875
vt 0.6875 0.875
vt 0.6875 0.75
vt 0.78125 0.75
vt 0.71875 0.625
vt 0 0.625
vt 0 0.5
vt 0.71875 0.5
vt 0.78125 0.875
vt 0.6875 0.875
vt 0.6875 0.75
vt 0.78125 0.75
vt 0.71875 0.625
vt 0 0.625
vt 0 0.5
vt 0.71875 0.5
vn -0.7071067811865476 0 -0.7071067811865475
vn 0.7071067811865475 0 -0.7071067811865476
vn 0.7071067811865476 0 0.7071067811865475
vn -0.7071067811865475 0 0.7071067811865476
usemtl m_0
f 84/116/29 87/115/29 85/114/29 82/113/29
f 83/120/30 84/119/30 82/118/30 81/117/30
f 88/124/31 83/123/31 81/122/31 86/121/31
f 87/128/32 88/127/32 86/126/32 85/125/32
o rail6
v 0.4182407784253055 0.06562500000000004 1.5982252195303568
v -0.5982252195303566 0.06562500000000004 0.5817592215746946
v 0.4182407784253055 0.0625 1.5982252195303568
v -0.5982252195303566 0.0625 0.5817592215746946
v -0.7838407495918251 0.06562500000000004 0.7673747516361634
v 0.2326252483638368 0.06562500000000004 1.7838407495918256
v -0.7838407495918251 0.0625 0.7673747516361634
v 0.2326252483638368 0.0625 1.7838407495918256
vt 0.71875 0.34375
vt 0.71875 0.46875
vt 0 0.46875
vt 0 0.34375
vt 0.71875 0.34375
vt 0.71875 0.46875
vt 0 0.46875
vt 0 0.34375
vn 0 1 0
vn 0 -1 0
usemtl m_0
f 94/132/33 89/131/33 90/130/33 93/129/33
f 95/136/34 92/135/34 91/134/34 96/133/34
o cube7
v 0.3453203916154427 0.12812500000000004 0.34532039161544276
v -0.00823299897783103 0.12812500000000004 -0.00823299897783103
v 0.3453203916154427 -0.128125 0.34532039161544276
v -0.00823299897783103 -0.128125 -0.00823299897783103
v -0.9782951144181258 0.12812500000000004 0.9618291164624639
v -0.624741723824852 0.12812500000000004 1.3153825070557377
v -0.9782951144181258 -0.128125 0.9618291164624639
v -0.624741723824852 -0.128125 1.3153825070557377
vt 0.6875 0.46875
vt 0.6875 0.71875
vt 0.8125 0.71875
vt 0.8125 0.46875
vt 0.6875 0.46875
vt 0 0.46875
vt 0 0.71875
vt 0.6875 0.71875
vn -0.7071067811865475 0 0.7071067811865476
vn 0 1 0
usemtl m_1
f 103/140/35 104/139/35 102/138/35 101/137/35
f 102/144/36 97/143/36 98/142/36 101/141/36
o cube8
v 0.6767766952966369 0.12812500000000004 0.6767766952966369
v 0.32322330470336313 0.12812500000000004 0.32322330470336313
v 0.6767766952966369 -0.128125 0.6767766952966369
v 0.32322330470336313 -0.128125 0.32322330470336313
v -0.6468388107369316 0.12812500000000004 1.293285420143658
v -0.2932854201436579 0.12812500000000004 1.6468388107369318
v -0.6468388107369316 -0.128125 1.293285420143658
v -0.2932854201436579 -0.128125 1.6468388107369318
vt 0.6875 0.46875
vt 0.6875 0.71875
vt 0.8125 0.71875
vt 0.8125 0.46875
vt 0.6875 0.46875
vt 0 0.46875
vt 0 0.71875
vt 0.6875 0.71875
vn -0.7071067811865475 0 0.7071067811865476
vn 0 1 0
usemtl m_1
f 111/148/37 112/147/37 110/146/37 109/145/37
f 110/152/38 105/151/38 106/150/38 109/149/38
o cube9
v 1.0082329989778311 0.12812500000000004 1.0082329989778311
v 0.6546796083845573 0.12812500000000004 0.6546796083845572
v 1.0082329989778311 -0.128125 1.0082329989778311
v 0.6546796083845573 -0.128125 0.6546796083845572
v -0.31538250705573745 0.12812500000000004 1.6247417238248523
v 0.03817088353753628 0.12812500000000004 1.978295114418126
v -0.31538250705573745 -0.128125 1.6247417238248523
v 0.03817088353753628 -0.128125 1.978295114418126
vt 0.6875 0.46875
vt 0.6875 0.71875
vt 0.8125 0.71875
vt 0.8125 0.46875
vt 0.6875 0.46875
vt 0 0.46875
vt 0 0.71875
vt 0.6875 0.71875
vn -0.7071067811865475 0 0.7071067811865476
vn 0 1 0
usemtl m_1
f 119/156/39 120/155/39 118/154/39 117/153/39
f 118/160/40 113/159/40 114/158/40 117/157/40
o cube12
v 1.978295114418126 0.12812500000000004 0.03817088353753595
v 1.6247417238248523 0.12812500000000004 -0.3153825070557379
v 1.978295114418126 -0.128125 0.03817088353753595
v 1.6247417238248523 -0.128125 -0.3153825070557379
v 0.6546796083845573 0.12812500000000004 0.6546796083845572
v 1.0082329989778311 0.12812500000000004 1.0082329989778311
v 0.6546796083845573 -0.128125 0.6546796083845572
v 1.0082329989778311 -0.128125 1.0082329989778311
vt 0.6875 0.46875
vt 0.6875 0.71875
vt 0.8125 0.71875
vt 0.8125 0.46875
vt 0 0.71875
vt 0.6875 0.71875
vt 0.6875 0.46875
vt 0 0.46875
vn 0.7071067811865475 0 -0.7071067811865476
vn 0 1 0
usemtl m_1
f 123/164/41 124/163/41 122/162/41 121/161/41
f 126/168/42 121/167/42 122/166/42 125/165/42
o cube11
v 1.6468388107369318 0.12812500000000004 -0.2932854201436582
v 1.293285420143658 0.12812500000000004 -0.6468388107369321
v 1.6468388107369318 -0.128125 -0.2932854201436582
v 1.293285420143658 -0.128125 -0.6468388107369321
v 0.32322330470336313 0.12812500000000004 0.32322330470336313
v 0.6767766952966369 0.12812500000000004 0.6767766952966369
v 0.32322330470336313 -0.128125 0.32322330470336313
v 0.6767766952966369 -0.128125 0.6767766952966369
vt 0.6875 0.46875
vt 0.6875 0.71875
vt 0.8125 0.71875
vt 0.8125 0.46875
vt 0 0.71875
vt 0.6875 0.71875
vt 0.6875 0.46875
vt 0 0.46875
vn 0.7071067811865475 0 -0.7071067811865476
vn 0 1 0
usemtl m_1
f 131/172/43 132/171/43 130/170/43 129/169/43
f 134/176/44 129/175/44 130/174/44 133/173/44
o cube10
v 1.3153825070557377 0.12812500000000004 -0.6247417238248523
v 0.9618291164624639 0.12812500000000004 -0.9782951144181262
v 1.3153825070557377 -0.128125 -0.6247417238248523
v 0.9618291164624639 -0.128125 -0.9782951144181262
v -0.00823299897783103 0.12812500000000004 -0.00823299897783103
v 0.3453203916154427 0.12812500000000004 0.34532039161544276
v -0.00823299897783103 -0.128125 -0.00823299897783103
v 0.3453203916154427 -0.128125 0.34532039161544276
vt 0.6875 0.46875
vt 0.6875 0.71875
vt 0.8125 0.71875
vt 0.8125 0.46875
vt 0 0.71875
vt 0.6875 0.71875
vt 0.6875 0.46875
vt 0 0.46875
vn 0.7071067811865475 0 -0.7071067811865476
vn 0 1 0
usemtl m_1
f 139/180/45 140/179/45 138/178/45 137/177/45
f 142/184/46 137/183/46 138/182/46 141/181/46