# Made in Blockbench 4.7.1
mtllib track.mtl

o mip1
v 0.5022361747214583 0.06561524278519393 0.609375
v 0.5022361747214583 0.06561524278519393 -0.109375
v 0.5 -0.190625 0.609375
v 0.5 -0.190625 -0.109375
v -0.8695865884822016 0.0775869586720257 -0.109375
v -0.8695865884822016 0.0775869586720257 0.609375
v -0.8718227632036599 -0.17865328411316828 -0.109375
v -0.8718227632036599 -0.17865328411316828 0.609375
vt 0.6875 0.421875
vt 0.6875 0.765625
vt 0.8125 0.765625
vt 0.8125 0.421875
vt 0.6875 0.421875
vt 0 0.421875
vt 0 0.765625
vt 0.6875 0.765625
vn -0.9999619230641713 0.008726535498373935 0
vn 0.008726535498373935 0.9999619230641713 0
usemtl m_1
f 7/4/1 8/3/1 6/2/1 5/1/1
f 6/8/2 1/7/2 2/6/2 5/5/2
o base1
v 0.5022361747214583 0.06561524278519393 0.375
v 0.5022361747214583 0.06561524278519393 0.125
v 0.5 -0.190625 0.375
v 0.5 -0.190625 0.125
v -0.8695865884822016 0.0775869586720257 0.125
v -0.8695865884822016 0.0775869586720257 0.375
v -0.8718227632036599 -0.17865328411316828 0.125
v -0.8718227632036599 -0.17865328411316828 0.375
vt 0 0.875
vt 0.6875 0.875
vt 0.6875 0.75
vt 0 0.75
vt 0.6875 0.875
vt 0 0.875
vt 0 0.75
vt 0.6875 0.75
vt 0.6875 0.625
vt 0 0.625
vt 0 0.75
vt 0.6875 0.75
vn 0 0 -1
vn 0 0 1
vn -0.008726535498373935 -0.9999619230641713 0
usemtl m_0
f 12/12/3 15/11/3 13/10/3 10/9/3
f 16/16/4 11/15/4 9/14/4 14/13/4
f 15/20/5 12/19/5 11/18/5 16/17/5
o base2
v 1.8695865884822016 0.0775869586720257 0.375
v 1.8695865884822016 0.0775869586720257 0.125
v 1.8718227632036601 -0.17865328411316828 0.375
v 1.8718227632036601 -0.17865328411316828 0.125
v 0.4977638252785417 0.06561524278519393 0.125
v 0.4977638252785417 0.06561524278519393 0.375
v 0.5 -0.190625 0.125
v 0.5 -0.190625 0.375
vt 0.6875 0.875
vt 0 0.875
vt 0 0.75
vt 0.6875 0.75
vt 0 0.875
vt 0.6875 0.875
vt 0.6875 0.75
vt 0 0.75
vt 0 0.75
vt 0.6875 0.75
vt 0.6875 0.625
vt 0 0.625
vn 0 0 -1
vn 0 0 1
vn 0.008726535498373935 -0.9999619230641713 0
usemtl m_0
f 20/24/6 23/23/6 21/22/6 18/21/6
f 24/28/7 19/27/7 17/26/7 22/25/7
f 23/32/8 20/31/8 19/30/8 24/29/8
o mip2
v 1.8695865884822016 0.0775869586720257 0.609375
v 1.8695865884822016 0.0775869586720257 -0.109375
v 1.8718227632036601 -0.17865328411316828 0.609375
v 1.8718227632036601 -0.17865328411316828 -0.109375
v 0.4977638252785417 0.06561524278519393 -0.109375
v 0.4977638252785417 0.06561524278519393 0.609375
v 0.5 -0.190625 -0.109375
v 0.5 -0.190625 0.609375
vt 0.6875 0.421875
vt 0.6875 0.765625
vt 0.8125 0.765625
vt 0.8125 0.421875
vt 0 0.765625
vt 0.6875 0.765625
vt 0.6875 0.421875
vt 0 0.421875
vn 0.9999619230641713 0.008726535498373935 0
vn -0.008726535498373935 0.9999619230641713 0
usemtl m_1
f 27/36/9 28/35/9 26/34/9 25/33/9
f 30/40/10 25/39/10 26/38/10 29/37/10