# Made in Blockbench 4.1.1
mtllib track.mtl

o cube1
v 1 0.34375 1.56875
v 1 0.34375 1.36875
v 1 0.09375 1.56875
v 1 0.09375 1.36875
v 0 0.34375 1.36875
v 0 0.34375 1.56875
v 0 0.09375 1.36875
v 0 0.09375 1.56875
vt 0 0.5390625
vt 0.125 0.5390625
vt 0.125 0.5078125
vt 0 0.5078125
vt 0.40625 0.5390625
vt 0.4296875 0.5390625
vt 0.4296875 0.5078125
vt 0.40625 0.5078125
vt 0 0.5390625
vt 0.125 0.5390625
vt 0.125 0.5078125
vt 0 0.5078125
vt 0.40625 0.5390625
vt 0.4296875 0.5390625
vt 0.4296875 0.5078125
vt 0.40625 0.5078125
vn 0 0 -1
vn 1 0 0
vn 0 0 1
vn -1 0 0
usemtl m_0
f 4/4/1 7/3/1 5/2/1 2/1/1
f 3/8/2 4/7/2 2/6/2 1/5/2
f 8/12/3 3/11/3 1/10/3 6/9/3
f 7/16/4 8/15/4 6/14/4 5/13/4
o cube2
v 1 0.34375 -0.36875
v 1 0.34375 -0.5687500000000001
v 1 0.09375 -0.36875
v 1 0.09375 -0.5687500000000001
v 0 0.34375 -0.5687500000000001
v 0 0.34375 -0.36875
v 0 0.09375 -0.5687500000000001
v 0 0.09375 -0.36875
vt 0 0.5390625
vt 0.125 0.5390625
vt 0.125 0.5078125
vt 0 0.5078125
vt 0.40625 0.5390625
vt 0.4296875 0.5390625
vt 0.4296875 0.5078125
vt 0.40625 0.5078125
vt 0 0.5390625
vt 0.125 0.5390625
vt 0.125 0.5078125
vt 0 0.5078125
vt 0.40625 0.5390625
vt 0.4296875 0.5390625
vt 0.4296875 0.5078125
vt 0.40625 0.5078125
vn 0 0 -1
vn 1 0 0
vn 0 0 1
vn -1 0 0
usemtl m_0
f 12/20/5 15/19/5 13/18/5 10/17/5
f 11/24/6 12/23/6 10/22/6 9/21/6
f 16/28/7 11/27/7 9/26/7 14/25/7
f 15/32/8 16/31/8 14/30/8 13/29/8
o cube3
v 0.375 0.12812500000000004 1.8718750000000002
v 0.375 0.12812500000000004 -0.8718750000000002
v 0.375 -0.128125 1.8718750000000002
v 0.375 -0.128125 -0.8718750000000002
v 0.125 0.12812500000000004 -0.8718750000000002
v 0.125 0.12812500000000004 1.8718750000000002
v 0.125 -0.128125 -0.8718750000000002
v 0.125 -0.128125 1.8718750000000002
vt 0.3046875 0.9609375
vt 0.3359375 0.9609375
vt 0.3359375 0.9296875
vt 0.3046875 0.9296875
vt 0 0.9609375
vt 0.296875 0.9609375
vt 0.296875 0.9296875
vt 0 0.9296875
vt 0.3046875 0.9609375
vt 0.3359375 0.9609375
vt 0.3359375 0.9296875
vt 0.3046875 0.9296875
vt 0 0.9609375
vt 0.296875 0.9609375
vt 0.296875 0.9296875
vt 0 0.9296875
vt 0 0.96875
vt 0 1
vt 0.296875 1
vt 0.296875 0.96875
vt 0.296875 0.921875
vt 0.296875 0.890625
vt 0 0.890625
vt 0 0.921875
vn 0 0 -1
vn 1 0 0
vn 0 0 1
vn -1 0 0
vn 0 1 0
vn 0 -1 0
usemtl m_0
f 20/36/9 23/35/9 21/34/9 18/33/9
f 19/40/10 20/39/10 18/38/10 17/37/10
f 24/44/11 19/43/11 17/42/11 22/41/11
f 23/48/12 24/47/12 22/46/12 21/45/12
f 22/52/13 17/51/13 18/50/13 21/49/13
f 23/56/14 20/55/14 19/54/14 24/53/14
o cube4
v 1 0.34375 1.625
v 1 0.34375 -0.625
v 1 0.34375 1.625
v 1 0.34375 -0.625
v 0 0.34375 -0.625
v 0 0.34375 1.625
v 0 0.34375 -0.625
v 0 0.34375 1.625
vt 0 1
vt 0 1
vt 0 1
vt 0 1
vt 0 1
vt 0 1
vt 0 1
vt 0 1
vt 0 1
vt 0 1
vt 0 1
vt 0 1
vt 0 1
vt 0 1
vt 0 1
vt 0 1
vt 0 0.7421875
vt 0 0.8671875
vt 0.234375 0.8671875
vt 0.234375 0.7421875
vt 0.234375 0.8671875
vt 0.234375 0.7421875
vt 0 0.7421875
vt 0 0.8671875
vn 0 0 -1
vn 1 0 0
vn 0 0 1
vn -1 0 0
vn 0 1 0
vn 0 -1 0
usemtl m_0
f 28/60/15 31/59/15 29/58/15 26/57/15
f 27/64/16 28/63/16 26/62/16 25/61/16
f 32/68/17 27/67/17 25/66/17 30/65/17
f 31/72/18 32/71/18 30/70/18 29/69/18
f 30/76/19 25/75/19 26/74/19 29/73/19
f 31/80/20 28/79/20 27/78/20 32/77/20
o cube5
v 1 0.09375 1.625
v 1 0.09375 -0.625
v 1 0.09375 1.625
v 1 0.09375 -0.625
v 0 0.09375 -0.625
v 0 0.09375 1.625
v 0 0.09375 -0.625
v 0 0.09375 1.625
vt 0 1
vt 0 1
vt 0 1
vt 0 1
vt 0 1
vt 0 1
vt 0 1
vt 0 1
vt 0 1
vt 0 1
vt 0 1
vt 0 1
vt 0 1
vt 0 1
vt 0 1
vt 0 1
vt 0 0.7421875
vt 0 0.8671875
vt 0.234375 0.8671875
vt 0.234375 0.7421875
vt 0.234375 0.8671875
vt 0.234375 0.7421875
vt 0 0.7421875
vt 0 0.8671875
vn 0 0 -1
vn 1 0 0
vn 0 0 1
vn -1 0 0
vn 0 1 0
vn 0 -1 0
usemtl m_0
f 36/84/21 39/83/21 37/82/21 34/81/21
f 35/88/22 36/87/22 34/86/22 33/85/22
f 40/92/23 35/91/23 33/90/23 38/89/23
f 39/96/24 40/95/24 38/94/24 37/93/24
f 38/100/25 33/99/25 34/98/25 37/97/25
f 39/104/26 36/103/26 35/102/26 40/101/26
o cube6
v 0.875 0.12812500000000004 1.8718750000000002
v 0.875 0.12812500000000004 -0.8718750000000002
v 0.875 -0.128125 1.8718750000000002
v 0.875 -0.128125 -0.8718750000000002
v 0.625 0.12812500000000004 -0.8718750000000002
v 0.625 0.12812500000000004 1.8718750000000002
v 0.625 -0.128125 -0.8718750000000002
v 0.625 -0.128125 1.8718750000000002
vt 0.3046875 0.9609375
vt 0.3359375 0.9609375
vt 0.3359375 0.9296875
vt 0.3046875 0.9296875
vt 0 0.9609375
vt 0.296875 0.9609375
vt 0.296875 0.9296875
vt 0 0.9296875
vt 0.3046875 0.9609375
vt 0.3359375 0.9609375
vt 0.3359375 0.9296875
vt 0.3046875 0.9296875
vt 0 0.9609375
vt 0.296875 0.9609375
vt 0.296875 0.9296875
vt 0 0.9296875
vt 0 0.96875
vt 0 1
vt 0.296875 1
vt 0.296875 0.96875
vt 0.296875 0.921875
vt 0.296875 0.890625
vt 0 0.890625
vt 0 0.921875
vn 0 0 -1
vn 1 0 0
vn 0 0 1
vn -1 0 0
vn 0 1 0
vn 0 -1 0
usemtl m_0
f 44/108/27 47/107/27 45/106/27 42/105/27
f 43/112/28 44/111/28 42/110/28 41/109/28
f 48/116/29 43/115/29 41/114/29 46/113/29
f 47/120/30 48/119/30 46/118/30 45/117/30
f 46/124/31 41/123/31 42/122/31 45/121/31
f 47/128/32 44/127/32 43/126/32 48/125/32