# Blender 4.2.0
# www.blender.org
mtllib crushing_wheel.mtl
o Cube.004
v 0.882683 0.120000 1.423879
v -0.207106 0.120000 -0.207107
v -0.353554 0.120000 0.853552
v 0.146446 0.120000 1.353553
v -0.207107 0.120000 1.207106
v 0.499999 0.120000 1.500000
v 1.353553 0.120000 0.853554
v 0.625000 0.000000 0.375000
v 0.375000 0.000000 0.375000
v 0.625000 0.000000 0.625000
v 0.375000 0.000000 0.625000
v 1.423879 0.880000 0.500000
v 1.423880 0.880000 0.117317
v 0.853554 0.880000 -0.353553
v 0.882684 0.880000 -0.423880
v 0.500000 0.880000 -0.500000
v -0.153281 0.880000 -0.153282
v -0.353554 0.880000 0.853552
v -0.500000 0.880000 0.499999
v -0.423880 0.880000 0.499999
v -0.423880 0.880000 0.882682
v 0.117317 0.880000 -0.423880
v -0.353553 0.880000 0.146446
v -0.423879 0.880000 0.117316
v 0.625000 1.000000 0.375000
v 0.375000 1.000000 0.375000
v 0.625000 1.000000 0.625000
v 0.375000 1.000000 0.625000
v 0.117316 0.120000 1.500000
v 0.529130 0.120000 1.570326
v 0.117316 0.120000 1.423879
v 0.499999 0.880000 1.423879
v 0.117316 0.880000 1.500000
v 0.499999 0.880000 1.500000
v 0.117316 0.880000 1.423879
v 0.853553 0.880000 1.353553
v 0.529130 0.880000 1.570326
v 0.882683 0.880000 1.423879
v 0.936508 0.120000 1.477705
v 1.277432 0.120000 1.236237
v 1.207106 0.120000 1.207107
v 1.423879 0.120000 0.882684
v 1.153281 0.880000 1.153282
v 0.936508 0.880000 1.477705
v 1.207106 0.880000 1.207107
v 1.353553 0.880000 0.853554
v 1.277432 0.880000 1.236237
v 1.423879 0.880000 0.882684
v 1.570326 0.120000 0.470871
v 1.500000 0.120000 0.882684
v 1.500000 0.120000 0.500001
v 1.353553 0.120000 0.146447
v 1.423879 0.120000 0.117317
v 1.500000 0.880000 0.882684
v 1.500000 0.880000 0.500001
v 1.570326 0.880000 0.470871
v 1.477705 0.120000 0.063492
v 1.207107 0.120000 -0.207106
v 0.853554 0.120000 -0.353553
v 1.236237 0.120000 -0.277432
v 0.882684 0.120000 -0.423879
v 1.236237 0.880000 -0.277432
v 1.153282 0.880000 -0.153281
v 1.477705 0.880000 0.063492
v 0.500001 0.120000 -0.423879
v 0.882684 0.120000 -0.500000
v 0.500001 0.120000 -0.500000
v 0.146447 0.120000 -0.353553
v 0.470870 0.120000 -0.570326
v 0.117317 0.120000 -0.423879
v 0.882684 0.880000 -0.500000
v 0.470870 0.880000 -0.570326
v -0.153281 0.120000 -0.153282
v 0.063492 0.120000 -0.477705
v -0.353553 0.120000 0.146446
v -0.277433 0.120000 -0.236237
v 0.063492 0.880000 -0.477705
v -0.277433 0.880000 -0.236237
v -0.423879 0.120000 0.500000
v -0.500000 0.120000 0.117317
v -0.423879 0.120000 0.117316
v -0.570326 0.120000 0.529130
v -0.500000 0.880000 0.117316
v -0.570326 0.880000 0.529130
v -0.477705 0.120000 0.936509
v -0.236236 0.120000 1.277433
v -0.153281 0.880000 1.153281
v -0.477705 0.880000 0.936509
v -0.207106 0.880000 1.207107
v 0.146447 0.880000 1.353553
v -0.236236 0.880000 1.277433
v 0.853553 0.120000 1.353553
v 0.500000 0.120000 0.500000
v 0.500000 0.120000 1.423879
v 1.423879 0.120000 0.500000
v 1.153281 0.120000 -0.153281
v -0.500000 0.120000 0.499999
v -0.423880 0.120000 0.882682
v -0.153282 0.120000 1.153281
v 1.153281 0.120000 1.153281
v -0.030330 0.120000 -0.030331
v -0.250000 0.120000 0.810659
v 1.250000 0.120000 0.500000
v 0.500000 0.120000 -0.250000
v -0.030331 0.120000 1.030330
v 0.810661 0.120000 -0.250000
v 1.030330 0.120000 1.030330
v -0.250000 0.120000 0.189339
v 1.250000 0.120000 0.810660
v 0.189339 0.120000 1.250000
v 1.030330 0.120000 -0.030330
v 0.810660 0.120000 1.250000
v 1.250000 0.120000 0.189340
v 0.189340 0.120000 -0.250000
v -0.250000 0.120000 0.500000
v 0.500000 0.120000 1.250000
v 0.500000 0.880000 0.500000
v -0.207106 0.880000 -0.207107
v 0.146447 0.880000 -0.353554
v 1.353553 0.880000 0.146447
v 1.207107 0.880000 -0.207106
v 0.500000 0.880000 -0.423879
v 1.250000 0.880000 0.500000
v 1.030330 0.880000 1.030330
v -0.250000 0.880000 0.189339
v 1.030330 0.880000 -0.030330
v 0.810660 0.880000 1.250000
v 1.250000 0.880000 0.189340
v 0.189340 0.880000 -0.250000
v 0.500000 0.880000 1.250000
v 0.750000 0.937500 0.750000
v 0.250000 0.937500 0.750000
v 0.250000 0.062500 0.750000
v 0.750000 0.062500 0.750000
v 0.750000 0.937500 0.250000
v 0.750000 0.062500 0.250000
v 0.250000 0.937500 0.250000
v 0.250000 0.062500 0.250000
v 1.062500 0.120000 0.732995
v 0.897747 0.120000 0.897748
v 0.897748 0.120000 0.102252
v 0.732995 0.120000 1.062500
v 0.267005 0.120000 -0.062500
v 0.500000 0.120000 1.062500
v 1.062500 0.120000 0.267005
v 0.102252 0.120000 0.102252
v -0.062500 0.120000 0.500000
v -0.062500 0.120000 0.732995
v 1.062500 0.120000 0.500000
v 0.102252 0.120000 0.897747
v -0.062500 0.120000 0.267004
v 0.500000 0.120000 -0.062500
v 0.267004 0.120000 1.062500
v 0.732996 0.120000 -0.062500
v 1.250000 0.880000 0.810659
v -0.250000 0.880000 0.500000
v 0.500000 0.880000 -0.250000
v -0.030330 0.880000 1.030330
v -0.250000 0.880000 0.810660
v -0.030330 0.880000 -0.030330
v 0.189340 0.880000 1.250000
v 0.810660 0.880000 -0.250000
v -0.062500 0.880000 0.732995
v 0.102253 0.880000 0.897748
v 0.102252 0.880000 0.102252
v 0.267005 0.880000 1.062500
v 0.732995 0.880000 -0.062500
v 0.500000 0.880000 1.062500
v -0.062500 0.880000 0.267005
v 0.897748 0.880000 0.102252
v 1.062500 0.880000 0.500000
v 1.062500 0.880000 0.732995
v -0.062500 0.880000 0.500000
v 0.897748 0.880000 0.897747
v 1.062500 0.880000 0.267004
v 0.500000 0.880000 -0.062500
v 0.732996 0.880000 1.062499
v 0.267004 0.880000 -0.062500
v -0.423879 0.119000 0.117316
v -0.423879 0.119000 0.500000
v -0.500000 0.119000 0.117317
v 0.117316 0.119000 1.500000
v 0.499999 0.119000 1.500000
v 0.882683 0.119000 1.423879
v 0.936508 0.119000 1.477705
v -0.477705 0.119000 0.936509
v -0.207107 0.119000 1.207106
v -0.423880 0.119000 0.882682
v -0.153282 0.119000 1.153281
v 1.423879 0.119000 0.882684
v 1.423879 0.119000 0.500000
v 1.423879 0.119000 0.117317
v 1.153281 0.119000 -0.153281
v 0.500000 0.119000 1.423879
v 1.500000 0.119000 0.500001
v 0.117317 0.119000 -0.423879
v -0.153281 0.119000 -0.153282
v -0.207106 0.119000 -0.207107
v 0.117316 0.119000 1.423879
v 1.153281 0.119000 1.153281
v 1.207106 0.119000 1.207107
v 1.500000 0.119000 0.882684
v 1.477705 0.119000 0.063492
v 1.207107 0.119000 -0.207106
v 0.882684 0.119000 -0.423879
v 0.500001 0.119000 -0.423879
v 0.882684 0.119000 -0.500000
v 0.500001 0.119000 -0.500000
v 0.063492 0.119000 -0.477705
v -0.500000 0.119000 0.499999
v 0.117317 0.881000 -0.423880
v -0.153281 0.881000 -0.153282
v -0.423879 0.881000 0.117316
v -0.423880 0.881000 0.499999
v -0.500000 0.881000 0.499999
v 0.117316 0.881000 1.423879
v 0.499999 0.881000 1.423879
v 0.117316 0.881000 1.500000
v 0.499999 0.881000 1.500000
v 1.500000 0.881000 0.882684
v 1.500000 0.881000 0.500001
v -0.207106 0.881000 -0.207107
v 0.882684 0.881000 -0.423880
v 0.500000 0.881000 -0.423879
v 0.500000 0.881000 -0.500000
v 1.423879 0.881000 0.882684
v 1.423879 0.881000 0.500000
v -0.423880 0.881000 0.882682
v -0.153281 0.881000 1.153281
v -0.207106 0.881000 1.207107
v 0.882683 0.881000 1.423879
v 1.153281 0.881000 1.153282
v 0.936508 0.881000 1.477705
v 1.207106 0.881000 1.207107
v 1.423880 0.881000 0.117317
v 1.153282 0.881000 -0.153281
v 1.477705 0.881000 0.063492
v 1.207107 0.881000 -0.207106
v 0.882684 0.881000 -0.500000
v 0.063492 0.881000 -0.477705
v -0.500000 0.881000 0.117316
v -0.477705 0.881000 0.936509
vn -0.0000 -1.0000 -0.0000
vn -0.0000 -0.0000 1.0000
vn 1.0000 -0.0000 -0.0000
vn -0.0000 -0.0000 -1.0000
vn -0.0000 1.0000 -0.0000
vn -1.0000 -0.0000 -0.0000
vn -0.7071 -0.0000 0.7071
vn -0.7071 -0.0000 -0.7071
vn -0.9239 -0.0000 0.3827
vn 0.3827 -0.0000 0.9239
vn -0.7071 0.0001 0.7071
vn -0.3827 -0.0000 0.9239
vn 0.9239 -0.0000 0.3827
vn 0.7071 -0.0000 0.7071
vn 0.9239 -0.0000 -0.3827
vn 0.3827 -0.0000 -0.9239
vn 0.7071 -0.0000 -0.7071
vn -0.3827 -0.0000 -0.9239
vn 0.7071 0.0001 0.7071
vn -0.9239 -0.0000 -0.3827
vn -0.0000 -0.0002 1.0000
vn -0.7071 -0.0001 0.7071
vn 0.7071 -0.0001 -0.7071
vn -0.0000 -0.0001 -1.0000
vn -0.7071 -0.0001 -0.7071
vt 0.375000 0.375000
vt 0.625000 0.375000
vt 0.625000 0.625000
vt 0.375000 0.625000
vt 0.375000 0.000000
vt 0.375000 1.000000
vt 0.625000 1.000000
vt 0.625000 0.000000
vt 1.000000 0.125000
vt 1.000000 0.875000
vt 0.937500 0.875000
vt 0.937500 0.125000
vt 0.961940 0.308659
vt 0.826641 0.173360
vt 0.000000 0.000000
vt 0.437500 0.000000
vt 0.437500 0.062500
vt 0.000000 0.062500
vt 0.000000 0.937500
vt 0.000000 1.000000
vt 0.437500 1.000000
vt 0.437500 0.937500
vt 0.000000 0.125000
vt 0.437500 0.125000
vt 0.437500 0.875000
vt 0.000000 0.875000
vt 0.038060 0.308658
vt 0.038060 0.500000
vt 0.500000 0.000000
vt 0.500000 0.038061
vt 0.961940 0.691342
vt 0.961940 0.500000
vt 0.500000 0.000000
vt 0.691342 0.038061
vt 0.073223 0.676776
vt 0.173359 0.826640
vt 0.038060 0.691342
vt 0.676776 0.926777
vt 0.500000 0.961940
vt 0.500000 0.875000
vt 0.655330 0.875000
vt 0.500000 1.000000
vt 0.073223 0.323223
vt 0.926777 0.676777
vt 0.826640 0.826641
vt 0.765165 0.765165
vt 0.875000 0.655330
vt 0.853553 0.853554
vt 0.323224 0.073223
vt 0.173359 0.173359
vt 0.308658 0.038060
vt 0.926777 0.323224
vt 0.875000 0.500000
vt 0.875000 0.344670
vt 1.000000 0.500000
vt 0.676777 0.073224
vt 0.691342 0.038061
vt 0.765165 0.234835
vt 0.655330 0.125000
vt 0.853554 0.146447
vt 0.500000 0.125000
vt 0.344670 0.125000
vt 0.234835 0.234835
vt 0.125000 0.344670
vt 0.146447 0.146447
vt 0.691341 0.961940
vt 0.125000 0.500000
vt 0.125000 0.655330
vt 0.000000 0.500000
vt 0.323223 0.926777
vt 0.308658 0.961939
vt 0.234835 0.765165
vt 0.344669 0.875000
vt 0.146446 0.853553
vt 0.500000 0.500000
vt 0.301126 0.698874
vt 0.218750 0.616497
vt 0.698874 0.698874
vt 0.616497 0.781250
vt 0.500000 0.218750
vt 0.616498 0.218750
vt 0.218750 0.500000
vt 0.218750 0.383502
vt 0.655330 0.875000
vt 0.500000 0.875000
vt 0.500000 0.781250
vt 0.616498 0.781250
vt 0.655330 0.875000
vt 0.500000 0.875000
vt 0.500000 0.781250
vt 0.616497 0.781250
vt 0.500000 0.875000
vt 0.344669 0.875000
vt 0.383502 0.781250
vt 0.500000 0.781250
vt 0.344670 0.875000
vt 0.383502 0.781250
vt 0.500000 0.781250
vt 0.655330 0.875000
vt 0.500000 0.875000
vt 0.500000 0.781250
vt 0.616497 0.781250
vt 0.655330 0.875000
vt 0.500000 0.781250
vt 0.616498 0.781250
vt 0.655330 0.875000
vt 0.500000 0.875000
vt 0.500000 0.781250
vt 0.616497 0.781250
vt 0.383502 0.781250
vt 0.344670 0.875000
vt 0.383502 0.781250
vt 0.655330 0.875000
vt 0.500000 0.875000
vt 0.500000 0.781250
vt 0.616497 0.781250
vt 0.655330 0.875000
vt 0.616497 0.781250
vt 0.073223 0.676776
vt 0.038060 0.691341
vt 0.500000 1.000000
vt 0.038060 0.500000
vt 0.323224 0.073223
vt 0.308658 0.038060
vt 0.173359 0.173359
vt 0.961940 0.500000
vt 0.676777 0.073224
vt 0.655330 0.125000
vt 0.826641 0.173359
vt 0.961940 0.308658
vt 0.146447 0.146446
vt 0.125000 0.500000
vt 0.000000 0.500000
vt 0.323223 0.926776
vt 0.250000 0.062500
vt 0.750000 0.062500
vt 0.750000 0.937500
vt 0.250000 0.937500
vt 0.250000 0.250000
vt 0.750000 0.250000
vt 0.750000 0.750000
vt 0.250000 0.750000
vt 0.383502 0.218750
vt 0.781250 0.616498
vt 0.383502 0.781250
vt 0.344670 0.875000
vt 0.383502 0.781250
vt 0.344670 0.875000
vt 0.301126 0.301126
vt 0.781250 0.383503
vt 0.781250 0.500000
vt 0.698874 0.301126
vt 0.383502 0.781250
vt 0.344670 0.875000
vt 0.383502 0.781250
vt 0.344670 0.875000
s 0
usemtl crushing_wheel_insert
f 53/13/7 96/14/7 193/14/7 192/13/7
f 81/27/3 79/28/3 180/28/3 179/27/3
f 16/29/6 122/30/6 224/30/6 225/29/6
f 42/31/6 95/32/6 191/32/6 190/31/6
f 65/30/6 67/33/6 208/33/6 206/30/6
f 122/30/2 15/34/2 223/34/2 224/30/2
f 3/35/1 99/36/1 98/37/1
f 92/38/1 94/39/1 116/40/1 112/41/1
f 94/39/1 92/38/1 6/42/1
f 75/43/1 79/28/1 81/27/1
f 7/44/1 100/45/1 107/46/1 109/47/1
f 100/45/1 7/44/1 41/48/1
f 68/49/1 73/50/1 70/51/1
f 52/52/1 95/32/1 103/53/1 113/54/1
f 95/32/1 52/52/1 51/55/1
f 59/56/1 65/30/1 61/57/1
f 59/56/1 96/14/1 111/58/1 106/59/1
f 96/14/1 59/56/1 58/60/1
f 52/52/1 96/14/1 53/13/1
f 68/49/1 65/30/1 104/61/1 114/62/1
f 65/30/1 68/49/1 67/33/1
f 7/44/1 95/32/1 42/31/1
f 75/43/1 73/50/1 101/63/1 108/64/1
f 73/50/1 75/43/1 2/65/1
f 92/38/1 100/45/1 1/66/1
f 3/35/1 79/28/1 115/67/1 102/68/1
f 79/28/1 3/35/1 97/69/1
f 4/70/1 94/39/1 31/71/1
f 4/70/1 99/36/1 105/72/1 110/73/1
f 99/36/1 4/70/1 5/74/1
f 93/75/1 150/76/1 148/77/1
f 94/39/1 4/70/1 110/73/1 116/40/1
f 93/75/1 140/78/1 142/79/1
f 95/32/1 7/44/1 109/47/1 103/53/1
f 96/14/1 52/52/1 113/54/1 111/58/1
f 93/75/1 152/80/1 154/81/1
f 73/50/1 68/49/1 114/62/1 101/63/1
f 93/75/1 147/82/1 151/83/1
f 108/84/1 101/85/1 146/86/1 151/87/1
f 110/88/1 105/89/1 150/90/1 153/91/1
f 102/68/1 105/72/1 99/36/1 3/35/1
f 112/41/1 107/46/1 100/45/1 92/38/1
f 111/92/1 113/93/1 145/94/1 141/95/1
f 101/85/1 114/96/1 143/97/1 146/86/1
f 112/41/1 116/40/1 144/98/1 142/79/1
f 113/99/1 103/100/1 149/101/1 145/102/1
f 114/103/1 104/85/1 152/104/1 143/105/1
f 102/106/1 115/107/1 147/108/1 148/109/1
f 116/40/1 110/73/1 153/110/1 144/98/1
f 103/100/1 109/111/1 139/112/1 149/101/1
f 106/59/1 104/61/1 65/30/1 59/56/1
f 108/64/1 115/67/1 79/28/1 75/43/1
f 109/113/1 107/114/1 140/115/1 139/116/1
f 106/117/1 111/92/1 141/95/1 154/118/1
f 18/119/5 21/120/5 87/36/5
f 36/38/5 127/41/5 130/40/5 32/39/5
f 32/39/5 34/121/5 36/38/5
f 23/43/5 24/27/5 20/122/5
f 46/44/5 155/47/5 124/46/5 43/45/5
f 43/45/5 45/48/5 46/44/5
f 119/123/5 22/124/5 17/125/5
f 120/52/5 128/54/5 123/53/5 12/126/5
f 12/126/5 55/55/5 120/52/5
f 14/127/5 15/34/5 122/30/5
f 14/127/5 162/128/5 126/58/5 63/129/5
f 63/129/5 121/60/5 14/127/5
f 120/52/5 13/130/5 63/129/5
f 119/123/5 129/62/5 157/61/5 122/30/5
f 122/30/5 16/29/5 119/123/5
f 46/44/5 48/31/5 12/126/5
f 23/43/5 125/64/5 160/63/5 17/125/5
f 17/125/5 118/131/5 23/43/5
f 36/38/5 38/66/5 43/45/5
f 18/119/5 159/68/5 156/132/5 20/122/5
f 20/122/5 19/133/5 18/119/5
f 90/134/5 35/71/5 32/39/5
f 90/134/5 161/73/5 158/72/5 87/36/5
f 87/36/5 89/74/5 90/134/5
f 127/88/5 124/89/5 174/90/5 177/91/5
f 32/39/5 130/40/5 161/73/5 90/134/5
f 159/113/5 158/114/5 164/115/5 163/116/5
f 12/126/5 123/53/5 155/47/5 46/44/5
f 63/129/5 126/58/5 128/54/5 120/52/5
f 117/75/5 174/76/5 172/77/5
f 17/125/5 160/63/5 129/62/5 119/123/5
f 117/75/5 164/78/5 166/79/5
f 126/85/5 162/96/5 167/97/5 170/86/5
f 128/84/5 126/85/5 170/86/5 175/87/5
f 159/68/5 18/119/5 87/36/5 158/72/5
f 127/41/5 36/38/5 43/45/5 124/46/5
f 125/99/5 156/100/5 173/101/5 169/102/5
f 161/41/5 130/40/5 168/98/5 166/79/5
f 129/117/5 160/92/5 165/95/5 178/118/5
f 155/106/5 123/107/5 171/108/5 172/109/5
f 117/75/5 176/80/5 178/81/5
f 160/92/5 125/93/5 169/94/5 165/95/5
f 156/100/5 159/111/5 163/112/5 173/101/5
f 130/40/5 127/73/5 177/110/5 168/98/5
f 162/128/5 14/127/5 122/30/5 157/61/5
f 125/64/5 23/43/5 20/122/5 156/132/5
f 117/75/5 171/82/5 175/83/5
f 162/103/5 157/85/5 176/104/5 167/105/5
f 142/79/1 144/98/1 93/75/1
f 143/143/1 152/80/1 93/75/1
f 144/98/1 153/110/1 93/75/1
f 139/144/1 140/78/1 93/75/1
f 154/145/1 152/104/1 104/85/1 106/146/1
f 151/147/1 147/108/1 115/107/1 108/148/1
f 153/110/1 150/76/1 93/75/1
f 146/149/1 143/143/1 93/75/1
f 145/150/1 149/151/1 93/75/1
f 148/77/1 147/82/1 93/75/1
f 149/151/1 139/144/1 93/75/1
f 154/81/1 141/152/1 93/75/1
f 148/153/1 150/90/1 105/89/1 102/154/1
f 142/155/1 140/115/1 107/114/1 112/156/1
f 151/83/1 146/149/1 93/75/1
f 141/152/1 145/150/1 93/75/1
f 166/79/5 168/98/5 117/75/5
f 167/143/5 176/80/5 117/75/5
f 168/98/5 177/110/5 117/75/5
f 163/144/5 164/78/5 117/75/5
f 178/145/5 176/104/5 157/85/5 129/146/5
f 175/147/5 171/108/5 123/107/5 128/148/5
f 177/110/5 174/76/5 117/75/5
f 170/149/5 167/143/5 117/75/5
f 169/150/5 173/151/5 117/75/5
f 172/77/5 171/82/5 117/75/5
f 173/151/5 163/144/5 117/75/5
f 178/81/5 165/152/5 117/75/5
f 172/153/5 174/90/5 124/89/5 155/154/5
f 166/155/5 164/115/5 158/114/5 161/156/5
f 175/83/5 170/149/5 117/75/5
f 165/152/5 169/150/5 117/75/5
f 79/28/2 97/69/2 210/69/2 180/28/2
f 94/39/3 6/42/3 183/42/3 194/39/3
f 31/71/4 94/39/4 194/39/4 199/71/4
f 96/14/8 58/60/8 204/60/8 193/14/8
f 95/32/4 51/55/4 195/55/4 191/32/4
f 98/37/17 99/36/17 189/36/17 188/37/17
f 1/66/8 100/45/8 200/45/8 184/66/8
f 70/51/14 73/50/14 197/50/14 196/51/14
f 61/57/2 65/30/2 206/30/2 205/57/2
f 73/50/7 2/65/7 198/65/7 197/50/7
f 100/45/17 41/48/17 201/48/17 200/45/17
f 99/36/14 5/74/14 187/74/14 189/36/14
f 45/48/23 43/45/23 232/45/23 234/48/23
f 12/126/6 48/31/6 226/31/6 227/126/6
f 87/36/17 21/120/17 228/120/17 229/36/17
f 118/131/7 17/125/7 212/125/7 222/131/7
f 55/55/24 12/126/24 227/126/24 221/55/24
f 89/74/14 87/36/14 229/36/14 230/74/14
f 63/129/7 13/130/7 235/130/7 236/129/7
f 17/125/14 22/124/14 211/124/14 212/125/14
f 32/39/4 35/71/4 216/71/4 217/39/4
f 20/122/3 24/27/3 213/27/3 214/122/3
f 19/133/2 20/122/2 214/122/2 215/133/2
f 121/60/8 63/129/8 236/129/8 238/60/8
f 43/45/25 38/66/25 231/66/25 232/45/25
f 34/121/3 32/39/3 217/39/3 219/121/3
usemtl m_axis
f 28/5/2 11/6/2 10/7/2 27/8/2
f 27/5/3 10/6/3 8/7/3 25/8/3
f 25/5/4 8/6/4 9/7/4 26/8/4
f 26/5/6 9/6/6 11/7/6 28/8/6
usemtl m_axis_top
f 9/1/1 8/2/1 10/3/1 11/4/1
f 26/1/5 28/4/5 27/3/5 25/2/5
usemtl crushing_wheel_plates
f 29/9/6 33/10/6 35/11/6 31/12/6
f 6/15/1 92/16/1 1/17/1 30/18/1
f 21/11/8 88/10/8 242/10/8 228/11/8
f 34/19/5 37/20/5 38/21/5 36/22/5
f 30/9/9 37/10/9 34/11/9 6/12/9
f 30/23/10 1/24/10 38/25/10 37/26/10
f 6/24/2 34/25/2 33/26/2 29/23/2
f 39/9/7 44/10/7 38/11/7 1/12/7
f 41/15/1 7/16/1 42/17/1 40/18/1
f 38/11/11 44/10/11 233/10/11 231/11/11
f 45/19/5 47/20/5 48/21/5 46/22/5
f 40/9/12 47/10/12 45/11/12 41/12/12
f 40/23/13 42/24/13 48/25/13 47/26/13
f 41/24/14 45/25/14 44/26/14 39/23/14
f 50/9/2 54/10/2 48/11/2 42/12/2
f 50/9/2 42/12/2 190/12/2 202/9/2
f 51/15/1 52/16/1 53/17/1 49/18/1
f 55/19/5 56/20/5 13/21/5 120/22/5
f 49/9/10 56/10/10 55/11/10 51/12/10
f 49/23/15 53/24/15 13/25/15 56/26/15
f 51/24/3 55/25/3 54/26/3 50/23/3
f 57/9/14 64/10/14 13/11/14 53/12/14
f 51/24/3 50/23/3 202/23/3 195/24/3
f 58/15/1 59/16/1 61/17/1 60/18/1
f 15/11/3 71/10/3 239/10/3 223/11/3
f 121/19/5 62/20/5 15/21/5 14/22/5
f 60/9/13 62/10/13 121/11/13 58/12/13
f 60/23/16 61/24/16 15/25/16 62/26/16
f 58/24/17 121/25/17 64/26/17 57/23/17
f 66/9/3 71/10/3 15/11/3 61/12/3
f 67/15/1 68/16/1 70/17/1 69/18/1
f 88/26/7 89/25/7 230/25/7 242/26/7
f 16/19/5 72/20/5 22/21/5 119/22/5
f 69/9/15 72/10/15 16/11/15 67/12/15
f 69/23/18 70/24/18 22/25/18 72/26/18
f 67/24/4 16/25/4 71/26/4 66/23/4
f 74/9/17 77/10/17 22/11/17 70/12/17
f 74/9/17 70/12/17 196/12/17 209/9/17
f 2/15/1 75/16/1 81/17/1 76/18/1
f 44/26/19 45/25/19 234/25/19 233/26/19
f 118/19/5 78/20/5 24/21/5 23/22/5
f 76/9/16 78/10/16 118/11/16 2/12/16
f 76/23/20 81/24/20 24/25/20 78/26/20
f 2/24/8 118/25/8 77/26/8 74/23/8
f 80/9/4 83/10/4 24/11/4 81/12/4
f 2/24/8 74/23/8 209/23/8 198/24/8
f 97/15/1 3/16/1 98/17/1 82/18/1
f 71/26/4 16/25/4 225/25/4 239/26/4
f 19/19/5 84/20/5 21/21/5 18/22/5
f 82/9/18 84/10/18 19/11/18 97/12/18
f 82/23/9 98/24/9 21/25/9 84/26/9
f 97/24/6 19/25/6 83/26/6 80/23/6
f 85/9/8 88/10/8 21/11/8 98/12/8
f 5/15/1 4/16/1 31/17/1 86/18/1
f 89/19/5 91/20/5 35/21/5 90/22/5
f 86/9/20 91/10/20 89/11/20 5/12/20
f 86/23/12 31/24/12 35/25/12 91/26/12
f 5/24/7 89/25/7 88/26/7 85/23/7
f 199/15/1 194/16/1 183/17/1 182/18/1
f 184/15/1 200/16/1 201/17/1 185/18/1
f 190/15/1 191/16/1 195/17/1 202/18/1
f 192/15/1 193/16/1 204/17/1 203/18/1
f 205/15/1 206/16/1 208/17/1 207/18/1
f 196/15/1 197/16/1 198/17/1 209/18/1
f 179/15/1 180/16/1 210/17/1 181/18/1
f 188/15/1 189/16/1 187/17/1 186/18/1
f 80/9/4 81/12/4 179/12/4 181/9/4
f 97/24/6 80/23/6 181/23/6 210/24/6
f 58/24/17 57/23/17 203/23/17 204/24/17
f 57/9/14 53/12/14 192/12/14 203/9/14
f 6/24/21 29/23/21 182/23/21 183/24/21
f 29/9/6 31/12/6 199/12/6 182/9/6
f 85/9/8 98/12/8 188/12/8 186/9/8
f 41/24/14 39/23/14 185/23/14 201/24/14
f 39/9/7 1/12/7 184/12/7 185/9/7
f 67/24/4 66/23/4 207/23/4 208/24/4
f 66/9/3 61/12/3 205/12/3 207/9/3
f 5/24/22 85/23/22 186/23/22 187/24/22
f 216/19/5 218/20/5 219/21/5 217/22/5
f 231/19/5 233/20/5 234/21/5 232/22/5
f 226/19/5 220/20/5 221/21/5 227/22/5
f 235/19/5 237/20/5 238/21/5 236/22/5
f 223/19/5 239/20/5 225/21/5 224/22/5
f 211/19/5 240/20/5 222/21/5 212/22/5
f 213/19/5 241/20/5 215/21/5 214/22/5
f 228/19/5 242/20/5 230/21/5 229/22/5
f 77/26/8 118/25/8 222/25/8 240/26/8
f 48/11/2 54/10/2 220/10/2 226/11/2
f 22/11/17 77/10/17 240/10/17 211/11/17
f 83/26/6 19/25/6 215/25/6 241/26/6
f 54/26/3 55/25/3 221/25/3 220/26/3
f 24/11/4 83/10/4 241/10/4 213/11/4
f 64/26/17 121/25/17 238/25/17 237/26/17
f 33/26/2 34/25/2 219/25/2 218/26/2
f 13/11/14 64/10/14 237/10/14 235/11/14
f 35/11/6 33/10/6 218/10/6 216/11/6
usemtl m_spruce_log_top
f 131/135/2 132/136/2 133/137/2 134/138/2
f 135/135/3 131/136/3 134/137/3 136/138/3
f 137/135/4 135/136/4 136/137/4 138/138/4
f 132/135/6 137/136/6 138/137/6 133/138/6
f 138/139/1 136/140/1 134/141/1 133/142/1
f 132/139/5 131/140/5 135/141/5 137/142/5
