# Blender 3.5.1
# www.blender.org
mtllib item.mtl
o Chute
v 0.125000 -0.000000 0.458947
v 0.125000 -0.353554 0.812500
v 0.125000 0.353553 0.812500
v 0.125000 -0.000000 1.166054
v 1.125000 -0.000000 1.166054
v 1.125000 0.353553 0.812500
v 1.125000 -0.353554 0.812500
v 1.125000 -0.000000 0.458947
v 0.875000 -0.353554 0.812500
v -0.125000 0.353553 0.812500
v -0.125000 -0.000000 1.166054
v 0.875000 -0.000000 0.458947
v -0.125000 -0.000000 0.458947
v 0.875000 -0.000000 1.166054
v 0.875000 0.353553 0.812500
v -0.125000 -0.353554 0.812500
v 0.875000 0.750000 1.123160
v 0.875000 -0.000000 0.812500
v 0.125000 0.310660 1.562500
v 0.875000 0.310660 1.562500
v 0.125000 -0.310660 1.562500
v 0.125000 -0.750000 1.123160
v 0.875000 -0.750000 1.123160
v 0.875000 -0.310660 0.062500
v 0.125000 -0.000000 0.812500
v 0.875000 0.625000 1.071384
v 0.875000 0.258883 1.437500
v 0.875000 -0.258884 1.437500
v 0.875000 -0.310660 1.562500
v 0.875000 -0.750000 0.501840
v 0.875000 -0.625000 0.553616
v 0.875000 -0.625000 1.071383
v 0.875000 0.310660 0.062500
v 0.875000 -0.258884 0.187500
v 0.875000 0.258883 0.187500
v 0.875000 0.625000 0.553617
v 0.875000 0.750000 0.501840
v 0.125000 0.625000 1.071384
v 0.125000 0.625000 0.553617
v 0.125000 0.750000 0.501840
v 0.125000 0.310660 0.062500
v 0.125000 0.258883 0.187500
v 0.125000 -0.258884 0.187500
v 0.125000 -0.625000 0.553617
v 0.125000 -0.310660 0.062500
v 0.125000 -0.750000 0.501840
v 0.125000 -0.625000 1.071384
v 0.125000 -0.258884 1.437500
v 0.125000 0.258883 1.437500
v 0.125000 0.750000 1.123160
v 0.062500 0.368718 1.592830
v 0.062500 0.987437 0.974112
v 0.062500 0.103553 1.327665
v 0.062500 0.722272 0.708947
v 0.937500 0.368718 1.592830
v 0.937500 0.987437 0.974112
v 0.937500 0.103553 1.327665
v 0.937500 0.722272 0.708947
v 0.062500 0.722272 1.239277
v 0.062500 0.457107 0.974112
v 0.937500 0.457107 0.974112
v 0.937500 0.722272 1.239277
v 0.000000 0.000000 1.000000
v -0.000000 1.000000 1.000000
v 0.000000 0.000000 0.000000
v -0.000000 1.000000 0.000000
v 1.000000 0.000000 1.000000
v 1.000000 1.000000 1.000000
v 1.000000 0.000000 -0.000000
v 1.000000 1.000000 0.000000
v 0.062500 0.059359 1.371859
v 0.062500 0.766466 0.664752
v 0.062500 -0.559359 0.753141
v 0.062500 0.147747 0.046034
v 0.937500 0.059359 1.371859
v 0.937500 0.766466 0.664752
v 0.937500 -0.559359 0.753141
v 0.937500 0.147747 0.046034
vn -0.0000 0.7071 -0.7071
vn -0.0000 -0.7071 -0.7071
vn 1.0000 -0.0000 -0.0000
vn -0.0000 -0.7071 0.7071
vn -1.0000 -0.0000 -0.0000
vn -0.0000 0.7071 0.7071
vn -0.0000 1.0000 -0.0000
vn -0.0000 -0.0000 1.0000
vn -0.0000 -1.0000 -0.0000
vn -0.0000 -0.0000 -1.0000
vt 0.250000 0.625000
vt 0.000000 0.500000
vt 0.250000 0.500000
vt 0.000000 0.625000
vt 0.000000 0.500000
vt 0.250000 0.625000
vt 0.000000 0.750000
vt 0.000000 0.625000
vt 0.250000 0.750000
vt 0.000000 1.000000
vt 0.000000 0.750000
vt 0.250000 0.750000
vt 0.250000 0.625000
vt 0.000000 0.625000
vt 0.250000 1.000000
vt 0.250000 0.750000
vt 0.250000 0.500000
vt 0.000000 1.000000
vt 0.000000 0.750000
vt 0.000000 0.625000
vt 0.250000 1.000000
vt 0.250000 0.750000
vt 0.000000 0.500000
vt 0.250000 0.625000
vt 0.250000 0.750000
vt 0.000000 0.750000
vt 0.000000 0.625000
vt 0.000000 0.500000
vt 0.250000 0.625000
vt 0.000000 0.625000
vt 0.250000 0.750000
vt 0.250000 0.625000
vt 0.000000 0.625000
vt 0.312500 0.625000
vt 0.312500 0.687500
vt 0.312500 1.000000
vt 0.687500 0.687500
vt 0.000000 1.000000
vt 0.312500 1.000000
vt 0.312500 0.687500
vt 0.000000 0.625000
vt 0.312500 0.625000
vt 0.312500 0.687500
vt 0.312500 1.000000
vt 0.000000 1.000000
vt 0.312500 1.000000
vt 0.312500 0.687500
vt 0.000000 1.000000
vt 0.312500 1.000000
vt 0.312500 0.687500
vt 0.000000 0.625000
vt 0.312500 0.625000
vt 0.312500 0.687500
vt 0.312500 1.000000
vt 0.000000 0.625000
vt 0.312500 0.625000
vt 0.312500 0.687500
vt 0.312500 1.000000
vt 0.687500 0.687500
vt 0.375000 0.713542
vt 0.375000 0.973958
vt 0.562500 1.000000
vt 0.375000 0.713542
vt 0.375000 0.973958
vt 0.375000 0.812500
vt 0.375000 0.713542
vt 0.375000 0.973958
vt 0.375000 0.562500
vt 0.000000 0.625000
vt 0.312500 0.625000
vt 0.312500 0.687500
vt 0.312500 1.000000
vt 0.000000 0.625000
vt 0.312500 0.625000
vt 0.312500 0.687500
vt 0.312500 1.000000
vt 0.375000 0.713542
vt 0.375000 0.973958
vt 0.812500 0.375000
vt 0.375000 0.713542
vt 0.375000 0.973958
vt 0.562500 0.375000
vt 0.000000 0.625000
vt 0.312500 0.625000
vt 0.312500 0.687500
vt 0.312500 1.000000
vt 0.375000 0.713542
vt 0.375000 0.973958
vt 1.000000 0.562500
vt 0.375000 0.713542
vt 0.375000 0.973958
vt 1.000000 0.812500
vt 0.375000 0.973958
vt 0.375000 0.713542
vt 0.812500 1.000000
vt 0.312500 0.625000
vt 0.312500 1.000000
vt 0.000000 0.625000
vt 0.312500 0.687500
vt 0.375000 0.713542
vt 0.812500 1.000000
vt 0.375000 0.973958
vt 0.562500 1.000000
vt 0.375000 0.973958
vt 0.375000 0.713542
vt 0.000000 1.000000
vt 0.312500 1.000000
vt 0.312500 0.687500
vt 0.000000 1.000000
vt 0.312500 1.000000
vt 0.312500 0.687500
vt 0.375000 0.812500
vt 0.375000 0.973958
vt 0.375000 0.713542
vt 0.375000 0.562500
vt 0.375000 0.973958
vt 0.375000 0.713542
vt 0.562500 0.375000
vt 0.375000 0.713542
vt 0.375000 0.973958
vt 0.000000 1.000000
vt 0.312500 1.000000
vt 0.312500 0.687500
vt 0.000000 1.000000
vt 0.312500 0.687500
vt 0.312500 1.000000
vt 0.812500 0.375000
vt 0.375000 0.973958
vt 0.375000 0.713542
vt 1.000000 0.562500
vt 0.375000 0.973958
vt 0.375000 0.713542
vt 0.375000 0.973958
vt 1.000000 0.812500
vt 0.375000 0.713542
vt 0.000000 1.000000
vt 0.312500 0.687500
vt 0.312500 1.000000
vt 0.562500 0.500000
vt 0.562500 0.937500
vt 0.375000 0.500000
vt 0.375000 0.937500
vt 1.000000 0.500000
vt 0.562500 0.500000
vt 1.000000 0.937500
vt 0.562500 0.937500
vt 0.375000 0.500000
vt 0.375000 0.937500
vt 0.031250 0.406250
vt 0.562500 0.750000
vt 0.031250 0.187500
vt 0.375000 0.750000
vt 0.468750 0.187500
vt 0.375000 0.750000
vt 0.468750 0.406250
vt 1.000000 0.750000
vt 0.562500 0.750000
vt 0.000000 0.500000
vt 0.500000 -0.000000
vt 0.500000 0.500000
vt 0.000000 1.000000
vt 0.500000 1.000000
vt 0.500000 0.000000
vt 1.000000 0.000000
vt 0.500000 0.500000
vt 1.000000 0.500000
vt 0.500000 1.000000
vt 1.000000 1.000000
vt 0.000000 -0.000000
vt 0.000000 0.500000
vt 0.500000 0.500000
vt 0.000000 1.000000
vt 0.000000 0.000000
vt 0.500000 0.000000
vt 0.000000 0.500000
vt 0.500000 0.500000
vt 0.500000 0.500000
vt 1.000000 0.500000
vt 0.500000 1.000000
vt 0.968750 0.000000
vt 0.031250 -0.000000
vt 0.500000 0.500000
vt 0.968750 0.500000
vt 0.031250 0.500000
vt 0.531250 -0.000000
vt 0.468750 -0.000000
vt 0.500000 0.000000
vt 0.531250 0.500000
vt 0.468750 0.500000
vt 0.531250 -0.000000
vt 0.468750 -0.000000
vt 0.531250 0.500000
vt 0.531250 0.500000
vt 0.468750 0.500000
vt 0.031250 -0.000000
vt 0.968750 0.000000
vt 0.531250 -0.000000
vt 0.031250 0.500000
vt 0.968750 0.500000
s 0
usemtl roller_metal
f 10/19/1 3/4/1 1/1/1 13/25/1
f 9/17/2 12/23/2 8/14/2 7/13/2
f 7/12/3 8/15/3 6/10/3 5/7/3
f 4/5/4 11/20/4 16/32/4 2/3/4
f 9/17/4 7/13/4 5/8/4 14/28/4
f 11/21/5 10/18/5 13/26/5 16/31/5
f 8/16/1 12/24/1 15/30/1 6/11/1
f 16/32/2 13/27/2 1/2/2 2/3/2
f 5/9/6 6/11/6 15/30/6 14/29/6
f 4/6/6 3/4/6 10/19/6 11/22/6
f 60/151/4 61/153/4 62/155/4 59/149/4
f 55/143/6 62/156/6 59/150/6 51/139/6
f 62/156/6 56/145/6 52/140/6 59/150/6
f 57/147/3 61/154/3 62/157/3 55/144/3
f 61/154/3 58/148/3 56/146/3 62/157/3
f 51/139/5 59/150/5 60/152/5 53/141/5
f 59/150/5 52/140/5 54/142/5 60/152/5
f 71/180/5 72/183/5 74/188/5 73/185/5
f 73/186/2 74/189/2 78/198/2 77/195/2
f 77/196/3 78/199/3 76/193/3 75/190/3
f 75/191/6 76/194/6 72/184/6 71/181/6
f 73/187/4 77/197/4 75/192/4 71/182/4
usemtl roller_wheel
f 40/107/7 50/136/7 17/33/7 37/96/7
f 50/138/6 19/38/6 20/41/6 17/34/6
f 36/93/3 37/97/3 17/35/3 26/60/3
f 19/39/8 21/45/8 29/69/8 20/42/8
f 26/61/3 17/36/3 20/43/3 27/63/3
f 21/46/4 22/48/4 23/51/4 29/70/4
f 27/64/3 20/44/3 29/71/3 28/66/3
f 22/49/9 46/124/9 30/73/9 23/52/9
f 28/67/3 29/72/3 23/53/3 32/80/3
f 46/126/2 45/121/2 24/55/2 30/74/2
f 32/81/3 23/54/3 30/75/3 31/77/3
f 45/122/10 41/109/10 33/83/10 24/56/10
f 31/78/3 30/76/3 24/57/3 34/87/3
f 41/110/1 40/106/1 37/98/1 33/84/1
f 34/88/3 24/58/3 33/85/3 35/90/3
f 35/91/3 33/86/3 37/99/3 36/94/3
f 18/37/3 35/92/3 36/95/3
f 18/37/3 34/89/3 35/92/3
f 18/37/3 31/79/3 34/89/3
f 18/37/3 32/82/3 31/79/3
f 25/59/5 38/101/5 39/103/5
f 25/59/5 39/103/5 42/112/5
f 25/59/5 42/112/5 43/115/5
f 18/37/3 28/68/3 32/82/3
f 25/59/5 44/118/5 47/127/5
f 25/59/5 43/115/5 44/118/5
f 25/59/5 47/127/5 48/130/5
f 25/59/5 48/130/5 49/134/5
f 18/37/3 27/65/3 28/68/3
f 49/133/5 19/39/5 50/137/5 38/100/5
f 25/59/5 49/134/5 38/101/5
f 48/131/5 21/46/5 19/40/5 49/135/5
f 47/128/5 22/49/5 21/47/5 48/132/5
f 18/37/3 26/62/3 27/65/3
f 43/116/5 45/122/5 46/125/5 44/119/5
f 44/120/5 46/126/5 22/50/5 47/129/5
f 42/113/5 41/110/5 45/123/5 43/117/5
f 39/104/5 40/107/5 41/111/5 42/114/5
f 18/37/3 36/95/3 26/62/3
f 38/102/5 50/138/5 40/108/5 39/105/5
usemtl roller_casing
f 65/164/10 66/166/10 70/177/10 69/174/10
f 64/161/5 66/167/5 65/165/5 63/158/5
f 69/175/9 67/169/9 63/159/9 65/165/9
f 70/178/7 66/168/7 64/162/7 68/171/7
f 69/176/3 70/179/3 68/172/3 67/170/3
f 64/163/8 63/160/8 67/170/8 68/173/8
