# Blender v3.1.2 OBJ File: 'Burner V3blend.blend'
# www.blender.org
mtllib blaze_cage.mtl
o cube
v 0.125000 0.000000 0.875000
v 0.125000 0.250000 0.875000
v 0.125000 0.000000 0.125000
v 0.125000 0.250000 0.125000
v 0.875000 0.000000 0.875000
v 0.875000 0.250000 0.875000
v 0.875000 0.000000 0.125000
v 0.875000 0.250000 0.125000
v 0.062500 0.312500 0.937500
v 0.062500 0.875000 0.937500
v 0.937500 0.312500 0.937500
v 0.937500 0.875000 0.937500
v 0.062500 0.250000 0.875000
v 0.937500 0.250000 0.875000
v 0.062500 0.937500 1.000000
v 0.937500 0.937500 1.000000
v 0.937500 0.312500 0.937500
v 0.937500 0.875000 0.937500
v 0.937500 0.312500 0.062500
v 0.937500 0.875000 0.062500
v 0.875000 0.250000 0.937500
v 0.875000 0.250000 0.062500
v 1.000000 0.937500 0.937500
v 1.000000 0.937500 0.062500
v 0.937500 0.312500 0.062500
v 0.937500 0.875000 0.062500
v 0.062500 0.312500 0.062500
v 0.062500 0.875000 0.062500
v 0.937500 0.250000 0.125000
v 0.062500 0.250000 0.125000
v 0.937500 0.937500 0.000000
v 0.062500 0.937500 0.000000
v 0.062500 0.312500 0.062500
v 0.062500 0.875000 0.062500
v 0.062500 0.312500 0.937500
v 0.062500 0.875000 0.937500
v 0.125000 0.250000 0.062500
v 0.125000 0.250000 0.937500
v 0.000000 0.937500 0.062500
v 0.000000 0.937500 0.937500
v 0.875000 0.000000 0.875000
v 1.000000 0.000000 1.000000
v 0.875000 0.312500 0.875000
v 1.000000 0.312500 1.000000
v 0.875000 0.000000 0.125000
v 1.000000 0.000000 0.000000
v 0.875000 0.312500 0.125000
v 1.000000 0.312500 0.000000
v 0.125000 0.000000 0.125000
v 0.000000 0.000000 0.000000
v 0.125000 0.312500 0.125000
v 0.000000 0.312500 0.000000
v 0.125000 0.000000 0.875000
v 0.000000 0.000000 1.000000
v 0.125000 0.312500 0.875000
v 0.000000 0.312500 1.000000
v 0.062500 0.312500 0.937500
v 0.062500 0.875000 0.937500
v 0.937500 0.312500 0.937500
v 0.937500 0.875000 0.937500
v 0.062500 0.250000 0.875000
v 0.937500 0.250000 0.875000
v 0.062500 0.937500 1.000000
v 0.937500 0.937500 1.000000
v 0.937500 0.312500 0.937500
v 0.937500 0.875000 0.937500
v 0.937500 0.312500 0.062500
v 0.937500 0.875000 0.062500
v 0.875000 0.250000 0.937500
v 0.875000 0.250000 0.062500
v 1.000000 0.937500 0.937500
v 1.000000 0.937500 0.062500
v 0.937500 0.312500 0.062500
v 0.937500 0.875000 0.062500
v 0.062500 0.312500 0.062500
v 0.062500 0.875000 0.062500
v 0.937500 0.250000 0.125000
v 0.062500 0.250000 0.125000
v 0.937500 0.937500 0.000000
v 0.062500 0.937500 0.000000
v 0.062500 0.312500 0.062500
v 0.062500 0.875000 0.062500
v 0.062500 0.312500 0.937500
v 0.062500 0.875000 0.937500
v 0.125000 0.250000 0.062500
v 0.125000 0.250000 0.937500
v 0.000000 0.937500 0.062500
v 0.000000 0.937500 0.937500
v 0.875000 0.000000 0.875000
v 1.000000 0.000000 1.000000
v 0.875000 0.312500 0.875000
v 1.000000 0.312500 1.000000
v 0.875000 0.000000 0.125000
v 1.000000 0.000000 0.000000
v 0.875000 0.312500 0.125000
v 1.000000 0.312500 0.000000
v 0.125000 0.000000 0.125000
v 0.000000 0.000000 0.000000
v 0.125000 0.312500 0.125000
v 0.000000 0.312500 0.000000
v 0.125000 0.000000 0.875000
v 0.000000 0.000000 1.000000
v 0.125000 0.312500 0.875000
v 0.000000 0.312500 1.000000
vt 0.937500 0.375000
vt 0.937500 0.500000
vt 0.562500 0.500000
vt 0.562500 0.375000
vt 0.937500 0.375000
vt 0.937500 0.500000
vt 0.562500 0.500000
vt 0.562500 0.375000
vt 0.937500 0.375000
vt 0.937500 0.500000
vt 0.562500 0.500000
vt 0.562500 0.375000
vt 0.937500 0.375000
vt 0.937500 0.500000
vt 0.562500 0.500000
vt 0.562500 0.375000
vt 0.562500 0.000000
vt 0.937500 0.000000
vt 0.562500 0.562500
vt 0.937500 0.562500
vt 0.937500 0.937500
vt 0.562500 0.937500
vt 0.468750 0.531250
vt 0.468750 0.812500
vt 0.031250 0.812500
vt 0.031250 0.531250
vt 0.031250 0.500000
vt 0.468750 0.500000
vt 0.468750 0.531250
vt 0.031250 0.531250
vt 0.468750 0.843750
vt 0.031250 0.843750
vt 0.468750 0.531250
vt 0.468750 0.812500
vt 0.031250 0.812500
vt 0.031250 0.531250
vt 0.031250 0.500000
vt 0.468750 0.500000
vt 0.468750 0.531250
vt 0.031250 0.531250
vt 0.468750 0.843750
vt 0.031250 0.843750
vt 0.468750 0.531250
vt 0.468750 0.812500
vt 0.031250 0.812500
vt 0.031250 0.531250
vt 0.031250 0.500000
vt 0.468750 0.500000
vt 0.468750 0.531250
vt 0.031250 0.531250
vt 0.468750 0.843750
vt 0.031250 0.843750
vt 0.468750 0.531250
vt 0.468750 0.812500
vt 0.031250 0.812500
vt 0.031250 0.531250
vt 0.031250 0.500000
vt 0.468750 0.500000
vt 0.468750 0.531250
vt 0.031250 0.531250
vt 0.468750 0.843750
vt 0.031250 0.843750
vt 0.906250 0.343750
vt 1.000000 0.343750
vt 1.000000 0.500000
vt 0.906250 0.500000
vt 0.906250 0.343750
vt 1.000000 0.343750
vt 1.000000 0.500000
vt 0.906250 0.500000
vt 0.906250 0.343750
vt 1.000000 0.343750
vt 1.000000 0.500000
vt 0.906250 0.500000
vt 0.906250 0.343750
vt 1.000000 0.343750
vt 1.000000 0.500000
vt 0.906250 0.500000
vt 0.468750 0.531250
vt 0.031250 0.531250
vt 0.031250 0.812500
vt 0.468750 0.812500
vt 0.031250 0.500000
vt 0.031250 0.531250
vt 0.468750 0.531250
vt 0.468750 0.500000
vt 0.031250 0.843750
vt 0.468750 0.843750
vt 0.468750 0.531250
vt 0.031250 0.531250
vt 0.031250 0.812500
vt 0.468750 0.812500
vt 0.031250 0.500000
vt 0.031250 0.531250
vt 0.468750 0.531250
vt 0.468750 0.500000
vt 0.031250 0.843750
vt 0.468750 0.843750
vt 0.468750 0.531250
vt 0.031250 0.531250
vt 0.031250 0.812500
vt 0.468750 0.812500
vt 0.031250 0.500000
vt 0.031250 0.531250
vt 0.468750 0.531250
vt 0.468750 0.500000
vt 0.031250 0.843750
vt 0.468750 0.843750
vt 0.468750 0.531250
vt 0.031250 0.531250
vt 0.031250 0.812500
vt 0.468750 0.812500
vt 0.031250 0.500000
vt 0.031250 0.531250
vt 0.468750 0.531250
vt 0.468750 0.500000
vt 0.031250 0.843750
vt 0.468750 0.843750
vt 0.906250 0.343750
vt 0.906250 0.500000
vt 1.000000 0.500000
vt 1.000000 0.343750
vt 0.906250 0.343750
vt 0.906250 0.500000
vt 1.000000 0.500000
vt 1.000000 0.343750
vt 0.906250 0.343750
vt 0.906250 0.500000
vt 1.000000 0.500000
vt 1.000000 0.343750
vt 0.906250 0.343750
vt 0.906250 0.500000
vt 1.000000 0.500000
vt 1.000000 0.343750
vn -1.0000 0.0000 0.0000
vn 0.0000 0.0000 -1.0000
vn 1.0000 0.0000 0.0000
vn 0.0000 0.0000 1.0000
vn 0.0000 -1.0000 0.0000
vn 0.0000 1.0000 0.0000
vn 0.0000 -0.7071 0.7071
vn 0.7071 -0.7071 -0.0000
vn -0.0000 -0.7071 -0.7071
vn -0.7071 -0.7071 0.0000
vn -0.7071 0.0000 0.7071
vn 0.7071 0.0000 0.7071
vn 0.7071 0.0000 -0.7071
vn -0.7071 0.0000 -0.7071
vn 0.0000 0.7071 -0.7071
vn -0.7071 0.7071 0.0000
vn 0.0000 0.7071 0.7071
vn 0.7071 0.7071 -0.0000
usemtl m_0
s off
f 1/1/1 2/2/1 4/3/1 3/4/1
f 3/5/2 4/6/2 8/7/2 7/8/2
f 7/9/3 8/10/3 6/11/3 5/12/3
f 5/13/4 6/14/4 2/15/4 1/16/4
f 3/17/5 7/18/5 5/13/5 1/16/5
f 8/19/6 4/20/6 2/21/6 6/22/6
f 11/23/4 12/24/4 10/25/4 9/26/4
f 11/27/7 9/28/7 13/29/7 14/30/7
f 10/25/7 12/24/7 16/31/7 15/32/7
f 19/33/3 20/34/3 18/35/3 17/36/3
f 19/37/8 17/38/8 21/39/8 22/40/8
f 18/35/8 20/34/8 24/41/8 23/42/8
f 27/43/2 28/44/2 26/45/2 25/46/2
f 27/47/9 25/48/9 29/49/9 30/50/9
f 26/45/9 28/44/9 32/51/9 31/52/9
f 35/53/1 36/54/1 34/55/1 33/56/1
f 35/57/10 33/58/10 37/59/10 38/60/10
f 34/55/10 36/54/10 40/61/10 39/62/10
f 41/63/11 42/64/11 44/65/11 43/66/11
f 45/67/12 46/68/12 48/69/12 47/70/12
f 49/71/13 50/72/13 52/73/13 51/74/13
f 53/75/14 54/76/14 56/77/14 55/78/14
f 59/79/2 57/80/2 58/81/2 60/82/2
f 59/83/15 62/84/15 61/85/15 57/86/15
f 58/81/15 63/87/15 64/88/15 60/82/15
f 67/89/1 65/90/1 66/91/1 68/92/1
f 67/93/16 70/94/16 69/95/16 65/96/16
f 66/91/16 71/97/16 72/98/16 68/92/16
f 75/99/4 73/100/4 74/101/4 76/102/4
f 75/103/17 78/104/17 77/105/17 73/106/17
f 74/101/17 79/107/17 80/108/17 76/102/17
f 83/109/3 81/110/3 82/111/3 84/112/3
f 83/113/18 86/114/18 85/115/18 81/116/18
f 82/111/18 87/117/18 88/118/18 84/112/18
f 89/119/13 91/120/13 92/121/13 90/122/13
f 93/123/14 95/124/14 96/125/14 94/126/14
f 97/127/11 99/128/11 100/129/11 98/130/11
f 101/131/12 103/132/12 104/133/12 102/134/12
