# Blender v3.1.2 OBJ File: 'Burner V3blend.blend'
# www.blender.org
mtllib blaze_rods.mtl
o cube
v 0.093750 0.281250 0.437500
v 0.093750 0.531250 0.437500
v 0.093750 0.281250 0.312500
v 0.093750 0.531250 0.312500
v 0.218750 0.281250 0.437500
v 0.218750 0.531250 0.437500
v 0.218750 0.281250 0.312500
v 0.218750 0.531250 0.312500
v 0.437500 0.281250 0.906250
v 0.437500 0.531250 0.906250
v 0.312500 0.281250 0.906250
v 0.312500 0.531250 0.906250
v 0.437500 0.281250 0.781250
v 0.437500 0.531250 0.781250
v 0.312500 0.281250 0.781250
v 0.312500 0.531250 0.781250
v 0.906250 0.281250 0.562500
v 0.906250 0.531250 0.562500
v 0.906250 0.281250 0.687500
v 0.906250 0.531250 0.687500
v 0.781250 0.281250 0.562500
v 0.781250 0.531250 0.562500
v 0.781250 0.281250 0.687500
v 0.781250 0.531250 0.687500
v 0.562500 0.281250 0.093750
v 0.562500 0.531250 0.093750
v 0.687500 0.281250 0.093750
v 0.687500 0.531250 0.093750
v 0.562500 0.281250 0.218750
v 0.562500 0.531250 0.218750
v 0.687500 0.281250 0.218750
v 0.687500 0.531250 0.218750
vt 0.125000 0.625000
vt 0.125000 0.875000
vt 0.000000 0.875000
vt 0.000000 0.625000
vt 0.125000 0.625000
vt 0.125000 0.875000
vt 0.000000 0.875000
vt 0.000000 0.625000
vt 0.125000 0.625000
vt 0.125000 0.875000
vt 0.000000 0.875000
vt 0.000000 0.625000
vt 0.125000 0.625000
vt 0.125000 0.875000
vt 0.000000 0.875000
vt 0.000000 0.625000
vt 0.000000 0.500000
vt 0.125000 0.500000
vt 0.125000 1.000000
vt -0.000000 1.000000
vt 0.125000 0.625000
vt 0.125000 0.875000
vt 0.000000 0.875000
vt 0.000000 0.625000
vt 0.125000 0.625000
vt 0.125000 0.875000
vt 0.000000 0.875000
vt 0.000000 0.625000
vt 0.125000 0.625000
vt 0.125000 0.875000
vt 0.000000 0.875000
vt 0.000000 0.625000
vt 0.125000 0.625000
vt 0.125000 0.875000
vt 0.000000 0.875000
vt 0.000000 0.625000
vt 0.000000 0.500000
vt 0.125000 0.500000
vt 0.125000 1.000000
vt -0.000000 1.000000
vt 0.125000 0.625000
vt 0.125000 0.875000
vt 0.000000 0.875000
vt 0.000000 0.625000
vt 0.125000 0.625000
vt 0.125000 0.875000
vt 0.000000 0.875000
vt 0.000000 0.625000
vt 0.125000 0.625000
vt 0.125000 0.875000
vt 0.000000 0.875000
vt 0.000000 0.625000
vt 0.125000 0.625000
vt 0.125000 0.875000
vt 0.000000 0.875000
vt 0.000000 0.625000
vt 0.000000 0.500000
vt 0.125000 0.500000
vt 0.125000 1.000000
vt -0.000000 1.000000
vt 0.125000 0.625000
vt 0.125000 0.875000
vt 0.000000 0.875000
vt 0.000000 0.625000
vt 0.125000 0.625000
vt 0.125000 0.875000
vt 0.000000 0.875000
vt 0.000000 0.625000
vt 0.125000 0.625000
vt 0.125000 0.875000
vt 0.000000 0.875000
vt 0.000000 0.625000
vt 0.125000 0.625000
vt 0.125000 0.875000
vt 0.000000 0.875000
vt 0.000000 0.625000
vt 0.000000 0.500000
vt 0.125000 0.500000
vt 0.125000 1.000000
vt -0.000000 1.000000
vn -1.0000 0.0000 0.0000
vn 0.0000 0.0000 -1.0000
vn 1.0000 0.0000 0.0000
vn 0.0000 0.0000 1.0000
vn 0.0000 -1.0000 0.0000
vn 0.0000 1.0000 0.0000
usemtl m_0
s off
f 1/1/1 2/2/1 4/3/1 3/4/1
f 3/5/2 4/6/2 8/7/2 7/8/2
f 7/9/3 8/10/3 6/11/3 5/12/3
f 5/13/4 6/14/4 2/15/4 1/16/4
f 3/17/5 7/18/5 5/13/5 1/16/5
f 8/7/6 4/6/6 2/19/6 6/20/6
f 9/21/4 10/22/4 12/23/4 11/24/4
f 11/25/1 12/26/1 16/27/1 15/28/1
f 15/29/2 16/30/2 14/31/2 13/32/2
f 13/33/3 14/34/3 10/35/3 9/36/3
f 11/37/5 15/38/5 13/33/5 9/36/5
f 16/27/6 12/26/6 10/39/6 14/40/6
f 17/41/3 18/42/3 20/43/3 19/44/3
f 19/45/4 20/46/4 24/47/4 23/48/4
f 23/49/1 24/50/1 22/51/1 21/52/1
f 21/53/2 22/54/2 18/55/2 17/56/2
f 19/57/5 23/58/5 21/53/5 17/56/5
f 24/47/6 20/46/6 18/59/6 22/60/6
f 25/61/2 26/62/2 28/63/2 27/64/2
f 27/65/3 28/66/3 32/67/3 31/68/3
f 31/69/4 32/70/4 30/71/4 29/72/4
f 29/73/1 30/74/1 26/75/1 25/76/1
f 27/77/5 31/78/5 29/73/5 25/76/5
f 32/67/6 28/66/6 26/79/6 30/80/6
