# Blender v3.1.2 OBJ File: 'Burner V3blend.blend'
# www.blender.org
mtllib blaze_flame.mtl
o cube
v 0.125000 1.000000 0.875000
v 0.875000 1.000000 0.875000
v 0.187500 0.937500 0.812500
v 0.812500 0.937500 0.812500
v 0.187500 0.375000 0.812500
v 0.812500 0.375000 0.812500
v 0.312500 0.250000 0.687500
v 0.687500 0.250000 0.687500
v 0.875000 1.000000 0.875000
v 0.875000 1.000000 0.125000
v 0.812500 0.937500 0.812500
v 0.812500 0.937500 0.187500
v 0.812500 0.375000 0.812500
v 0.812500 0.375000 0.187500
v 0.687500 0.250000 0.687500
v 0.687500 0.250000 0.312500
v 0.875000 1.000000 0.125000
v 0.125000 1.000000 0.125000
v 0.812500 0.937500 0.187500
v 0.187500 0.937500 0.187500
v 0.812500 0.375000 0.187500
v 0.187500 0.375000 0.187500
v 0.687500 0.250000 0.312500
v 0.312500 0.250000 0.312500
v 0.125000 1.000000 0.125000
v 0.125000 1.000000 0.875000
v 0.187500 0.937500 0.187500
v 0.187500 0.937500 0.812500
v 0.187500 0.375000 0.187500
v 0.187500 0.375000 0.812500
v 0.312500 0.250000 0.312500
v 0.312500 0.250000 0.687500
v 0.125000 1.000000 0.875000
v 0.875000 1.000000 0.875000
v 0.187500 0.937500 0.812500
v 0.812500 0.937500 0.812500
v 0.187500 0.375000 0.812500
v 0.812500 0.375000 0.812500
v 0.312500 0.250000 0.687500
v 0.687500 0.250000 0.687500
v 0.875000 1.000000 0.875000
v 0.875000 1.000000 0.125000
v 0.812500 0.937500 0.812500
v 0.812500 0.937500 0.187500
v 0.812500 0.375000 0.812500
v 0.812500 0.375000 0.187500
v 0.687500 0.250000 0.687500
v 0.687500 0.250000 0.312500
v 0.875000 1.000000 0.125000
v 0.125000 1.000000 0.125000
v 0.812500 0.937500 0.187500
v 0.187500 0.937500 0.187500
v 0.812500 0.375000 0.187500
v 0.187500 0.375000 0.187500
v 0.687500 0.250000 0.312500
v 0.312500 0.250000 0.312500
v 0.125000 1.000000 0.125000
v 0.125000 1.000000 0.875000
v 0.187500 0.937500 0.187500
v 0.187500 0.937500 0.812500
v 0.187500 0.375000 0.187500
v 0.187500 0.375000 0.812500
v 0.312500 0.250000 0.312500
v 0.312500 0.250000 0.687500
vt 0.937500 1.000000
vt 0.062500 1.000000
vt 0.125000 0.937500
vt 0.875000 0.937500
vt 0.125000 0.250000
vt 0.875000 0.250000
vt 0.250000 -0.000000
vt 0.750000 -0.000000
vt 0.937500 1.000000
vt 0.062500 1.000000
vt 0.125000 0.937500
vt 0.875000 0.937500
vt 0.125000 0.250000
vt 0.875000 0.250000
vt 0.250000 -0.000000
vt 0.750000 -0.000000
vt 0.937500 1.000000
vt 0.062500 1.000000
vt 0.125000 0.937500
vt 0.875000 0.937500
vt 0.125000 0.250000
vt 0.875000 0.250000
vt 0.250000 -0.000000
vt 0.750000 -0.000000
vt 0.937500 1.000000
vt 0.062500 1.000000
vt 0.125000 0.937500
vt 0.875000 0.937500
vt 0.125000 0.250000
vt 0.875000 0.250000
vt 0.250000 -0.000000
vt 0.750000 -0.000000
vt 0.937500 1.000000
vt 0.875000 0.937500
vt 0.125000 0.937500
vt 0.062500 1.000000
vt 0.875000 0.250000
vt 0.125000 0.250000
vt 0.750000 -0.000000
vt 0.250000 -0.000000
vt 0.937500 1.000000
vt 0.875000 0.937500
vt 0.125000 0.937500
vt 0.062500 1.000000
vt 0.875000 0.250000
vt 0.125000 0.250000
vt 0.750000 -0.000000
vt 0.250000 -0.000000
vt 0.937500 1.000000
vt 0.875000 0.937500
vt 0.125000 0.937500
vt 0.062500 1.000000
vt 0.875000 0.250000
vt 0.125000 0.250000
vt 0.750000 -0.000000
vt 0.250000 -0.000000
vt 0.937500 1.000000
vt 0.875000 0.937500
vt 0.125000 0.937500
vt 0.062500 1.000000
vt 0.875000 0.250000
vt 0.125000 0.250000
vt 0.750000 -0.000000
vt 0.250000 -0.000000
vn 0.0000 0.7071 -0.7071
vn 0.0000 0.0000 -1.0000
vn -0.7071 0.7071 0.0000
vn -1.0000 0.0000 0.0000
vn 0.0000 0.7071 0.7071
vn 0.0000 0.0000 1.0000
vn 0.7071 0.7071 -0.0000
vn 1.0000 0.0000 -0.0000
vn 0.0000 -0.7071 0.7071
vn 0.7071 -0.7071 0.0000
vn -0.0000 -0.7071 -0.7071
vn -0.7071 -0.7071 0.0000
usemtl m_0
s off
f 1/1/1 2/2/1 4/3/1 3/4/1
f 3/4/2 4/3/2 6/5/2 5/6/2
f 5/6/1 6/5/1 8/7/1 7/8/1
f 9/9/3 10/10/3 12/11/3 11/12/3
f 11/12/4 12/11/4 14/13/4 13/14/4
f 13/14/3 14/13/3 16/15/3 15/16/3
f 17/17/5 18/18/5 20/19/5 19/20/5
f 19/20/6 20/19/6 22/21/6 21/22/6
f 21/22/5 22/21/5 24/23/5 23/24/5
f 25/25/7 26/26/7 28/27/7 27/28/7
f 27/28/8 28/27/8 30/29/8 29/30/8
f 29/30/7 30/29/7 32/31/7 31/32/7
f 33/33/9 35/34/9 36/35/9 34/36/9
f 35/34/6 37/37/6 38/38/6 36/35/6
f 37/37/9 39/39/9 40/40/9 38/38/9
f 41/41/10 43/42/10 44/43/10 42/44/10
f 43/42/8 45/45/8 46/46/8 44/43/8
f 45/45/10 47/47/10 48/48/10 46/46/10
f 49/49/11 51/50/11 52/51/11 50/52/11
f 51/50/2 53/53/2 54/54/2 52/51/2
f 53/53/11 55/55/11 56/56/11 54/54/11
f 57/57/12 59/58/12 60/59/12 58/60/12
f 59/58/4 61/61/4 62/62/4 60/59/4
f 61/61/12 63/63/12 64/64/12 62/62/12
