# Blender v3.1.2 OBJ File: 'Burner V3blend.blend'
# www.blender.org
mtllib item.mtl
o cube
v 0.250000 0.375000 0.750000
v 0.750000 0.375000 0.750000
v 0.750000 0.875000 0.750000
v 0.250000 0.875000 0.750000
v 0.250000 0.375000 0.250000
v 0.250000 0.875000 0.250000
v 0.750000 0.375000 0.250000
v 0.750000 0.875000 0.250000
vt 0.500000 0.500000
vt 1.000000 0.500000
vt 1.000000 1.000000
vt 0.500000 1.000000
vt 0.000000 0.500000
vt 0.000000 1.000000
vt 0.000000 0.500000
vt 0.500000 0.500000
vt 0.500000 1.000000
vt 0.000000 1.000000
vt 0.000000 0.500000
vt 0.500000 0.500000
vt 0.500000 1.000000
vt 0.000000 1.000000
vt 0.000000 0.000000
vt 0.500000 0.000000
vt 0.500000 0.500000
vt 0.000000 0.500000
vt 0.500000 0.000000
vt 1.000000 0.000000
vt 1.000000 0.500000
vn 0.0000 0.0000 1.0000
vn -1.0000 0.0000 0.0000
vn -0.0000 -0.0000 -1.0000
vn 1.0000 0.0000 -0.0000
vn -0.0000 1.0000 -0.0000
vn 0.0000 -1.0000 0.0000
usemtl m_1
s 1
f 1/1/1 2/2/1 3/3/1 4/4/1
f 5/5/2 1/1/2 4/4/2 6/6/2
f 7/7/3 5/8/3 6/9/3 8/10/3
f 2/11/4 7/12/4 8/13/4 3/14/4
f 8/15/5 6/16/5 4/17/5 3/18/5
f 2/19/6 1/20/6 5/21/6 7/12/6
o cube2
v 0.093750 0.281250 0.437500
v 0.093750 0.531250 0.437500
v 0.093750 0.281250 0.312500
v 0.093750 0.531250 0.312500
v 0.218750 0.281250 0.437500
v 0.218750 0.531250 0.437500
v 0.218750 0.281250 0.312500
v 0.218750 0.531250 0.312500
v 0.437500 0.281250 0.906250
v 0.437500 0.531250 0.906250
v 0.312500 0.281250 0.906250
v 0.312500 0.531250 0.906250
v 0.437500 0.281250 0.781250
v 0.437500 0.531250 0.781250
v 0.312500 0.281250 0.781250
v 0.312500 0.531250 0.781250
v 0.906250 0.281250 0.562500
v 0.906250 0.531250 0.562500
v 0.906250 0.281250 0.687500
v 0.906250 0.531250 0.687500
v 0.781250 0.281250 0.562500
v 0.781250 0.531250 0.562500
v 0.781250 0.281250 0.687500
v 0.781250 0.531250 0.687500
v 0.562500 0.281250 0.093750
v 0.562500 0.531250 0.093750
v 0.687500 0.281250 0.093750
v 0.687500 0.531250 0.093750
v 0.562500 0.281250 0.218750
v 0.562500 0.531250 0.218750
v 0.687500 0.281250 0.218750
v 0.687500 0.531250 0.218750
vt 0.125000 0.625000
vt 0.125000 0.875000
vt 0.000000 0.875000
vt 0.000000 0.625000
vt 0.125000 0.625000
vt 0.125000 0.875000
vt 0.000000 0.875000
vt 0.000000 0.625000
vt 0.125000 0.625000
vt 0.125000 0.875000
vt 0.000000 0.875000
vt 0.000000 0.625000
vt 0.125000 0.625000
vt 0.125000 0.875000
vt 0.000000 0.875000
vt 0.000000 0.625000
vt 0.000000 0.500000
vt 0.125000 0.500000
vt 0.125000 1.000000
vt -0.000000 1.000000
vt 0.125000 0.625000
vt 0.125000 0.875000
vt 0.000000 0.875000
vt 0.000000 0.625000
vt 0.125000 0.625000
vt 0.125000 0.875000
vt 0.000000 0.875000
vt 0.000000 0.625000
vt 0.125000 0.625000
vt 0.125000 0.875000
vt 0.000000 0.875000
vt 0.000000 0.625000
vt 0.125000 0.625000
vt 0.125000 0.875000
vt 0.000000 0.875000
vt 0.000000 0.625000
vt 0.000000 0.500000
vt 0.125000 0.500000
vt 0.125000 1.000000
vt -0.000000 1.000000
vt 0.125000 0.625000
vt 0.125000 0.875000
vt 0.000000 0.875000
vt 0.000000 0.625000
vt 0.125000 0.625000
vt 0.125000 0.875000
vt 0.000000 0.875000
vt 0.000000 0.625000
vt 0.125000 0.625000
vt 0.125000 0.875000
vt 0.000000 0.875000
vt 0.000000 0.625000
vt 0.125000 0.625000
vt 0.125000 0.875000
vt 0.000000 0.875000
vt 0.000000 0.625000
vt 0.000000 0.500000
vt 0.125000 0.500000
vt 0.125000 1.000000
vt -0.000000 1.000000
vt 0.125000 0.625000
vt 0.125000 0.875000
vt 0.000000 0.875000
vt 0.000000 0.625000
vt 0.125000 0.625000
vt 0.125000 0.875000
vt 0.000000 0.875000
vt 0.000000 0.625000
vt 0.125000 0.625000
vt 0.125000 0.875000
vt 0.000000 0.875000
vt 0.000000 0.625000
vt 0.125000 0.625000
vt 0.125000 0.875000
vt 0.000000 0.875000
vt 0.000000 0.625000
vt 0.000000 0.500000
vt 0.125000 0.500000
vt 0.125000 1.000000
vt -0.000000 1.000000
vn -1.0000 0.0000 0.0000
vn 0.0000 0.0000 -1.0000
vn 1.0000 0.0000 0.0000
vn 0.0000 0.0000 1.0000
vn 0.0000 -1.0000 0.0000
vn 0.0000 1.0000 0.0000
usemtl m_1
s off
f 9/22/7 10/23/7 12/24/7 11/25/7
f 11/26/8 12/27/8 16/28/8 15/29/8
f 15/30/9 16/31/9 14/32/9 13/33/9
f 13/34/10 14/35/10 10/36/10 9/37/10
f 11/38/11 15/39/11 13/34/11 9/37/11
f 16/28/12 12/27/12 10/40/12 14/41/12
f 17/42/10 18/43/10 20/44/10 19/45/10
f 19/46/7 20/47/7 24/48/7 23/49/7
f 23/50/8 24/51/8 22/52/8 21/53/8
f 21/54/9 22/55/9 18/56/9 17/57/9
f 19/58/11 23/59/11 21/54/11 17/57/11
f 24/48/12 20/47/12 18/60/12 22/61/12
f 25/62/9 26/63/9 28/64/9 27/65/9
f 27/66/10 28/67/10 32/68/10 31/69/10
f 31/70/7 32/71/7 30/72/7 29/73/7
f 29/74/8 30/75/8 26/76/8 25/77/8
f 27/78/11 31/79/11 29/74/11 25/77/11
f 32/68/12 28/67/12 26/80/12 30/81/12
f 33/82/8 34/83/8 36/84/8 35/85/8
f 35/86/9 36/87/9 40/88/9 39/89/9
f 39/90/10 40/91/10 38/92/10 37/93/10
f 37/94/7 38/95/7 34/96/7 33/97/7
f 35/98/11 39/99/11 37/94/11 33/97/11
f 40/88/12 36/87/12 34/100/12 38/101/12
o cube3
v 0.093750 0.300000 0.218750
v 0.093750 0.800000 0.218750
v 0.093750 0.300000 0.093750
v 0.093750 0.800000 0.093750
v 0.218750 0.300000 0.218750
v 0.218750 0.800000 0.218750
v 0.218750 0.300000 0.093750
v 0.218750 0.800000 0.093750
v 0.218750 0.300000 0.906250
v 0.218750 0.800000 0.906250
v 0.093750 0.300000 0.906250
v 0.093750 0.800000 0.906250
v 0.218750 0.300000 0.781250
v 0.218750 0.800000 0.781250
v 0.093750 0.300000 0.781250
v 0.093750 0.800000 0.781250
v 0.906250 0.300000 0.781250
v 0.906250 0.800000 0.781250
v 0.906250 0.300000 0.906250
v 0.906250 0.800000 0.906250
v 0.781250 0.300000 0.781250
v 0.781250 0.800000 0.781250
v 0.781250 0.300000 0.906250
v 0.781250 0.800000 0.906250
v 0.781250 0.300000 0.093750
v 0.781250 0.800000 0.093750
v 0.906250 0.300000 0.093750
v 0.906250 0.800000 0.093750
v 0.781250 0.300000 0.218750
v 0.781250 0.800000 0.218750
v 0.906250 0.300000 0.218750
v 0.906250 0.800000 0.218750
vt 0.125000 0.500000
vt 0.125000 1.000000
vt 0.000000 1.000000
vt -0.000000 0.500000
vt 0.125000 0.500000
vt 0.125000 1.000000
vt 0.000000 1.000000
vt -0.000000 0.500000
vt 0.125000 0.500000
vt 0.125000 1.000000
vt 0.000000 1.000000
vt -0.000000 0.500000
vt 0.125000 0.500000
vt 0.125000 1.000000
vt 0.000000 1.000000
vt -0.000000 0.500000
vt 0.125000 0.625000
vt 0.000000 0.625000
vt -0.000000 0.875000
vt 0.125000 0.875000
vt 0.125000 0.500000
vt 0.125000 1.000000
vt 0.000000 1.000000
vt -0.000000 0.500000
vt 0.125000 0.500000
vt 0.125000 1.000000
vt 0.000000 1.000000
vt -0.000000 0.500000
vt 0.125000 0.500000
vt 0.125000 1.000000
vt 0.000000 1.000000
vt -0.000000 0.500000
vt 0.125000 0.500000
vt 0.125000 1.000000
vt 0.000000 1.000000
vt -0.000000 0.500000
vt 0.125000 0.625000
vt 0.000000 0.625000
vt -0.000000 0.875000
vt 0.125000 0.875000
vt 0.125000 0.500000
vt 0.125000 1.000000
vt 0.000000 1.000000
vt -0.000000 0.500000
vt 0.125000 0.500000
vt 0.125000 1.000000
vt 0.000000 1.000000
vt -0.000000 0.500000
vt 0.125000 0.500000
vt 0.125000 1.000000
vt 0.000000 1.000000
vt -0.000000 0.500000
vt 0.125000 0.500000
vt 0.125000 1.000000
vt 0.000000 1.000000
vt -0.000000 0.500000
vt 0.125000 0.625000
vt 0.000000 0.625000
vt -0.000000 0.875000
vt 0.125000 0.875000
vt 0.125000 0.500000
vt 0.125000 1.000000
vt 0.000000 1.000000
vt -0.000000 0.500000
vt 0.125000 0.500000
vt 0.125000 1.000000
vt 0.000000 1.000000
vt -0.000000 0.500000
vt 0.125000 0.500000
vt 0.125000 1.000000
vt 0.000000 1.000000
vt -0.000000 0.500000
vt 0.125000 0.500000
vt 0.125000 1.000000
vt 0.000000 1.000000
vt -0.000000 0.500000
vt 0.125000 0.625000
vt 0.000000 0.625000
vt -0.000000 0.875000
vt 0.125000 0.875000
vn -1.0000 0.0000 0.0000
vn 0.0000 0.0000 -1.0000
vn 1.0000 0.0000 0.0000
vn 0.0000 0.0000 1.0000
vn 0.0000 -1.0000 0.0000
vn 0.0000 1.0000 0.0000
usemtl m_1
s off
f 41/102/13 42/103/13 44/104/13 43/105/13
f 43/106/14 44/107/14 48/108/14 47/109/14
f 47/110/15 48/111/15 46/112/15 45/113/15
f 45/114/16 46/115/16 42/116/16 41/117/16
f 43/105/17 47/110/17 45/118/17 41/119/17
f 48/120/18 44/121/18 42/103/18 46/112/18
f 49/122/16 50/123/16 52/124/16 51/125/16
f 51/126/13 52/127/13 56/128/13 55/129/13
f 55/130/14 56/131/14 54/132/14 53/133/14
f 53/134/15 54/135/15 50/136/15 49/137/15
f 51/125/17 55/130/17 53/138/17 49/139/17
f 56/140/18 52/141/18 50/123/18 54/132/18
f 57/142/15 58/143/15 60/144/15 59/145/15
f 59/146/16 60/147/16 64/148/16 63/149/16
f 63/150/13 64/151/13 62/152/13 61/153/13
f 61/154/14 62/155/14 58/156/14 57/157/14
f 59/145/17 63/150/17 61/158/17 57/159/17
f 64/160/18 60/161/18 58/143/18 62/152/18
f 65/162/14 66/163/14 68/164/14 67/165/14
f 67/166/15 68/167/15 72/168/15 71/169/15
f 71/170/16 72/171/16 70/172/16 69/173/16
f 69/174/13 70/175/13 66/176/13 65/177/13
f 67/165/17 71/170/17 69/178/17 65/179/17
f 72/180/18 68/181/18 66/163/18 70/172/18
o cube4
v 0.125000 0.000000 0.875000
v 0.125000 0.250000 0.875000
v 0.125000 0.000000 0.125000
v 0.125000 0.250000 0.125000
v 0.875000 0.000000 0.875000
v 0.875000 0.250000 0.875000
v 0.875000 0.000000 0.125000
v 0.875000 0.250000 0.125000
v 0.062500 0.312500 0.937500
v 0.062500 0.875000 0.937500
v 0.937500 0.312500 0.937500
v 0.937500 0.875000 0.937500
v 0.062500 0.250000 0.875000
v 0.937500 0.250000 0.875000
v 0.062500 0.937500 1.000000
v 0.937500 0.937500 1.000000
v 0.937500 0.312500 0.937500
v 0.937500 0.875000 0.937500
v 0.937500 0.312500 0.062500
v 0.937500 0.875000 0.062500
v 0.875000 0.250000 0.937500
v 0.875000 0.250000 0.062500
v 1.000000 0.937500 0.937500
v 1.000000 0.937500 0.062500
v 0.937500 0.312500 0.062500
v 0.937500 0.875000 0.062500
v 0.062500 0.312500 0.062500
v 0.062500 0.875000 0.062500
v 0.937500 0.250000 0.125000
v 0.062500 0.250000 0.125000
v 0.937500 0.937500 0.000000
v 0.062500 0.937500 0.000000
v 0.062500 0.312500 0.062500
v 0.062500 0.875000 0.062500
v 0.062500 0.312500 0.937500
v 0.062500 0.875000 0.937500
v 0.125000 0.250000 0.062500
v 0.125000 0.250000 0.937500
v 0.000000 0.937500 0.062500
v 0.000000 0.937500 0.937500
v 0.875000 0.000000 0.875000
v 1.000000 0.000000 1.000000
v 0.875000 0.312500 0.875000
v 1.000000 0.312500 1.000000
v 0.875000 0.000000 0.125000
v 1.000000 0.000000 0.000000
v 0.875000 0.312500 0.125000
v 1.000000 0.312500 0.000000
v 0.125000 0.000000 0.125000
v 0.000000 0.000000 0.000000
v 0.125000 0.312500 0.125000
v 0.000000 0.312500 0.000000
v 0.125000 0.000000 0.875000
v 0.000000 0.000000 1.000000
v 0.125000 0.312500 0.875000
v 0.000000 0.312500 1.000000
v 0.062500 0.312500 0.937500
v 0.062500 0.875000 0.937500
v 0.937500 0.312500 0.937500
v 0.937500 0.875000 0.937500
v 0.062500 0.250000 0.875000
v 0.937500 0.250000 0.875000
v 0.062500 0.937500 1.000000
v 0.937500 0.937500 1.000000
v 0.937500 0.312500 0.937500
v 0.937500 0.875000 0.937500
v 0.937500 0.312500 0.062500
v 0.937500 0.875000 0.062500
v 0.875000 0.250000 0.937500
v 0.875000 0.250000 0.062500
v 1.000000 0.937500 0.937500
v 1.000000 0.937500 0.062500
v 0.937500 0.312500 0.062500
v 0.937500 0.875000 0.062500
v 0.062500 0.312500 0.062500
v 0.062500 0.875000 0.062500
v 0.937500 0.250000 0.125000
v 0.062500 0.250000 0.125000
v 0.937500 0.937500 0.000000
v 0.062500 0.937500 0.000000
v 0.062500 0.312500 0.062500
v 0.062500 0.875000 0.062500
v 0.062500 0.312500 0.937500
v 0.062500 0.875000 0.937500
v 0.125000 0.250000 0.062500
v 0.125000 0.250000 0.937500
v 0.000000 0.937500 0.062500
v 0.000000 0.937500 0.937500
v 0.875000 0.000000 0.875000
v 1.000000 0.000000 1.000000
v 0.875000 0.312500 0.875000
v 1.000000 0.312500 1.000000
v 0.875000 0.000000 0.125000
v 1.000000 0.000000 0.000000
v 0.875000 0.312500 0.125000
v 1.000000 0.312500 0.000000
v 0.125000 0.000000 0.125000
v 0.000000 0.000000 0.000000
v 0.125000 0.312500 0.125000
v 0.000000 0.312500 0.000000
v 0.125000 0.000000 0.875000
v 0.000000 0.000000 1.000000
v 0.125000 0.312500 0.875000
v 0.000000 0.312500 1.000000
vt 0.937500 0.375000
vt 0.937500 0.500000
vt 0.562500 0.500000
vt 0.562500 0.375000
vt 0.937500 0.375000
vt 0.937500 0.500000
vt 0.562500 0.500000
vt 0.562500 0.375000
vt 0.937500 0.375000
vt 0.937500 0.500000
vt 0.562500 0.500000
vt 0.562500 0.375000
vt 0.937500 0.375000
vt 0.937500 0.500000
vt 0.562500 0.500000
vt 0.562500 0.375000
vt 0.562500 0.000000
vt 0.937500 0.000000
vt 0.562500 0.562500
vt 0.937500 0.562500
vt 0.937500 0.937500
vt 0.562500 0.937500
vt 0.468750 0.531250
vt 0.468750 0.812500
vt 0.031250 0.812500
vt 0.031250 0.531250
vt 0.031250 0.500000
vt 0.468750 0.500000
vt 0.468750 0.531250
vt 0.031250 0.531250
vt 0.468750 0.843750
vt 0.031250 0.843750
vt 0.468750 0.531250
vt 0.468750 0.812500
vt 0.031250 0.812500
vt 0.031250 0.531250
vt 0.031250 0.500000
vt 0.468750 0.500000
vt 0.468750 0.531250
vt 0.031250 0.531250
vt 0.468750 0.843750
vt 0.031250 0.843750
vt 0.468750 0.531250
vt 0.468750 0.812500
vt 0.031250 0.812500
vt 0.031250 0.531250
vt 0.031250 0.500000
vt 0.468750 0.500000
vt 0.468750 0.531250
vt 0.031250 0.531250
vt 0.468750 0.843750
vt 0.031250 0.843750
vt 0.468750 0.531250
vt 0.468750 0.812500
vt 0.031250 0.812500
vt 0.031250 0.531250
vt 0.031250 0.500000
vt 0.468750 0.500000
vt 0.468750 0.531250
vt 0.031250 0.531250
vt 0.468750 0.843750
vt 0.031250 0.843750
vt 0.906250 0.343750
vt 1.000000 0.343750
vt 1.000000 0.500000
vt 0.906250 0.500000
vt 0.906250 0.343750
vt 1.000000 0.343750
vt 1.000000 0.500000
vt 0.906250 0.500000
vt 0.906250 0.343750
vt 1.000000 0.343750
vt 1.000000 0.500000
vt 0.906250 0.500000
vt 0.906250 0.343750
vt 1.000000 0.343750
vt 1.000000 0.500000
vt 0.906250 0.500000
vt 0.468750 0.531250
vt 0.031250 0.531250
vt 0.031250 0.812500
vt 0.468750 0.812500
vt 0.031250 0.500000
vt 0.031250 0.531250
vt 0.468750 0.531250
vt 0.468750 0.500000
vt 0.031250 0.843750
vt 0.468750 0.843750
vt 0.468750 0.531250
vt 0.031250 0.531250
vt 0.031250 0.812500
vt 0.468750 0.812500
vt 0.031250 0.500000
vt 0.031250 0.531250
vt 0.468750 0.531250
vt 0.468750 0.500000
vt 0.031250 0.843750
vt 0.468750 0.843750
vt 0.468750 0.531250
vt 0.031250 0.531250
vt 0.031250 0.812500
vt 0.468750 0.812500
vt 0.031250 0.500000
vt 0.031250 0.531250
vt 0.468750 0.531250
vt 0.468750 0.500000
vt 0.031250 0.843750
vt 0.468750 0.843750
vt 0.468750 0.531250
vt 0.031250 0.531250
vt 0.031250 0.812500
vt 0.468750 0.812500
vt 0.031250 0.500000
vt 0.031250 0.531250
vt 0.468750 0.531250
vt 0.468750 0.500000
vt 0.031250 0.843750
vt 0.468750 0.843750
vt 0.906250 0.343750
vt 0.906250 0.500000
vt 1.000000 0.500000
vt 1.000000 0.343750
vt 0.906250 0.343750
vt 0.906250 0.500000
vt 1.000000 0.500000
vt 1.000000 0.343750
vt 0.906250 0.343750
vt 0.906250 0.500000
vt 1.000000 0.500000
vt 1.000000 0.343750
vt 0.906250 0.343750
vt 0.906250 0.500000
vt 1.000000 0.500000
vt 1.000000 0.343750
vn -1.0000 0.0000 0.0000
vn 0.0000 0.0000 -1.0000
vn 1.0000 0.0000 0.0000
vn 0.0000 0.0000 1.0000
vn 0.0000 -1.0000 0.0000
vn 0.0000 1.0000 0.0000
vn 0.0000 -0.7071 0.7071
vn 0.7071 -0.7071 -0.0000
vn -0.0000 -0.7071 -0.7071
vn -0.7071 -0.7071 0.0000
vn -0.7071 0.0000 0.7071
vn 0.7071 0.0000 0.7071
vn 0.7071 0.0000 -0.7071
vn -0.7071 0.0000 -0.7071
vn 0.0000 0.7071 -0.7071
vn -0.7071 0.7071 0.0000
vn 0.0000 0.7071 0.7071
vn 0.7071 0.7071 -0.0000
usemtl m_0
s off
f 73/182/19 74/183/19 76/184/19 75/185/19
f 75/186/20 76/187/20 80/188/20 79/189/20
f 79/190/21 80/191/21 78/192/21 77/193/21
f 77/194/22 78/195/22 74/196/22 73/197/22
f 75/198/23 79/199/23 77/194/23 73/197/23
f 80/200/24 76/201/24 74/202/24 78/203/24
f 83/204/22 84/205/22 82/206/22 81/207/22
f 83/208/25 81/209/25 85/210/25 86/211/25
f 82/206/25 84/205/25 88/212/25 87/213/25
f 91/214/21 92/215/21 90/216/21 89/217/21
f 91/218/26 89/219/26 93/220/26 94/221/26
f 90/216/26 92/215/26 96/222/26 95/223/26
f 99/224/20 100/225/20 98/226/20 97/227/20
f 99/228/27 97/229/27 101/230/27 102/231/27
f 98/226/27 100/225/27 104/232/27 103/233/27
f 107/234/19 108/235/19 106/236/19 105/237/19
f 107/238/28 105/239/28 109/240/28 110/241/28
f 106/236/28 108/235/28 112/242/28 111/243/28
f 113/244/29 114/245/29 116/246/29 115/247/29
f 117/248/30 118/249/30 120/250/30 119/251/30
f 121/252/31 122/253/31 124/254/31 123/255/31
f 125/256/32 126/257/32 128/258/32 127/259/32
f 131/260/20 129/261/20 130/262/20 132/263/20
f 131/264/33 134/265/33 133/266/33 129/267/33
f 130/262/33 135/268/33 136/269/33 132/263/33
f 139/270/19 137/271/19 138/272/19 140/273/19
f 139/274/34 142/275/34 141/276/34 137/277/34
f 138/272/34 143/278/34 144/279/34 140/273/34
f 147/280/22 145/281/22 146/282/22 148/283/22
f 147/284/35 150/285/35 149/286/35 145/287/35
f 146/282/35 151/288/35 152/289/35 148/283/35
f 155/290/21 153/291/21 154/292/21 156/293/21
f 155/294/36 158/295/36 157/296/36 153/297/36
f 154/292/36 159/298/36 160/299/36 156/293/36
f 161/300/31 163/301/31 164/302/31 162/303/31
f 165/304/32 167/305/32 168/306/32 166/307/32
f 169/308/29 171/309/29 172/310/29 170/311/29
f 173/312/30 175/313/30 176/314/30 174/315/30
