# Blender v3.0.1 OBJ File: 'Bogey.blend'
# www.blender.org
mtllib bogey_wheel.mtl
o Cube.029_Cube.049
v 0.750000 0.449926 0.000000
v 1.062500 0.387426 0.160477
v 1.062500 0.387426 0.000000
v 0.750000 0.318146 0.318146
v 0.875000 0.160477 0.387426
v 0.875000 0.186365 0.449926
v 1.062500 0.160477 0.387426
v 1.062500 0.273951 0.273951
v 0.875000 0.387426 0.160477
v 0.875000 0.449926 0.186365
v 0.750000 0.449926 0.186365
v 0.750000 0.000000 0.449926
v 0.875000 -0.186365 0.449926
v 1.062500 0.000000 0.387426
v 0.750000 0.186365 0.449926
v 0.750000 -0.318145 0.318146
v 1.062500 -0.387426 0.160477
v 1.062500 -0.273951 0.273951
v 0.875000 -0.160477 0.387426
v 1.062500 -0.160477 0.387426
v 0.750000 -0.186365 0.449926
v 0.750000 -0.449926 0.000000
v 1.062500 -0.387426 0.000000
v 0.875000 -0.387426 0.160477
v 0.875000 -0.449926 0.186365
v 0.750000 -0.449926 0.186365
v 0.750000 -0.318145 -0.318146
v 0.875000 -0.186365 -0.449926
v 1.062500 -0.273951 -0.273951
v 0.875000 -0.387426 -0.160477
v 0.875000 -0.449926 -0.186365
v 1.062500 -0.387426 -0.160477
v 0.750000 -0.449926 -0.186365
v 0.750000 0.000000 -0.449926
v 0.875000 0.160477 -0.387426
v 1.062500 0.160477 -0.387426
v 0.750000 0.186365 -0.449926
v 1.062500 0.000000 -0.387426
v 0.875000 -0.160477 -0.387426
v 1.062500 -0.160477 -0.387426
v 0.750000 -0.186365 -0.449926
v 0.750000 0.318146 -0.318146
v 0.875000 0.387426 -0.160477
v 0.875000 0.449926 -0.186365
v 1.062500 0.387426 -0.160477
v 0.750000 -0.000000 0.000000
v 0.750000 0.449926 -0.186365
v 1.062500 -0.000000 0.000000
v 1.062500 0.273951 -0.273951
v 0.875000 0.186365 -0.449926
v 1.187500 -0.125000 -0.125000
v 1.187500 0.125000 -0.125000
v 1.187500 -0.125000 0.124999
v 1.187500 0.125000 0.124999
v 0.187500 -0.125000 0.125000
v 0.187500 0.125000 0.125000
v 0.187500 -0.125000 -0.125000
v 0.187500 0.125000 -0.125000
v -0.750000 0.449926 0.000000
v -1.062500 0.387426 0.160477
v -1.062500 0.387426 0.000000
v -0.750000 0.318146 0.318146
v -0.875000 0.160477 0.387426
v -0.875000 0.186365 0.449926
v -1.062500 0.160477 0.387426
v -1.062500 0.273951 0.273951
v -0.875000 0.387426 0.160477
v -0.875000 0.449926 0.186365
v -0.750000 0.449926 0.186365
v -0.750000 0.000000 0.449926
v -0.875000 -0.186365 0.449926
v -1.062500 0.000000 0.387426
v -0.750000 0.186365 0.449926
v -0.750000 -0.318145 0.318146
v -1.062500 -0.387426 0.160477
v -1.062500 -0.273951 0.273951
v -0.875000 -0.160477 0.387426
v -1.062500 -0.160477 0.387426
v -0.750000 -0.186365 0.449926
v -0.750000 -0.449926 0.000000
v -1.062500 -0.387426 0.000000
v -0.875000 -0.387426 0.160477
v -0.875000 -0.449926 0.186365
v -0.750000 -0.449926 0.186365
v -0.750000 -0.318145 -0.318146
v -0.875000 -0.186365 -0.449926
v -1.062500 -0.273951 -0.273951
v -0.875000 -0.387426 -0.160477
v -0.875000 -0.449926 -0.186365
v -1.062500 -0.387426 -0.160477
v -0.750000 -0.449926 -0.186365
v -0.750000 0.000000 -0.449926
v -0.875000 0.160477 -0.387426
v -1.062500 0.160477 -0.387426
v -0.750000 0.186365 -0.449926
v -1.062500 0.000000 -0.387426
v -0.875000 -0.160477 -0.387426
v -1.062500 -0.160477 -0.387426
v -0.750000 -0.186365 -0.449926
v -0.750000 0.318146 -0.318146
v -0.875000 0.387426 -0.160477
v -0.875000 0.449926 -0.186365
v -1.062500 0.387426 -0.160477
v -0.750000 -0.000000 0.000000
v -0.750000 0.449926 -0.186365
v -1.062500 -0.000000 0.000000
v -1.062500 0.273951 -0.273951
v -0.875000 0.186365 -0.449926
v -1.187500 -0.125000 -0.125000
v -1.187500 0.125000 -0.125000
v -1.187500 -0.125000 0.124999
v -1.187500 0.125000 0.124999
v -0.187500 -0.125000 0.125000
v -0.187500 0.125000 0.125000
v -0.187500 -0.125000 -0.125000
v -0.187500 0.125000 -0.125000
v 0.875000 0.387426 0.000000
v 0.875000 0.449926 0.000000
v 0.875000 0.273951 0.273951
v 0.875000 0.318146 0.318146
v 0.875000 0.000000 0.387426
v 0.875000 0.000000 0.449926
v 0.875000 -0.273951 0.273951
v 0.875000 -0.318145 0.318146
v 0.875000 -0.387426 -0.000000
v 0.875000 -0.449926 0.000000
v 0.875000 -0.273951 -0.273951
v 0.875000 -0.318145 -0.318145
v 0.875000 0.000000 -0.387426
v 0.875000 0.000000 -0.449926
v 0.875000 0.273951 -0.273951
v 0.875000 0.318146 -0.318145
v -0.875000 0.000000 0.387426
v -0.875000 0.000000 0.449926
v -0.875000 0.273951 0.273951
v -0.875000 0.318146 0.318146
v -0.875000 0.387426 0.000000
v -0.875000 0.449926 0.000000
v -0.875000 0.273951 -0.273951
v -0.875000 0.318146 -0.318145
v -0.875000 0.000000 -0.387426
v -0.875000 0.000000 -0.449926
v -0.875000 -0.273951 -0.273951
v -0.875000 -0.318145 -0.318145
v -0.875000 -0.387426 -0.000000
v -0.875000 -0.449926 0.000000
v -0.875000 -0.273951 0.273951
v -0.875000 -0.318145 0.318146
vt 0.375000 1.000000
vt 0.625000 0.000000
vt 0.625000 1.000000
vt 0.375000 0.000000
vt 0.625000 1.000000
vt 0.375000 1.000000
vt 0.375000 0.000000
vt 0.625000 1.000000
vt 0.375000 1.000000
vt 0.375000 1.000000
vt 0.625000 0.000000
vt 0.625000 1.000000
vt 0.625000 0.000000
vt 0.375000 1.000000
vt 0.625000 1.000000
vt 0.625000 1.000000
vt 0.375000 0.000000
vt 0.375000 1.000000
vt 0.625000 1.000000
vt 0.375000 0.000000
vt 0.375000 1.000000
vt 0.625000 0.000000
vt 0.375000 1.000000
vt 0.625000 1.000000
vt 0.375000 0.000000
vt 0.625000 0.000000
vt 0.625000 0.000000
vt 0.375000 0.000000
vt 0.375000 0.000000
vt 0.625000 0.000000
vt 0.625000 0.000000
vt 0.375000 0.000000
vt 0.625000 0.375000
vt 0.375000 0.625000
vt 0.375000 0.375000
vt 0.375000 0.625000
vt 0.625000 0.375000
vt 0.375000 0.375000
vt 0.625000 0.625000
vt 0.625000 0.625000
vt 0.906250 0.937500
vt 0.812500 1.000000
vt 0.812500 0.937500
vt 0.812500 0.687500
vt 0.731773 0.656250
vt 0.812500 0.656250
vt 0.731773 0.781250
vt 0.812500 0.593750
vt 0.812500 0.781250
vt 0.812500 0.562500
vt 0.718750 0.781250
vt 0.812500 0.781250
vt 0.893227 0.781250
vt 0.906250 0.781250
vt 0.812500 0.843750
vt 0.731773 0.937500
vt 0.731773 0.843750
vt 0.812500 0.937500
vt 0.906250 1.000000
vt 0.812500 1.000000
vt 0.812500 0.687500
vt 0.731773 0.656250
vt 0.812500 0.656250
vt 0.731773 0.781250
vt 0.812500 0.781250
vt 0.718750 0.781250
vt 0.812500 0.781250
vt 0.893227 0.781250
vt 0.906250 0.781250
vt 0.812500 0.843750
vt 0.731773 0.937500
vt 0.731773 0.843750
vt 0.906250 0.937500
vt 0.812500 1.000000
vt 0.812500 0.937500
vt 0.812500 0.687500
vt 0.731773 0.656250
vt 0.812500 0.656250
vt 0.731773 0.781250
vt 0.812500 0.781250
vt 0.718750 0.781250
vt 0.812500 0.781250
vt 0.893227 0.781250
vt 0.906250 0.781250
vt 0.812500 0.937500
vt 0.731773 0.843750
vt 0.812500 0.843750
vt 0.812500 0.937500
vt 0.906250 1.000000
vt 0.812500 1.000000
vt 0.812500 0.687500
vt 0.731773 0.656250
vt 0.812500 0.656250
vt 0.731773 0.781250
vt 0.812500 0.781250
vt 0.718750 0.781250
vt 0.812500 0.781250
vt 0.893227 0.781250
vt 0.906250 0.781250
vt 0.812500 0.843750
vt 0.731773 0.937500
vt 0.731773 0.843750
vt 0.812500 0.937500
vt 0.906250 1.000000
vt 0.812500 1.000000
vt 0.812500 0.687500
vt 0.731773 0.656250
vt 0.812500 0.656250
vt 0.731773 0.781250
vt 0.812500 0.781250
vt 0.718750 0.781250
vt 0.812500 0.781250
vt 0.893227 0.781250
vt 0.906250 0.781250
vt 0.812500 0.937500
vt 0.731773 0.843750
vt 0.812500 0.843750
vt 0.906250 0.937500
vt 0.812500 1.000000
vt 0.812500 0.937500
vt 0.812500 0.687500
vt 0.731773 0.656250
vt 0.812500 0.656250
vt 0.731773 0.781250
vt 0.812500 0.781250
vt 0.718750 0.781250
vt 0.812500 0.781250
vt 0.893227 0.781250
vt 0.906250 0.781250
vt 0.812500 0.937500
vt 0.731773 0.843750
vt 0.812500 0.843750
vt 0.906250 0.937500
vt 0.812500 1.000000
vt 0.812500 0.937500
vt 0.812500 0.687500
vt 0.731773 0.656250
vt 0.812500 0.656250
vt 0.731773 0.781250
vt 0.812500 0.781250
vt 0.718750 0.781250
vt 0.812500 0.781250
vt 0.893227 0.781250
vt 0.906250 0.781250
vt 0.812500 0.937500
vt 0.731773 0.843750
vt 0.812500 0.843750
vt 0.812500 0.937500
vt 0.906250 1.000000
vt 0.812500 1.000000
vt 0.812500 0.687500
vt 0.731773 0.656250
vt 0.812500 0.656250
vt 0.731773 0.781250
vt 0.812500 0.781250
vt 0.718750 0.781250
vt 0.812500 0.781250
vt 0.893227 0.781250
vt 0.906250 0.781250
vt 0.812500 0.937500
vt 0.731773 0.843750
vt 0.812500 0.843750
vt 0.812500 1.000000
vt 0.906250 0.937500
vt 0.812500 0.937500
vt 0.731773 0.656250
vt 0.812500 0.687500
vt 0.812500 0.656250
vt 0.731773 0.781250
vt 0.812500 0.781250
vt 0.812500 0.593750
vt 0.812500 0.562500
vt 0.812500 0.781250
vt 0.718750 0.781250
vt 0.893227 0.781250
vt 0.906250 0.781250
vt 0.812500 0.843750
vt 0.731773 0.937500
vt 0.812500 0.937500
vt 0.812500 0.937500
vt 0.906250 1.000000
vt 0.906250 0.937500
vt 0.731773 0.656250
vt 0.812500 0.687500
vt 0.812500 0.656250
vt 0.731773 0.781250
vt 0.812500 0.781250
vt 0.812500 0.781250
vt 0.718750 0.781250
vt 0.893227 0.781250
vt 0.906250 0.781250
vt 0.812500 0.843750
vt 0.731773 0.937500
vt 0.812500 0.937500
vt 0.812500 1.000000
vt 0.906250 0.937500
vt 0.812500 0.937500
vt 0.731773 0.656250
vt 0.812500 0.687500
vt 0.812500 0.656250
vt 0.731773 0.781250
vt 0.812500 0.781250
vt 0.812500 0.781250
vt 0.718750 0.781250
vt 0.893227 0.781250
vt 0.906250 0.781250
vt 0.731773 0.843750
vt 0.812500 0.937500
vt 0.812500 0.843750
vt 0.812500 1.000000
vt 0.906250 0.937500
vt 0.812500 0.937500
vt 0.731773 0.656250
vt 0.812500 0.687500
vt 0.812500 0.656250
vt 0.731773 0.781250
vt 0.812500 0.781250
vt 0.812500 0.781250
vt 0.718750 0.781250
vt 0.893227 0.781250
vt 0.906250 0.781250
vt 0.812500 0.843750
vt 0.731773 0.937500
vt 0.812500 0.937500
vt 0.812500 0.937500
vt 0.906250 1.000000
vt 0.906250 0.937500
vt 0.731773 0.656250
vt 0.812500 0.687500
vt 0.812500 0.656250
vt 0.731773 0.781250
vt 0.812500 0.781250
vt 0.812500 0.781250
vt 0.718750 0.781250
vt 0.893227 0.781250
vt 0.906250 0.781250
vt 0.731773 0.843750
vt 0.812500 0.937500
vt 0.812500 0.843750
vt 0.812500 1.000000
vt 0.906250 0.937500
vt 0.812500 0.937500
vt 0.731773 0.656250
vt 0.812500 0.687500
vt 0.812500 0.656250
vt 0.731773 0.781250
vt 0.812500 0.781250
vt 0.812500 0.781250
vt 0.718750 0.781250
vt 0.893227 0.781250
vt 0.906250 0.781250
vt 0.731773 0.843750
vt 0.812500 0.937500
vt 0.812500 0.843750
vt 0.812500 1.000000
vt 0.906250 0.937500
vt 0.812500 0.937500
vt 0.731773 0.656250
vt 0.812500 0.687500
vt 0.812500 0.656250
vt 0.731773 0.781250
vt 0.812500 0.781250
vt 0.812500 0.781250
vt 0.718750 0.781250
vt 0.893227 0.781250
vt 0.906250 0.781250
vt 0.731773 0.843750
vt 0.812500 0.937500
vt 0.812500 0.843750
vt 0.812500 0.937500
vt 0.906250 1.000000
vt 0.906250 0.937500
vt 0.731773 0.656250
vt 0.812500 0.687500
vt 0.812500 0.656250
vt 0.731773 0.781250
vt 0.812500 0.781250
vt 0.812500 0.781250
vt 0.718750 0.781250
vt 0.893227 0.781250
vt 0.906250 0.781250
vt 0.731773 0.843750
vt 0.812500 0.937500
vt 0.812500 0.843750
vt 0.893227 0.656250
vt 0.893227 0.843750
vt 0.812500 0.937500
vt 0.718750 1.000000
vt 0.718750 0.937500
vt 0.893227 0.656250
vt 0.893227 0.843750
vt 0.812500 0.937500
vt 0.718750 1.000000
vt 0.718750 0.937500
vt 0.893227 0.656250
vt 0.893227 0.937500
vt 0.893227 0.843750
vt 0.718750 1.000000
vt 0.718750 0.937500
vt 0.893227 0.656250
vt 0.893227 0.937500
vt 0.893227 0.843750
vt 0.718750 1.000000
vt 0.718750 0.937500
vt 0.893227 0.656250
vt 0.893227 0.937500
vt 0.893227 0.843750
vt 0.718750 0.937500
vt 0.718750 1.000000
vt 0.893227 0.656250
vt 0.893227 0.937500
vt 0.893227 0.843750
vt 0.718750 1.000000
vt 0.718750 0.937500
vt 0.893227 0.656250
vt 0.893227 0.937500
vt 0.893227 0.843750
vt 0.718750 0.937500
vt 0.718750 1.000000
vt 0.893227 0.843750
vt 0.718750 1.000000
vt 0.718750 0.937500
vt 0.893227 0.656250
vt 0.906250 0.687500
vt 0.893227 0.937500
vt 0.893227 0.843750
vt 0.718750 1.000000
vt 0.718750 0.937500
vt 0.893227 0.656250
vt 0.906250 0.687500
vt 0.893227 0.843750
vt 0.893227 0.937500
vt 0.718750 1.000000
vt 0.718750 0.937500
vt 0.893227 0.656250
vt 0.906250 0.687500
vt 0.893227 0.843750
vt 0.893227 0.937500
vt 0.718750 1.000000
vt 0.718750 0.937500
vt 0.893227 0.656250
vt 0.906250 0.687500
vt 0.893227 0.843750
vt 0.893227 0.937500
vt 0.718750 1.000000
vt 0.718750 0.937500
vt 0.893227 0.656250
vt 0.906250 0.687500
vt 0.893227 0.937500
vt 0.893227 0.843750
vt 0.718750 0.937500
vt 0.893227 0.656250
vt 0.906250 0.687500
vt 0.893227 0.937500
vt 0.893227 0.843750
vt 0.718750 1.000000
vt 0.718750 0.937500
vt 0.893227 0.656250
vt 0.906250 0.687500
vt 0.893227 0.937500
vt 0.893227 0.843750
vt 0.718750 0.937500
vt 0.812500 1.000000
vt 0.893227 0.656250
vt 0.906250 0.687500
vt 0.893227 0.937500
vt 0.893227 0.843750
vt 0.718750 1.000000
vt 0.718750 0.937500
vt 0.906250 1.000000
vt 0.718750 0.687500
vt 0.906250 0.937500
vt 0.718750 0.687500
vt 0.906250 1.000000
vt 0.718750 0.687500
vt 0.731773 0.937500
vt 0.906250 0.937500
vt 0.718750 0.687500
vt 0.812500 0.937500
vt 0.906250 0.937500
vt 0.718750 0.687500
vt 0.731773 0.937500
vt 0.906250 1.000000
vt 0.718750 0.687500
vt 0.731773 0.937500
vt 0.906250 1.000000
vt 0.718750 0.687500
vt 0.731773 0.937500
vt 0.906250 0.937500
vt 0.893227 0.656250
vt 0.906250 0.687500
vt 0.718750 0.687500
vt 0.731773 0.937500
vt 0.906250 1.000000
vt 0.718750 0.687500
vt 0.731773 0.843750
vt 0.812500 1.000000
vt 0.718750 0.687500
vt 0.731773 0.843750
vt 0.906250 1.000000
vt 0.718750 0.687500
vt 0.731773 0.937500
vt 0.906250 1.000000
vt 0.718750 0.687500
vt 0.731773 0.843750
vt 0.718750 0.687500
vt 0.731773 0.937500
vt 0.906250 1.000000
vt 0.718750 0.687500
vt 0.731773 0.937500
vt 0.906250 1.000000
vt 0.718750 0.687500
vt 0.731773 0.937500
vt 0.812500 1.000000
vt 0.718750 0.687500
vt 0.731773 0.937500
vt 0.906250 0.687500
vt 0.893227 0.937500
vt 0.906250 0.687500
vt 0.893227 0.937500
vt 0.906250 0.687500
vt 0.906250 0.687500
vt 0.906250 0.687500
vt 0.906250 0.687500
vt 0.906250 0.687500
vt 0.893227 0.937500
vt 0.718750 1.000000
vt 0.718750 1.000000
vn -0.0000 0.0000 -1.0000
vn 0.0000 1.0000 0.0000
vn 0.0000 -1.0000 -0.0000
vn 0.0000 0.0000 1.0000
vn 1.0000 0.0000 -0.0000
vn -1.0000 0.0000 -0.0000
vn 0.0000 0.7071 0.7071
vn 0.0000 -0.7071 0.7071
vn 0.0000 -0.7071 -0.7071
vn 0.0000 0.7071 -0.7071
usemtl 00_Shaft
s off
f 58/1/1 51/2/1 57/3/1
f 54/4/2 58/5/2 56/6/2
f 55/7/3 51/8/3 53/9/3
f 54/10/4 55/11/4 53/12/4
f 109/13/1 116/14/1 115/15/1
f 116/16/2 112/17/2 114/18/2
f 109/19/3 113/20/3 111/21/3
f 113/22/4 112/23/4 111/24/4
f 58/1/1 52/25/1 51/2/1
f 54/4/2 52/26/2 58/5/2
f 55/7/3 57/27/3 51/8/3
f 54/10/4 56/28/4 55/11/4
f 109/13/1 110/29/1 116/14/1
f 116/16/2 110/30/2 112/17/2
f 109/19/3 115/31/3 113/20/3
f 113/22/4 114/32/4 112/23/4
usemtl 00_Shaft_end
f 52/33/5 53/34/5 51/35/5
f 111/36/6 110/37/6 109/38/6
f 52/33/5 54/39/5 53/34/5
f 111/36/6 112/40/6 110/37/6
usemtl wheel_Large
f 44/41/2 1/42/2 118/43/2
f 118/44/5 9/45/5 117/46/5
f 2/47/5 48/48/5 3/49/5
f 46/50/6 11/51/6 1/52/6
f 45/53/5 3/49/5 48/48/5
f 46/50/6 1/52/6 47/54/6
f 3/55/2 9/56/2 2/57/2
f 120/58/7 11/59/7 4/60/7
f 120/61/5 5/62/5 119/63/5
f 7/64/5 48/48/5 8/65/5
f 46/50/6 15/66/6 4/67/6
f 2/68/5 8/65/5 48/48/5
f 46/50/6 4/67/6 11/69/6
f 8/70/7 5/71/7 7/72/7
f 6/73/4 12/74/4 122/75/4
f 122/76/5 19/77/5 121/78/5
f 20/79/5 48/48/5 14/80/5
f 46/50/6 21/81/6 12/82/6
f 7/83/5 14/80/5 48/48/5
f 46/50/6 12/82/6 15/84/6
f 121/85/4 20/86/4 14/87/4
f 124/88/8 21/89/8 16/90/8
f 124/91/5 24/92/5 123/93/5
f 17/94/5 48/48/5 18/95/5
f 46/50/6 26/96/6 16/97/6
f 20/98/5 18/95/5 48/48/5
f 46/50/6 16/97/6 21/99/6
f 18/100/8 24/101/8 17/102/8
f 126/103/3 26/104/3 22/105/3
f 126/106/5 30/107/5 125/108/5
f 32/109/5 48/48/5 23/110/5
f 46/50/6 33/111/6 22/112/6
f 17/113/5 23/110/5 48/48/5
f 46/50/6 22/112/6 26/114/6
f 125/115/3 32/116/3 23/117/3
f 31/118/9 27/119/9 128/120/9
f 128/121/5 39/122/5 127/123/5
f 40/124/5 48/48/5 29/125/5
f 46/50/6 41/126/6 27/127/6
f 32/128/5 29/125/5 48/48/5
f 46/50/6 27/127/6 33/129/6
f 127/130/9 40/131/9 29/132/9
f 28/133/1 34/134/1 130/135/1
f 130/136/5 35/137/5 129/138/5
f 36/139/5 48/48/5 38/140/5
f 46/50/6 37/141/6 34/142/6
f 40/143/5 38/140/5 48/48/5
f 46/50/6 34/142/6 41/144/6
f 129/145/1 36/146/1 38/147/1
f 132/148/10 37/149/10 42/150/10
f 132/151/5 43/152/5 131/153/5
f 45/154/5 48/48/5 49/155/5
f 46/50/6 47/156/6 42/157/6
f 36/158/5 49/155/5 48/48/5
f 46/50/6 42/157/6 37/159/6
f 131/160/10 45/161/10 49/162/10
f 59/163/2 102/164/2 138/165/2
f 67/166/6 138/167/6 137/168/6
f 60/169/6 61/170/6 106/171/6
f 104/172/5 59/173/5 69/174/5
f 103/175/6 106/171/6 61/170/6
f 104/172/5 105/176/5 59/173/5
f 61/177/2 67/178/2 137/179/2
f 136/180/7 69/181/7 68/182/7
f 63/183/6 136/184/6 135/185/6
f 65/186/6 66/187/6 106/171/6
f 104/172/5 62/188/5 73/189/5
f 60/190/6 106/171/6 66/187/6
f 104/172/5 69/191/5 62/188/5
f 66/192/7 63/193/7 135/194/7
f 70/195/4 64/196/4 134/197/4
f 77/198/6 134/199/6 133/200/6
f 78/201/6 72/202/6 106/171/6
f 104/172/5 70/203/5 79/204/5
f 65/205/6 106/171/6 72/202/6
f 104/172/5 73/206/5 70/203/5
f 78/207/4 133/208/4 72/209/4
f 74/210/8 71/211/8 148/212/8
f 82/213/6 148/214/6 147/215/6
f 75/216/6 76/217/6 106/171/6
f 104/172/5 74/218/5 84/219/5
f 78/220/6 106/171/6 76/217/6
f 104/172/5 79/221/5 74/218/5
f 76/222/8 82/223/8 147/224/8
f 146/225/3 84/226/3 83/227/3
f 88/228/6 146/229/6 145/230/6
f 90/231/6 81/232/6 106/171/6
f 104/172/5 80/233/5 91/234/5
f 75/235/6 106/171/6 81/232/6
f 104/172/5 84/236/5 80/233/5
f 90/237/3 145/238/3 81/239/3
f 85/240/9 89/241/9 144/242/9
f 97/243/6 144/244/6 143/245/6
f 98/246/6 87/247/6 106/171/6
f 104/172/5 85/248/5 99/249/5
f 90/250/6 106/171/6 87/247/6
f 104/172/5 91/251/5 85/248/5
f 98/252/9 143/253/9 87/254/9
f 92/255/1 86/256/1 142/257/1
f 93/258/6 142/259/6 141/260/6
f 94/261/6 96/262/6 106/171/6
f 104/172/5 92/263/5 95/264/5
f 98/265/6 106/171/6 96/262/6
f 104/172/5 99/266/5 92/263/5
f 94/267/1 141/268/1 96/269/1
f 140/270/10 95/271/10 108/272/10
f 101/273/6 140/274/6 139/275/6
f 103/276/6 107/277/6 106/171/6
f 104/172/5 100/278/5 105/279/5
f 94/280/6 106/171/6 107/277/6
f 104/172/5 95/281/5 100/278/5
f 103/282/10 139/283/10 107/284/10
f 43/285/5 118/44/5 117/46/5
f 45/286/2 117/287/2 3/55/2
f 118/43/2 11/288/2 10/289/2
f 9/290/5 120/61/5 119/63/5
f 2/291/7 119/292/7 8/70/7
f 120/58/7 15/293/7 6/294/7
f 5/295/5 122/76/5 121/78/5
f 5/296/4 14/87/4 7/297/4
f 122/75/4 21/298/4 13/299/4
f 19/300/5 124/91/5 123/93/5
f 19/301/8 18/100/8 20/302/8
f 124/88/8 26/303/8 25/304/8
f 24/305/5 126/106/5 125/108/5
f 24/306/3 23/117/3 17/307/3
f 31/308/3 22/105/3 33/309/3
f 30/310/5 128/121/5 127/123/5
f 30/311/9 29/132/9 32/312/9
f 128/120/9 41/313/9 28/314/9
f 39/315/5 130/136/5 129/138/5
f 39/316/1 38/147/1 40/317/1
f 50/318/1 34/134/1 37/319/1
f 36/320/10 131/160/10 49/162/10
f 132/148/10 47/321/10 44/322/10
f 63/323/6 134/199/6 64/324/6
f 72/209/4 63/325/4 65/326/4
f 79/327/4 134/197/4 71/328/4
f 67/329/6 136/184/6 68/330/6
f 60/331/7 135/194/7 67/332/7
f 73/333/7 136/180/7 64/334/7
f 101/335/6 138/167/6 102/336/6
f 103/337/2 137/179/2 101/338/2
f 69/339/2 138/165/2 68/340/2
f 93/341/6 140/274/6 108/342/6
f 94/343/10 139/283/10 93/344/10
f 105/345/10 140/270/10 102/346/10
f 97/347/6 142/259/6 86/348/6
f 96/269/1 97/349/1 98/350/1
f 108/351/1 92/255/1 142/257/1
f 88/352/6 144/244/6 89/353/6
f 87/254/9 88/354/9 90/355/9
f 99/356/9 144/242/9 86/357/9
f 82/358/6 146/229/6 83/359/6
f 81/239/3 82/360/3 75/361/3
f 89/362/3 80/363/3 146/225/3
f 77/364/6 148/214/6 71/365/6
f 76/222/8 77/366/8 78/367/8
f 84/368/8 148/212/8 83/369/8
f 44/41/2 47/370/2 1/42/2
f 118/44/5 10/371/5 9/45/5
f 3/55/2 117/287/2 9/56/2
f 120/58/7 10/372/7 11/59/7
f 120/61/5 6/373/5 5/62/5
f 8/70/7 119/292/7 5/71/7
f 6/73/4 15/374/4 12/74/4
f 122/76/5 13/375/5 19/77/5
f 121/85/4 19/376/4 20/86/4
f 124/88/8 13/377/8 21/89/8
f 124/91/5 25/378/5 24/92/5
f 18/100/8 123/379/8 24/101/8
f 126/103/3 25/380/3 26/104/3
f 126/106/5 31/381/5 30/107/5
f 125/115/3 30/382/3 32/116/3
f 31/118/9 33/383/9 27/119/9
f 128/121/5 28/384/5 39/122/5
f 127/130/9 39/385/9 40/131/9
f 28/133/1 41/386/1 34/134/1
f 130/136/5 50/387/5 35/137/5
f 129/145/1 35/388/1 36/146/1
f 132/148/10 50/389/10 37/149/10
f 131/153/5 35/390/5 132/151/5
f 35/390/5 50/391/5 132/151/5
f 132/151/5 44/392/5 43/152/5
f 131/160/10 43/393/10 45/161/10
f 59/163/2 105/394/2 102/164/2
f 67/166/6 68/395/6 138/167/6
f 61/177/2 60/396/2 67/178/2
f 136/180/7 62/397/7 69/181/7
f 63/183/6 64/398/6 136/184/6
f 66/192/7 65/399/7 63/193/7
f 70/195/4 73/400/4 64/196/4
f 77/198/6 71/401/6 134/199/6
f 78/207/4 77/402/4 133/208/4
f 74/210/8 79/403/8 71/211/8
f 82/213/6 83/404/6 148/214/6
f 76/222/8 75/405/8 82/223/8
f 146/225/3 80/363/3 84/226/3
f 88/228/6 89/406/6 146/229/6
f 90/237/3 88/407/3 145/238/3
f 85/240/9 91/408/9 89/241/9
f 97/243/6 86/409/6 144/244/6
f 98/252/9 97/410/9 143/253/9
f 92/255/1 99/411/1 86/256/1
f 93/258/6 108/412/6 142/259/6
f 94/267/1 93/413/1 141/268/1
f 140/270/10 100/414/10 95/271/10
f 101/273/6 102/415/6 140/274/6
f 103/282/10 101/416/10 139/283/10
f 43/285/5 44/417/5 118/44/5
f 45/286/2 43/418/2 117/287/2
f 118/43/2 1/42/2 11/288/2
f 9/290/5 10/419/5 120/61/5
f 2/291/7 9/420/7 119/292/7
f 120/58/7 4/60/7 15/293/7
f 5/295/5 6/421/5 122/76/5
f 5/296/4 121/85/4 14/87/4
f 122/75/4 12/74/4 21/298/4
f 19/300/5 13/422/5 124/91/5
f 19/301/8 123/379/8 18/100/8
f 124/88/8 16/90/8 26/303/8
f 24/305/5 25/423/5 126/106/5
f 24/306/3 125/115/3 23/117/3
f 31/308/3 126/103/3 22/105/3
f 30/310/5 31/424/5 128/121/5
f 30/311/9 127/130/9 29/132/9
f 128/120/9 27/119/9 41/313/9
f 39/315/5 28/425/5 130/136/5
f 39/316/1 129/145/1 38/147/1
f 50/318/1 130/135/1 34/134/1
f 36/320/10 35/426/10 131/160/10
f 132/148/10 42/150/10 47/321/10
f 63/323/6 133/200/6 134/199/6
f 72/209/4 133/208/4 63/325/4
f 79/327/4 70/195/4 134/197/4
f 67/329/6 135/185/6 136/184/6
f 60/331/7 66/192/7 135/194/7
f 73/333/7 62/397/7 136/180/7
f 101/335/6 137/168/6 138/167/6
f 103/337/2 61/177/2 137/179/2
f 69/339/2 59/163/2 138/165/2
f 93/341/6 139/275/6 140/274/6
f 94/343/10 107/284/10 139/283/10
f 105/345/10 100/414/10 140/270/10
f 97/347/6 141/260/6 142/259/6
f 96/269/1 141/268/1 97/349/1
f 108/351/1 95/427/1 92/255/1
f 88/352/6 143/245/6 144/244/6
f 87/254/9 143/253/9 88/354/9
f 99/356/9 85/240/9 144/242/9
f 82/358/6 145/230/6 146/229/6
f 81/239/3 145/238/3 82/360/3
f 89/362/3 91/428/3 80/363/3
f 77/364/6 147/215/6 148/214/6
f 76/222/8 147/224/8 77/366/8
f 84/368/8 74/210/8 148/212/8
