# Blender v3.0.1 OBJ File: 'Bogey.blend'
# www.blender.org
mtllib bogey_drive_piston.mtl
o Cube.039_Cube.046
v 1.062500 1.062500 0.250000
v 1.062500 1.187500 0.250000
v 1.187500 1.062500 0.250000
v 1.187500 1.187500 0.250000
v 1.062500 1.062500 1.000000
v 1.062500 1.187500 1.000000
v 1.187500 1.187500 1.000000
v 1.187500 1.062500 1.000000
v 1.062500 1.062500 -0.250000
v 1.062500 1.187500 -0.250000
v 1.187500 1.062500 -0.250000
v 1.187500 1.187500 -0.250000
v 1.062500 1.062500 -1.000000
v 1.062500 1.187500 -1.000000
v 1.187500 1.187500 -1.000000
v 1.187500 1.062500 -1.000000
v 1.062500 0.812500 0.250000
v 1.062500 0.937500 0.250000
v 1.187500 0.812500 0.250000
v 1.187500 0.937500 0.250000
v 1.062500 0.812500 1.000000
v 1.062500 0.937500 1.000000
v 1.187500 0.937500 1.000000
v 1.187500 0.812500 1.000000
v 1.062500 0.812500 -0.250000
v 1.062500 0.937500 -0.250000
v 1.187500 0.812500 -0.250000
v 1.187500 0.937500 -0.250000
v 1.062500 0.812500 -1.000000
v 1.062500 0.937500 -1.000000
v 1.187500 0.937500 -1.000000
v 1.187500 0.812500 -1.000000
v -1.062500 1.062500 0.250000
v -1.062500 1.187500 0.250000
v -1.187500 1.062500 0.250000
v -1.187500 1.187500 0.250000
v -1.062500 1.062500 1.000000
v -1.062500 1.187500 1.000000
v -1.187500 1.187500 1.000000
v -1.187500 1.062500 1.000000
v -1.062500 1.062500 -0.250000
v -1.062500 1.187500 -0.250000
v -1.187500 1.062500 -0.250000
v -1.187500 1.187500 -0.250000
v -1.062500 1.062500 -1.000000
v -1.062500 1.187500 -1.000000
v -1.187500 1.187500 -1.000000
v -1.187500 1.062500 -1.000000
v -1.062500 0.812500 0.250000
v -1.062500 0.937500 0.250000
v -1.187500 0.812500 0.250000
v -1.187500 0.937500 0.250000
v -1.062500 0.812500 1.000000
v -1.062500 0.937500 1.000000
v -1.187500 0.937500 1.000000
v -1.187500 0.812500 1.000000
v -1.062500 0.812500 -0.250000
v -1.062500 0.937500 -0.250000
v -1.187500 0.812500 -0.250000
v -1.187500 0.937500 -0.250000
v -1.062500 0.812500 -1.000000
v -1.062500 0.937500 -1.000000
v -1.187500 0.937500 -1.000000
v -1.187500 0.812500 -1.000000
v 1.062500 0.687500 0.062500
v 1.062500 1.312500 0.062500
v 1.062500 0.687500 -0.062500
v 1.062500 1.312500 -0.062500
v 1.187500 0.687500 0.062500
v 1.187500 1.312500 0.062500
v 1.187500 0.687500 -0.062500
v 1.187500 1.312500 -0.062500
v 1.062500 0.562500 -0.187500
v 1.062500 0.562500 0.187500
v 1.062500 1.437500 0.187500
v 1.062500 1.437500 -0.187500
v 1.187500 1.437500 -0.187500
v 1.187500 0.562500 -0.187500
v 1.187500 0.562500 0.187500
v 1.187500 1.437500 0.187500
v 1.062500 0.750000 0.250000
v 1.062500 1.250000 0.250000
v 1.062500 0.750000 0.125000
v 1.062500 1.250000 0.125000
v 1.250000 0.750000 0.250000
v 1.250000 1.250000 0.250000
v 1.250000 0.750000 0.125000
v 1.250000 1.250000 0.125000
v 1.062500 0.750000 -0.125000
v 1.062500 1.250000 -0.125000
v 1.062500 0.750000 -0.250000
v 1.062500 1.250000 -0.250000
v 1.250000 0.750000 -0.125000
v 1.250000 1.250000 -0.125000
v 1.250000 0.750000 -0.250000
v 1.250000 1.250000 -0.250000
v -1.062500 0.687500 0.062500
v -1.062500 1.312500 0.062500
v -1.062500 0.687500 -0.062500
v -1.062500 1.312500 -0.062500
v -1.187500 0.687500 0.062500
v -1.187500 1.312500 0.062500
v -1.187500 0.687500 -0.062500
v -1.187500 1.312500 -0.062500
v -1.062500 0.562500 -0.187500
v -1.062500 0.562500 0.187500
v -1.062500 1.437500 0.187500
v -1.062500 1.437500 -0.187500
v -1.187500 1.437500 -0.187500
v -1.187500 0.562500 -0.187500
v -1.187500 0.562500 0.187500
v -1.187500 1.437500 0.187500
v -1.062500 0.750000 0.250000
v -1.062500 1.250000 0.250000
v -1.062500 0.750000 0.125000
v -1.062500 1.250000 0.125000
v -1.250000 0.750000 0.250000
v -1.250000 1.250000 0.250000
v -1.250000 0.750000 0.125000
v -1.250000 1.250000 0.125000
v -1.062500 0.750000 -0.125000
v -1.062500 1.250000 -0.125000
v -1.062500 0.750000 -0.250000
v -1.062500 1.250000 -0.250000
v -1.250000 0.750000 -0.125000
v -1.250000 1.250000 -0.125000
v -1.250000 0.750000 -0.250000
v -1.250000 1.250000 -0.250000
vt 0.968750 0.000000
vt 0.906250 0.375000
vt 0.968750 0.375000
vt 0.906250 0.000000
vt 0.968750 0.375000
vt 0.906250 0.375000
vt 0.937500 0.000000
vt 1.000000 0.375000
vt 0.937500 0.375000
vt 0.937500 0.000000
vt 1.000000 0.375000
vt 0.937500 0.375000
vt 0.906250 0.375000
vt 0.968750 0.000000
vt 0.968750 0.375000
vt 0.968750 0.375000
vt 0.906250 0.000000
vt 0.906250 0.375000
vt 1.000000 0.375000
vt 0.937500 0.000000
vt 0.937500 0.375000
vt 1.000000 0.375000
vt 0.937500 0.000000
vt 0.937500 0.375000
vt 0.968750 0.000000
vt 0.906250 0.375000
vt 0.968750 0.375000
vt 0.906250 0.000000
vt 0.968750 0.375000
vt 0.906250 0.375000
vt 0.937500 0.000000
vt 1.000000 0.375000
vt 0.937500 0.375000
vt 0.937500 0.000000
vt 1.000000 0.375000
vt 0.937500 0.375000
vt 0.906250 0.375000
vt 0.968750 0.000000
vt 0.968750 0.375000
vt 0.968750 0.375000
vt 0.906250 0.000000
vt 0.906250 0.375000
vt 1.000000 0.375000
vt 0.937500 0.000000
vt 0.937500 0.375000
vt 1.000000 0.375000
vt 0.937500 0.000000
vt 0.937500 0.375000
vt 0.906250 0.375000
vt 0.968750 0.000000
vt 0.968750 0.375000
vt 0.968750 0.375000
vt 0.906250 0.000000
vt 0.906250 0.375000
vt 1.000000 0.375000
vt 0.937500 0.000000
vt 0.937500 0.375000
vt 1.000000 0.375000
vt 0.937500 0.000000
vt 0.937500 0.375000
vt 0.968750 0.000000
vt 0.906250 0.375000
vt 0.968750 0.375000
vt 0.906250 0.000000
vt 0.968750 0.375000
vt 0.906250 0.375000
vt 0.937500 0.000000
vt 1.000000 0.375000
vt 0.937500 0.375000
vt 0.937500 0.000000
vt 1.000000 0.375000
vt 0.937500 0.375000
vt 0.906250 0.375000
vt 0.968750 0.000000
vt 0.968750 0.375000
vt 0.968750 0.375000
vt 0.906250 0.000000
vt 0.906250 0.375000
vt 1.000000 0.375000
vt 0.937500 0.000000
vt 0.937500 0.375000
vt 1.000000 0.375000
vt 0.937500 0.000000
vt 0.937500 0.375000
vt 0.968750 0.000000
vt 0.906250 0.375000
vt 0.968750 0.375000
vt 0.906250 0.000000
vt 0.968750 0.375000
vt 0.906250 0.375000
vt 0.937500 0.000000
vt 1.000000 0.375000
vt 0.937500 0.375000
vt 0.937500 0.000000
vt 1.000000 0.375000
vt 0.937500 0.375000
vt 0.250000 0.500000
vt 0.187500 0.937500
vt 0.250000 0.937500
vt 0.062500 0.750000
vt 0.125000 0.812500
vt 0.062500 0.812500
vt 0.187500 0.500000
vt 0.250000 0.937500
vt 0.187500 0.937500
vt 0.062500 0.687500
vt 0.125000 0.875000
vt 0.125000 0.687500
vt 0.125000 0.687500
vt 0.062500 0.875000
vt 0.062500 0.687500
vt 0.125000 0.562500
vt 0.187500 0.937500
vt 0.125000 0.875000
vt 0.062500 0.562500
vt 0.187500 0.500000
vt 0.000000 0.937500
vt 0.062500 0.875000
vt 0.000000 0.500000
vt 0.250000 0.562500
vt 0.187500 0.875000
vt 0.250000 0.875000
vt 0.062500 0.812500
vt 0.125000 0.750000
vt 0.125000 0.812500
vt 0.250000 0.562500
vt 0.187500 0.875000
vt 0.187500 0.562500
vt 0.250000 0.937500
vt 0.343750 0.687500
vt 0.250000 0.687500
vt 0.343750 0.937500
vt 0.093750 1.000000
vt 0.093750 0.937500
vt 0.343750 0.937500
vt 0.250000 0.687500
vt 0.343750 0.687500
vt 0.125000 0.562500
vt 0.062500 0.656250
vt 0.125000 0.656250
vt 0.125000 0.656250
vt 0.062500 0.562500
vt 0.125000 0.562500
vt 0.250000 0.937500
vt 0.343750 0.687500
vt 0.250000 0.687500
vt 0.343750 1.000000
vt 0.093750 0.937500
vt 0.093750 1.000000
vt 0.343750 0.937500
vt 0.250000 0.687500
vt 0.343750 0.687500
vt 0.062500 0.562500
vt 0.125000 0.656250
vt 0.062500 0.656250
vt 0.062500 0.656250
vt 0.125000 0.562500
vt 0.062500 0.562500
vt 0.187500 0.937500
vt 0.250000 0.500000
vt 0.250000 0.937500
vt 0.125000 0.812500
vt 0.062500 0.750000
vt 0.062500 0.812500
vt 0.250000 0.937500
vt 0.187500 0.500000
vt 0.187500 0.937500
vt 0.125000 0.875000
vt 0.062500 0.687500
vt 0.125000 0.687500
vt 0.062500 0.875000
vt 0.125000 0.687500
vt 0.062500 0.687500
vt 0.187500 0.937500
vt 0.125000 0.562500
vt 0.125000 0.875000
vt 0.187500 0.500000
vt 0.062500 0.562500
vt 0.000000 0.937500
vt 0.062500 0.875000
vt 0.187500 0.875000
vt 0.250000 0.562500
vt 0.250000 0.875000
vt 0.125000 0.750000
vt 0.062500 0.812500
vt 0.125000 0.812500
vt 0.187500 0.875000
vt 0.250000 0.562500
vt 0.187500 0.562500
vt 0.343750 0.687500
vt 0.250000 0.937500
vt 0.250000 0.687500
vt 0.093750 1.000000
vt 0.343750 0.937500
vt 0.093750 0.937500
vt 0.250000 0.687500
vt 0.343750 0.937500
vt 0.343750 0.687500
vt 0.062500 0.656250
vt 0.125000 0.562500
vt 0.125000 0.656250
vt 0.062500 0.562500
vt 0.125000 0.656250
vt 0.125000 0.562500
vt 0.343750 0.687500
vt 0.250000 0.937500
vt 0.250000 0.687500
vt 0.093750 0.937500
vt 0.343750 1.000000
vt 0.093750 1.000000
vt 0.250000 0.687500
vt 0.343750 0.937500
vt 0.343750 0.687500
vt 0.125000 0.656250
vt 0.062500 0.562500
vt 0.062500 0.656250
vt 0.125000 0.562500
vt 0.062500 0.656250
vt 0.062500 0.562500
vt 0.906250 0.000000
vt 0.968750 0.000000
vt 1.000000 0.000000
vt 1.000000 0.000000
vt 0.906250 0.000000
vt 0.968750 0.000000
vt 1.000000 0.000000
vt 1.000000 0.000000
vt 0.906250 0.000000
vt 0.968750 0.000000
vt 1.000000 0.000000
vt 1.000000 0.000000
vt 0.906250 0.000000
vt 0.968750 0.000000
vt 1.000000 0.000000
vt 1.000000 0.000000
vt 0.906250 0.000000
vt 0.968750 0.000000
vt 1.000000 0.000000
vt 1.000000 0.000000
vt 0.906250 0.000000
vt 0.968750 0.000000
vt 1.000000 0.000000
vt 1.000000 0.000000
vt 0.906250 0.000000
vt 0.968750 0.000000
vt 1.000000 0.000000
vt 1.000000 0.000000
vt 0.906250 0.000000
vt 0.968750 0.000000
vt 1.000000 0.000000
vt 1.000000 0.000000
vt 0.187500 0.500000
vt 0.125000 0.750000
vt 0.250000 0.500000
vt 0.062500 0.875000
vt 0.125000 0.875000
vt 0.187500 0.562500
vt 0.062500 0.750000
vt 0.250000 0.875000
vt 0.343750 1.000000
vt 0.250000 0.937500
vt 0.062500 0.562500
vt 0.062500 0.656250
vt 0.343750 0.937500
vt 0.250000 0.937500
vt 0.125000 0.562500
vt 0.125000 0.656250
vt 0.187500 0.500000
vt 0.125000 0.750000
vt 0.250000 0.500000
vt 0.062500 0.875000
vt 0.125000 0.875000
vt 0.000000 0.500000
vt 0.187500 0.562500
vt 0.062500 0.750000
vt 0.250000 0.875000
vt 0.343750 1.000000
vt 0.250000 0.937500
vt 0.062500 0.562500
vt 0.062500 0.656250
vt 0.343750 0.937500
vt 0.250000 0.937500
vt 0.125000 0.562500
vt 0.125000 0.656250
vn 0.0000 -1.0000 0.0000
vn 0.0000 1.0000 0.0000
vn 1.0000 0.0000 0.0000
vn -1.0000 0.0000 0.0000
vn 0.0000 0.0000 -1.0000
vn 0.0000 0.0000 1.0000
usemtl Bogey_Piston
s off
f 8/1/1 1/2/1 3/3/1
f 6/4/2 4/5/2 2/6/2
f 7/7/3 3/8/3 4/9/3
f 5/10/4 2/11/4 1/12/4
f 9/13/1 16/14/1 11/15/1
f 12/16/2 14/17/2 10/18/2
f 11/19/3 15/20/3 12/21/3
f 10/22/4 13/23/4 9/24/4
f 24/25/1 17/26/1 19/27/1
f 22/28/2 20/29/2 18/30/2
f 23/31/3 19/32/3 20/33/3
f 21/34/4 18/35/4 17/36/4
f 25/37/1 32/38/1 27/39/1
f 28/40/2 30/41/2 26/42/2
f 27/43/3 31/44/3 28/45/3
f 26/46/4 29/47/4 25/48/4
f 33/49/1 40/50/1 35/51/1
f 36/52/2 38/53/2 34/54/2
f 35/55/4 39/56/4 36/57/4
f 34/58/3 37/59/3 33/60/3
f 48/61/1 41/62/1 43/63/1
f 46/64/2 44/65/2 42/66/2
f 47/67/4 43/68/4 44/69/4
f 45/70/3 42/71/3 41/72/3
f 49/73/1 56/74/1 51/75/1
f 52/76/2 54/77/2 50/78/2
f 51/79/4 55/80/4 52/81/4
f 50/82/3 53/83/3 49/84/3
f 64/85/1 57/86/1 59/87/1
f 62/88/2 60/89/2 58/90/2
f 63/91/4 59/92/4 60/93/4
f 61/94/3 58/95/3 57/96/3
f 76/97/5 78/98/5 73/99/5
f 65/100/2 71/101/2 67/102/2
f 80/103/6 74/104/6 79/105/6
f 78/106/1 74/107/1 73/108/1
f 76/109/2 80/110/2 77/111/2
f 71/112/3 77/113/3 72/114/3
f 69/115/3 78/116/3 71/112/3
f 72/114/3 80/117/3 70/118/3
f 69/115/3 80/117/3 79/119/3
f 69/120/5 66/121/5 70/122/5
f 70/123/1 68/124/1 72/125/1
f 71/126/6 68/127/6 67/128/6
f 84/129/5 87/130/5 83/131/5
f 88/132/3 85/133/3 87/134/3
f 86/135/6 81/136/6 85/137/6
f 87/138/1 81/139/1 83/140/1
f 84/141/2 86/142/2 88/143/2
f 92/144/5 95/145/5 91/146/5
f 96/147/3 93/148/3 95/149/3
f 94/150/6 89/151/6 93/152/6
f 95/153/1 89/154/1 91/155/1
f 92/156/2 94/157/2 96/158/2
f 110/159/5 108/160/5 105/161/5
f 103/162/2 97/163/2 99/164/2
f 106/165/6 112/166/6 111/167/6
f 106/168/1 110/169/1 105/170/1
f 112/171/2 108/172/2 109/173/2
f 109/174/4 103/175/4 104/176/4
f 110/177/4 101/178/4 103/175/4
f 112/179/4 104/176/4 102/180/4
f 101/178/4 112/179/4 102/180/4
f 98/181/5 101/182/5 102/183/5
f 100/184/1 102/185/1 104/186/1
f 100/187/6 103/188/6 99/189/6
f 119/190/5 116/191/5 115/192/5
f 117/193/4 120/194/4 119/195/4
f 113/196/6 118/197/6 117/198/6
f 113/199/1 119/200/1 115/201/1
f 118/202/2 116/203/2 120/204/2
f 127/205/5 124/206/5 123/207/5
f 125/208/4 128/209/4 127/210/4
f 121/211/6 126/212/6 125/213/6
f 121/214/1 127/215/1 123/216/1
f 126/217/2 124/218/2 128/219/2
f 8/1/1 5/220/1 1/2/1
f 6/4/2 7/221/2 4/5/2
f 7/7/3 8/222/3 3/8/3
f 5/10/4 6/223/4 2/11/4
f 9/13/1 13/224/1 16/14/1
f 12/16/2 15/225/2 14/17/2
f 11/19/3 16/226/3 15/20/3
f 10/22/4 14/227/4 13/23/4
f 24/25/1 21/228/1 17/26/1
f 22/28/2 23/229/2 20/29/2
f 23/31/3 24/230/3 19/32/3
f 21/34/4 22/231/4 18/35/4
f 25/37/1 29/232/1 32/38/1
f 28/40/2 31/233/2 30/41/2
f 27/43/3 32/234/3 31/44/3
f 26/46/4 30/235/4 29/47/4
f 33/49/1 37/236/1 40/50/1
f 36/52/2 39/237/2 38/53/2
f 35/55/4 40/238/4 39/56/4
f 34/58/3 38/239/3 37/59/3
f 48/61/1 45/240/1 41/62/1
f 46/64/2 47/241/2 44/65/2
f 47/67/4 48/242/4 43/68/4
f 45/70/3 46/243/3 42/71/3
f 49/73/1 53/244/1 56/74/1
f 52/76/2 55/245/2 54/77/2
f 51/79/4 56/246/4 55/80/4
f 50/82/3 54/247/3 53/83/3
f 64/85/1 61/248/1 57/86/1
f 62/88/2 63/249/2 60/89/2
f 63/91/4 64/250/4 59/92/4
f 61/94/3 62/251/3 58/95/3
f 76/97/5 77/252/5 78/98/5
f 65/100/2 69/253/2 71/101/2
f 80/103/6 75/254/6 74/104/6
f 78/106/1 79/255/1 74/107/1
f 76/109/2 75/256/2 80/110/2
f 71/112/3 78/116/3 77/113/3
f 69/115/3 79/119/3 78/116/3
f 72/114/3 77/113/3 80/117/3
f 69/115/3 70/118/3 80/117/3
f 69/120/5 65/257/5 66/121/5
f 70/123/1 66/258/1 68/124/1
f 71/126/6 72/259/6 68/127/6
f 84/129/5 88/132/5 87/130/5
f 88/132/3 86/260/3 85/133/3
f 86/135/6 82/261/6 81/136/6
f 87/138/1 85/262/1 81/139/1
f 84/141/2 82/263/2 86/142/2
f 92/144/5 96/264/5 95/145/5
f 96/147/3 94/150/3 93/148/3
f 94/150/6 90/265/6 89/151/6
f 95/153/1 93/266/1 89/154/1
f 92/156/2 90/267/2 94/157/2
f 110/159/5 109/268/5 108/160/5
f 103/162/2 101/269/2 97/163/2
f 106/165/6 107/270/6 112/166/6
f 106/168/1 111/271/1 110/169/1
f 112/171/2 107/272/2 108/172/2
f 109/174/4 110/177/4 103/175/4
f 110/177/4 111/273/4 101/178/4
f 112/179/4 109/174/4 104/176/4
f 101/178/4 111/273/4 112/179/4
f 98/181/5 97/274/5 101/182/5
f 100/184/1 98/275/1 102/185/1
f 100/187/6 104/276/6 103/188/6
f 119/190/5 120/194/5 116/191/5
f 117/193/4 118/277/4 120/194/4
f 113/196/6 114/278/6 118/197/6
f 113/199/1 117/279/1 119/200/1
f 118/202/2 114/280/2 116/203/2
f 127/205/5 128/281/5 124/206/5
f 125/208/4 126/212/4 128/209/4
f 121/211/6 122/282/6 126/212/6
f 121/214/1 125/283/1 127/215/1
f 126/217/2 122/284/2 124/218/2
